<svg width="96" height="96" viewBox="0 0 96 96" fill="none" xmlns="http://www.w3.org/2000/svg">
<circle cx="48" cy="48" r="48" fill="#4A4947"/>
<circle cx="48" cy="48" r="41" fill="#D8D2C2"/>
<path d="M26.888 63.3105C25.8873 63.3105 24.8867 63.207 23.886 63L26.9915 46.7998C27.026 46.6273 27.0433 46.4548 27.0433 46.2822C27.0778 46.0752 27.095 45.8509 27.095 45.6094C27.095 44.7812 26.9225 44.3672 26.5774 44.3672C26.2669 44.3672 25.8356 44.5397 25.2835 44.8848C24.7659 45.2298 24.2656 45.6266 23.7825 46.0752C23.334 46.4893 23.0062 46.8343 22.7991 47.1104C22.7301 47.1104 22.5403 46.9378 22.2298 46.5928C21.9537 46.2477 21.8157 46.0062 21.8157 45.8682C22.0228 45.3851 22.4541 44.8158 23.1097 44.1602C23.7998 43.4701 24.5934 42.7972 25.4905 42.1416C26.4222 41.4515 27.3538 40.8822 28.2854 40.4336C29.2516 39.985 30.097 39.7607 30.8216 39.7607C31.6152 39.7607 32.2708 40.0195 32.7884 40.5371C33.306 41.0202 33.5647 41.7448 33.5647 42.7109C33.5647 43.2285 33.5302 43.7288 33.4612 44.2119C33.4267 44.6605 33.375 45.0918 33.306 45.5059L32.8919 47.7832C33.8925 45.4368 35.083 43.5218 36.4632 42.0381C37.8779 40.5199 39.4479 39.7607 41.1731 39.7607C42.4153 39.7607 43.554 40.4336 44.5892 41.7793C44.5892 43.125 44.3304 44.3327 43.8128 45.4023C43.3297 46.4375 42.5361 46.9551 41.4319 46.9551C40.8799 46.9551 40.276 46.5755 39.6204 45.8164C38.9648 45.0573 38.361 44.6777 37.8089 44.6777C37.3948 44.6777 36.8427 45.109 36.1526 45.9717C35.497 46.8343 34.8069 47.973 34.0823 49.3877C33.3577 50.7679 32.7021 52.2516 32.1155 53.8389C31.5289 55.4261 31.0804 56.9443 30.7698 58.3936L29.8382 63C28.872 63.207 27.8886 63.3105 26.888 63.3105ZM50.1687 74.2832C48.9265 74.2832 47.8741 74.0589 47.0114 73.6104C46.1488 73.1963 45.6485 72.7477 45.5104 72.2646C45.5104 69.2627 46.4766 67.7617 48.4089 67.7617C48.9265 67.7617 49.3405 67.9342 49.6511 68.2793C49.9271 68.6589 50.1687 69.0902 50.3757 69.5732C50.5827 70.0908 50.8243 70.5221 51.1003 70.8672C51.3763 71.2467 51.7731 71.4365 52.2907 71.4365C53.5329 71.4365 54.5163 70.6429 55.2409 69.0557C55.9655 67.5029 56.5694 65.4499 57.0524 62.8965L60.779 44.2119V44.1084C60.779 43.9359 60.71 43.8496 60.572 43.8496H57.5183C57.3457 43.8496 57.2595 43.6771 57.2595 43.332C57.2595 43.056 57.3975 42.7282 57.6735 42.3486C57.9841 41.9346 58.3636 41.5723 58.8122 41.2617C59.2953 40.9167 59.7611 40.7441 60.2097 40.7441H61.0896C61.2966 40.7441 61.4519 40.4681 61.5554 39.916C62.0729 37.2936 62.9701 35.0163 64.2468 33.084C65.558 31.1517 67.1452 29.668 69.0085 28.6328C70.9063 27.5632 72.9766 27.0283 75.2194 27.0283C77.4623 27.0283 79.0668 27.5977 80.0329 28.7363C80.0329 32.1868 79.015 33.9121 76.9792 33.9121C76.4616 33.9121 76.0476 33.7051 75.737 33.291C75.461 32.877 75.2194 32.4111 75.0124 31.8936C74.8054 31.376 74.5638 30.9102 74.2878 30.4961C74.0118 30.082 73.6149 29.875 73.0974 29.875C71.9932 29.875 70.9408 30.8584 69.9401 32.8252C68.905 34.792 68.0769 37.3626 67.4558 40.5371V40.5889C67.4558 40.7269 67.5075 40.7959 67.611 40.7959H73.5632C73.9082 40.7959 74.0808 41.0547 74.0808 41.5723C74.0808 42.2279 73.8392 42.987 73.3562 43.8496H67.1452C66.9727 43.8496 66.8519 43.9531 66.7829 44.1602L63.7292 59.8945C63.2116 62.5859 62.4007 64.915 61.2966 66.8818C60.2269 68.8831 59.0365 70.4014 57.7253 71.4365C56.4141 72.4372 55.1374 73.1618 53.8952 73.6104C52.6185 74.0589 51.3763 74.2832 50.1687 74.2832Z" fill="#4A4947"/>
</svg>
