<svg width="124" height="125" viewBox="0 0 124 125" fill="none" xmlns="http://www.w3.org/2000/svg">
<path fill-rule="evenodd" clip-rule="evenodd" d="M49.9493 0.0625967C49.6422 0.0905102 49.338 0.165566 49.2732 0.229457C49.2083 0.293348 48.9711 0.345763 48.7459 0.345763C48.5207 0.345763 48.3365 0.40159 48.3365 0.469823C48.3365 0.538056 48.1724 0.593883 47.9718 0.593883C47.7711 0.593883 47.5723 0.64971 47.5301 0.717943C47.4879 0.786176 47.317 0.842003 47.1505 0.842003C46.9839 0.842003 46.8478 0.89783 46.8478 0.966063C46.8478 1.0343 46.685 1.09012 46.4858 1.09012C46.287 1.09012 46.1056 1.13199 46.0827 1.18317C46.0231 1.31715 44.9956 1.83448 44.789 1.83448C44.6932 1.83448 44.6147 1.89031 44.6147 1.95854C44.6147 2.02677 44.531 2.0826 44.4286 2.0826C44.3263 2.0826 44.2425 2.13843 44.2425 2.20666C44.2425 2.27489 44.1588 2.33072 44.0564 2.33072C43.9541 2.33072 43.8704 2.38034 43.8704 2.44144C43.8704 2.50223 43.741 2.58442 43.5832 2.62412C43.425 2.66382 43.1598 2.80835 42.9939 2.94544C42.8276 3.08252 42.6325 3.2438 42.56 3.30397C42.4874 3.36445 42.296 3.48417 42.1351 3.5707C41.6974 3.80486 39.0575 6.51154 38.8261 6.96343C38.7157 7.17867 38.591 7.38306 38.5494 7.41718C38.3847 7.55209 37.9155 8.28311 37.9155 8.40469C37.9155 8.47572 37.8683 8.53371 37.811 8.53371C37.7533 8.53371 37.5718 8.79889 37.4078 9.123C37.2434 9.4471 37.0672 9.73089 37.016 9.75353C36.9649 9.77648 36.923 9.90209 36.923 10.0327C36.923 10.1636 36.8672 10.2706 36.7989 10.2706C36.7307 10.2706 36.6749 10.3822 36.6749 10.5187C36.6749 10.6551 36.6191 10.7668 36.5508 10.7668C36.4826 10.7668 36.4268 10.9343 36.4268 11.139C36.4268 11.3437 36.3709 11.5112 36.3027 11.5112C36.2345 11.5112 36.1786 11.6473 36.1786 11.8139C36.1786 11.9804 36.1228 12.1513 36.0546 12.1935C35.9864 12.2357 35.9305 12.4345 35.9305 12.6351C35.9305 12.8358 35.8747 12.9999 35.8065 12.9999C35.7382 12.9999 35.6824 13.1953 35.6824 13.4341C35.6824 13.6729 35.6266 13.8683 35.5583 13.8683C35.4901 13.8683 35.4343 14.144 35.4343 14.4811C35.4343 14.8183 35.3785 15.1287 35.3102 15.1709C35.2302 15.2205 35.1862 17.5479 35.1862 21.7473V28.2471L46.6825 28.2844C55.7426 28.3135 58.1897 28.3541 58.2303 28.4763C58.2588 28.5616 58.3891 28.6314 58.5197 28.6314C58.6505 28.6314 58.7575 28.6872 58.7575 28.7555C58.7575 28.8237 58.8335 28.8795 58.9266 28.8795C59.7866 28.8795 61.039 32.5644 60.2664 32.8222C60.1864 32.8488 60.1495 32.9171 60.1845 32.9741C60.2199 33.0309 60.1504 33.1757 60.0304 33.2958C59.9104 33.4158 59.84 33.5302 59.8741 33.5501C60.2258 33.7538 58.3522 34.9389 57.61 34.982C57.3541 34.9969 57.1448 35.0537 57.1448 35.108C57.1448 35.1622 47.7134 35.2066 36.1861 35.2066C22.3472 35.2066 15.2011 35.2488 15.1505 35.3306C15.1083 35.3989 14.7979 35.4547 14.4607 35.4547C14.1236 35.4547 13.8479 35.5105 13.8479 35.5788C13.8479 35.647 13.6525 35.7028 13.4137 35.7028C13.1748 35.7028 12.9795 35.7586 12.9795 35.8269C12.9795 35.8951 12.8154 35.9509 12.6147 35.9509C12.414 35.9509 12.2152 36.0068 12.1731 36.075C12.1309 36.1432 11.96 36.1991 11.7934 36.1991C11.6269 36.1991 11.4907 36.2549 11.4907 36.3231C11.4907 36.3914 11.3233 36.4472 11.1186 36.4472C10.9139 36.4472 10.7461 36.4891 10.7454 36.5402C10.7442 36.6516 10.1434 36.9434 9.91517 36.9434C9.82647 36.9434 9.7539 36.9992 9.7539 37.0675C9.7539 37.1357 9.67016 37.1915 9.56781 37.1915C9.46546 37.1915 9.38172 37.2474 9.38172 37.3156C9.38172 37.3838 9.2927 37.4397 9.18384 37.4397C8.981 37.4397 8.23602 37.9111 8.1619 38.0866C8.13895 38.14 8.03598 38.184 7.93239 38.184C7.82911 38.184 7.58533 38.3543 7.39118 38.5624C7.19671 38.7705 7.0069 38.938 6.96906 38.9346C6.93122 38.9312 6.84903 38.9284 6.78638 38.9284C6.63441 38.9284 3.5509 41.9917 3.5509 42.1425C3.5509 42.2073 3.48112 42.3341 3.39583 42.4241C3.07886 42.7593 2.55842 43.6002 2.55842 43.7769C2.55842 43.8777 2.44677 44.0406 2.3103 44.1389C2.17384 44.2372 2.06219 44.3892 2.06219 44.4763C2.06219 44.5638 2.00636 44.6351 1.93813 44.6351C1.86989 44.6351 1.81407 44.7136 1.81407 44.8094C1.81407 45.016 1.29674 46.0435 1.16275 46.1031C1.11158 46.126 1.06971 46.3075 1.06971 46.5063C1.06971 46.7054 1.01388 46.8682 0.945646 46.8682C0.877413 46.8682 0.821586 47.0044 0.821586 47.1709C0.821586 47.3375 0.765759 47.5084 0.697527 47.5505C0.629294 47.5927 0.573467 47.7915 0.573467 47.9922C0.573467 48.1929 0.51764 48.3569 0.449407 48.3569C0.381174 48.3569 0.325347 48.5412 0.325347 48.7663C0.325347 48.9915 0.255563 49.2455 0.170272 49.3308C-0.0567574 49.5578 -0.0567574 74.4492 0.170272 74.6762C0.255563 74.7615 0.325347 75.0155 0.325347 75.2407C0.325347 75.4659 0.381174 75.6501 0.449407 75.6501C0.51764 75.6501 0.573467 75.8176 0.573467 76.0223C0.573467 76.227 0.629294 76.3945 0.697527 76.3945C0.765759 76.3945 0.821586 76.5619 0.821586 76.7666C0.821586 76.9713 0.877413 77.1388 0.945646 77.1388C1.01388 77.1388 1.06971 77.3097 1.06971 77.5184C1.06971 77.7396 1.1215 77.8658 1.19377 77.8211C1.26417 77.7777 1.31783 77.8819 1.31783 78.0618C1.31783 78.2364 1.37365 78.3794 1.44189 78.3794C1.51012 78.3794 1.56595 78.4911 1.56595 78.6275C1.56595 78.764 1.61123 78.8756 1.66674 78.8756C1.72226 78.8756 1.84446 79.071 1.93813 79.3099C2.03179 79.5487 2.15399 79.7441 2.20951 79.7441C2.26502 79.7441 2.3103 79.8278 2.3103 79.9302C2.3103 80.0325 2.36613 80.1162 2.43436 80.1162C2.5026 80.1162 2.55842 80.1829 2.55842 80.2645C2.55842 80.414 3.10708 81.2774 3.39583 81.5829C3.48112 81.6729 3.5509 81.7979 3.5509 81.8605C3.5509 82.0789 6.51345 84.9291 7.02458 85.2027C7.18648 85.2895 7.42126 85.4555 7.54625 85.5718C7.67093 85.6881 7.92556 85.8621 8.11227 85.9582C8.29867 86.0544 8.55951 86.2309 8.69163 86.3503C8.82407 86.4697 9.03683 86.5674 9.1643 86.5674C9.29208 86.5674 9.36187 86.6232 9.31969 86.6914C9.27751 86.7597 9.35783 86.8155 9.49833 86.8155C9.63883 86.8155 9.7539 86.8713 9.7539 86.9395C9.7539 87.0078 9.86555 87.0636 10.002 87.0636C10.1385 87.0636 10.2501 87.1194 10.2501 87.1877C10.2501 87.2559 10.3618 87.3117 10.4983 87.3117C10.6347 87.3117 10.7464 87.3675 10.7464 87.4358C10.7464 87.504 10.9139 87.5598 11.1186 87.5598C11.3233 87.5598 11.4907 87.6157 11.4907 87.6839C11.4907 87.7521 11.6582 87.808 11.8629 87.808C12.0676 87.808 12.2351 87.8638 12.2351 87.932C12.2351 88.0003 12.4026 88.0561 12.6073 88.0561C12.812 88.0561 12.9795 88.1119 12.9795 88.1801C12.9795 88.2484 13.1748 88.3042 13.4137 88.3042C13.6525 88.3042 13.8479 88.36 13.8479 88.4283C13.8479 88.4965 14.127 88.5523 14.4682 88.5523C14.8093 88.5523 15.0885 88.6085 15.0885 88.677C15.0885 88.7601 18.471 88.7911 25.1683 88.77L35.2482 88.7384L35.3186 79.3719C35.3909 69.7492 35.398 69.6233 35.9256 68.2685C36.9615 65.609 39.3856 63.2621 41.8969 62.4873C43.4724 62.001 42.997 62.0125 61.9068 62.0079C74.5345 62.0048 80.286 61.9623 80.6398 61.8695C80.9205 61.796 81.3736 61.6779 81.6466 61.6075C85.0477 60.7276 87.8598 57.5606 88.5111 53.8776C88.7059 52.7747 88.8628 15.1746 88.673 15.0574C88.5955 15.0093 88.5319 14.7535 88.5319 14.4886C88.5319 14.2237 88.4761 13.9725 88.4078 13.9303C88.3396 13.8881 88.2838 13.6614 88.2838 13.4266C88.2838 13.1919 88.228 12.9999 88.1597 12.9999C88.0915 12.9999 88.0357 12.8873 88.0357 12.7499C88.0357 12.4004 87.7469 11.5112 87.6334 11.5112C87.5816 11.5112 87.5394 11.3437 87.5394 11.139C87.5394 10.9343 87.4836 10.7668 87.4154 10.7668C87.3471 10.7668 87.2913 10.6551 87.2913 10.5187C87.2913 10.3822 87.2355 10.2706 87.1672 10.2706C87.099 10.2706 87.0432 10.1589 87.0432 10.0224C87.0432 9.88597 86.9874 9.77431 86.9191 9.77431C86.8509 9.77431 86.7951 9.66266 86.7951 9.52619C86.7951 9.38973 86.7392 9.27807 86.671 9.27807C86.6028 9.27807 86.547 9.17883 86.547 9.05725C86.547 8.93598 86.4353 8.75609 86.2988 8.65777C86.1624 8.55946 86.0507 8.37957 86.0507 8.2583C86.0507 8.13672 85.9949 8.03747 85.9267 8.03747C85.8584 8.03747 85.8026 7.9742 85.8026 7.89698C85.8026 7.81975 85.6993 7.66623 85.5728 7.55581C85.4465 7.4454 85.2499 7.17402 85.1361 6.95288C84.8911 6.47742 81.8953 3.44726 81.6705 3.44726C81.5852 3.44726 81.4382 3.34026 81.3439 3.20969C81.2499 3.07911 80.9304 2.87224 80.6342 2.75004C80.3381 2.62784 80.0958 2.48362 80.0958 2.42935C80.0958 2.37507 80.0121 2.33072 79.9097 2.33072C79.8074 2.33072 79.7237 2.28544 79.7237 2.22992C79.7237 2.17441 79.5283 2.05221 79.2894 1.95854C79.0506 1.86488 78.8552 1.74268 78.8552 1.68716C78.8552 1.63164 78.7436 1.58636 78.6071 1.58636C78.4707 1.58636 78.359 1.53053 78.359 1.4623C78.359 1.39407 78.2473 1.33824 78.1109 1.33824C77.9744 1.33824 77.8628 1.28242 77.8628 1.21418C77.8628 1.14595 77.6953 1.09012 77.4906 1.09012C77.2859 1.09012 77.1184 1.0343 77.1184 0.966063C77.1184 0.89783 76.9509 0.842003 76.7462 0.842003C76.5415 0.842003 76.374 0.786176 76.374 0.717943C76.374 0.64971 76.2066 0.593883 76.0019 0.593883C75.7972 0.593883 75.6297 0.538056 75.6297 0.469823C75.6297 0.40159 75.4454 0.345763 75.2203 0.345763C74.9951 0.345763 74.7411 0.27598 74.6558 0.190688C74.5066 0.0415065 51.4938 -0.0779011 49.9493 0.0625967ZM54.7445 11.4048C58.4762 12.8011 57.4841 18.3344 53.5024 18.3344C49.833 18.3344 48.5319 13.0296 51.8486 11.5924C52.0664 11.4981 52.384 11.361 52.5545 11.2882C53.0613 11.0717 53.9859 11.121 54.7445 11.4048Z" fill="#66DBE6"/>
<path fill-rule="evenodd" clip-rule="evenodd" d="M52.5545 11.2882C52.384 11.361 52.0664 11.4981 51.8486 11.5924C49.65 12.5452 49.2874 15.8709 51.2035 17.511C53.9539 19.8654 58.1478 16.9304 56.879 13.5392C56.2419 11.8365 54.0011 10.6703 52.5545 11.2882ZM68.9822 105.968C67.7478 106.544 66.8214 107.915 66.8214 109.169C66.8214 113.27 72.4519 114.253 73.9 110.405C74.9762 107.546 71.7823 104.665 68.9822 105.968Z" fill="#515164"/>
<path fill-rule="evenodd" clip-rule="evenodd" d="M88.7313 35.4029C88.6898 35.5108 88.656 39.7419 88.656 44.8054C88.656 52.6168 88.6274 54.1204 88.4686 54.7311C87.4938 58.4731 84.3263 61.3947 80.5921 61.9957C80.085 62.0776 76.481 62.126 70.8844 62.1266L61.9831 62.1275V93.0904V124.053L68.3309 124.012C73.2694 123.98 74.6902 123.937 74.7302 123.816C74.7588 123.731 74.9728 123.661 75.2057 123.661C75.4389 123.661 75.6297 123.605 75.6297 123.537C75.6297 123.469 75.7972 123.413 76.0019 123.413C76.2066 123.413 76.374 123.357 76.374 123.289C76.374 123.221 76.5415 123.165 76.7462 123.165C76.9509 123.165 77.1184 123.109 77.1184 123.041C77.1184 122.973 77.2859 122.917 77.4906 122.917C77.6953 122.917 77.8628 122.861 77.8628 122.793C77.8628 122.725 77.9744 122.669 78.1109 122.669C78.2473 122.669 78.359 122.613 78.359 122.545C78.359 122.476 78.4707 122.421 78.6071 122.421C78.7436 122.421 78.8552 122.365 78.8552 122.297C78.8552 122.228 78.9669 122.173 79.1034 122.173C79.2398 122.173 79.3515 122.117 79.3515 122.048C79.3515 121.98 79.4005 121.924 79.4606 121.924C79.6275 121.924 80.9912 121.102 81.3011 120.815C81.4521 120.674 81.6308 120.56 81.6981 120.56C81.9087 120.56 84.8917 117.528 85.1231 117.079C85.244 116.844 85.4465 116.562 85.5728 116.451C85.6993 116.341 85.8026 116.187 85.8026 116.11C85.8026 116.033 85.8584 115.97 85.9266 115.97C85.9949 115.97 86.0507 115.896 86.0507 115.807C86.0507 115.717 86.1624 115.524 86.2988 115.378C86.4353 115.231 86.5469 115.025 86.5469 114.92C86.5469 114.815 86.6028 114.729 86.671 114.729C86.7392 114.729 86.7951 114.617 86.7951 114.481C86.7951 114.344 86.8509 114.233 86.9191 114.233C86.9874 114.233 87.0432 114.121 87.0432 113.985C87.0432 113.848 87.099 113.736 87.1672 113.736C87.2355 113.736 87.2913 113.625 87.2913 113.488C87.2913 113.352 87.3471 113.24 87.4154 113.24C87.4836 113.24 87.5394 113.073 87.5394 112.868C87.5394 112.663 87.5832 112.496 87.6365 112.496C87.6899 112.496 87.8052 112.231 87.8927 111.907C87.9805 111.582 88.1042 111.22 88.1681 111.102C88.2317 110.983 88.2838 110.718 88.2838 110.512C88.2838 110.307 88.3396 110.139 88.4078 110.139C88.4761 110.139 88.5319 109.86 88.5319 109.518C88.5319 109.177 88.5877 108.898 88.656 108.898C88.7372 108.898 88.78 106.626 88.78 102.329V95.7608L77.2837 95.7233C68.2239 95.6938 65.7765 95.6529 65.7359 95.5307C65.7074 95.4454 65.5895 95.3756 65.4738 95.3756C65.3581 95.3756 65.1829 95.2639 65.0846 95.1275C64.9863 94.991 64.8548 94.8793 64.7927 94.8793C64.6398 94.8793 64.241 94.4088 64.1495 94.1201C64.1089 93.992 64.0233 93.8869 63.9597 93.8869C63.8961 93.8869 63.844 93.7752 63.844 93.6387C63.844 93.5023 63.7882 93.3906 63.7199 93.3906C63.6464 93.3906 63.5959 92.9356 63.5959 92.2741C63.5959 91.6125 63.6464 91.1575 63.7199 91.1575C63.7882 91.1575 63.844 91.0698 63.844 90.9625C63.844 90.8555 63.9138 90.6911 63.9991 90.5977C64.0844 90.5044 64.2937 90.2308 64.4643 89.9898C64.6349 89.7488 64.8721 89.55 64.9915 89.5482C65.111 89.5463 65.2086 89.4889 65.2086 89.4207C65.2086 89.3525 65.3203 89.2967 65.4568 89.2967C65.5932 89.2967 65.7049 89.2408 65.7049 89.1726C65.7049 89.1044 65.9527 89.0485 66.2557 89.0485C66.5587 89.0485 66.8413 88.9927 66.8835 88.9245C66.934 88.8426 74.0802 88.8004 87.919 88.8004C101.809 88.8004 108.878 88.7585 108.878 88.6764C108.878 88.6081 109.157 88.5523 109.498 88.5523C109.839 88.5523 110.118 88.4965 110.118 88.4282C110.118 88.36 110.31 88.3042 110.545 88.3042C110.78 88.3042 111.007 88.2483 111.049 88.1801C111.091 88.1119 111.262 88.0561 111.428 88.0561C111.595 88.0561 111.731 88.0002 111.731 87.932C111.731 87.8638 111.899 87.8079 112.103 87.8079C112.308 87.8079 112.475 87.7521 112.475 87.6839C112.475 87.6156 112.643 87.5598 112.848 87.5598C113.052 87.5598 113.22 87.504 113.22 87.4358C113.22 87.3675 113.331 87.3117 113.468 87.3117C113.604 87.3117 113.716 87.2559 113.716 87.1876C113.716 87.1194 113.828 87.0636 113.964 87.0636C114.101 87.0636 114.212 87.0077 114.212 86.9395C114.212 86.8713 114.319 86.8155 114.45 86.8155C114.581 86.8155 114.706 86.7736 114.729 86.7224C114.781 86.6058 115.442 86.2029 115.732 86.1111C115.851 86.0733 115.949 85.9929 115.949 85.9325C115.949 85.8723 116.012 85.823 116.09 85.823C116.167 85.823 116.32 85.7197 116.431 85.5932C116.541 85.4669 116.824 85.2644 117.059 85.1434C117.508 84.9121 120.539 81.929 120.539 81.7185C120.539 81.6512 120.654 81.4725 120.794 81.3215C121.082 81.0116 121.904 79.6479 121.904 79.481C121.904 79.4209 121.96 79.3719 122.028 79.3719C122.096 79.3719 122.152 79.2602 122.152 79.1237C122.152 78.9873 122.208 78.8756 122.276 78.8756C122.344 78.8756 122.4 78.764 122.4 78.6275C122.4 78.491 122.456 78.3794 122.524 78.3794C122.593 78.3794 122.648 78.2677 122.648 78.1313C122.648 77.9948 122.704 77.8831 122.772 77.8831C122.841 77.8831 122.896 77.7157 122.896 77.511C122.896 77.3063 122.952 77.1388 123.021 77.1388C123.089 77.1388 123.145 77.0305 123.145 76.8981C123.145 76.7657 123.2 76.6227 123.269 76.5805C123.337 76.5383 123.393 76.3116 123.393 76.0768C123.393 75.8421 123.449 75.6501 123.517 75.6501C123.585 75.6501 123.641 75.4593 123.641 75.2261C123.641 74.9932 123.711 74.7792 123.796 74.7506C123.919 74.7097 123.951 72.0548 123.951 62.0305C123.951 52.061 123.918 49.3289 123.796 49.2067C123.711 49.1214 123.641 48.8953 123.641 48.7043C123.641 48.5132 123.585 48.3569 123.517 48.3569C123.449 48.3569 123.393 48.1649 123.393 47.9301C123.393 47.6953 123.337 47.4686 123.269 47.4265C123.2 47.3843 123.145 47.2413 123.145 47.1089C123.145 46.9764 123.089 46.8682 123.021 46.8682C122.952 46.8682 122.896 46.7007 122.896 46.496C122.896 46.2913 122.841 46.1238 122.772 46.1238C122.704 46.1238 122.648 46.0122 122.648 45.8757C122.648 45.7392 122.593 45.6276 122.524 45.6276C122.456 45.6276 122.4 45.5159 122.4 45.3795C122.4 45.243 122.344 45.1313 122.276 45.1313C122.208 45.1313 122.152 45.0197 122.152 44.8832C122.152 44.7468 122.096 44.6351 122.028 44.6351C121.96 44.6351 121.904 44.5861 121.904 44.5259C121.904 44.3591 121.082 42.9953 120.794 42.6855C120.654 42.5345 120.539 42.3564 120.539 42.2898C120.539 42.1096 117.729 39.2987 117.639 39.3886C117.597 39.4311 117.562 39.3796 117.562 39.2742C117.562 39.1687 117.387 39.0102 117.174 38.9218C116.96 38.8331 116.656 38.6312 116.497 38.4724C116.338 38.3139 116.15 38.184 116.079 38.184C116.007 38.184 115.949 38.1347 115.949 38.0745C115.949 38.014 115.851 37.9337 115.732 37.8959C115.442 37.8041 114.781 37.4012 114.729 37.2846C114.706 37.2334 114.581 37.1915 114.45 37.1915C114.319 37.1915 114.212 37.1357 114.212 37.0675C114.212 36.9992 114.101 36.9434 113.964 36.9434C113.828 36.9434 113.716 36.8876 113.716 36.8193C113.716 36.7511 113.604 36.6953 113.468 36.6953C113.331 36.6953 113.22 36.6394 113.22 36.5712C113.22 36.503 113.052 36.4472 112.848 36.4472C112.643 36.4472 112.475 36.4034 112.475 36.3501C112.475 36.2967 112.21 36.1814 111.886 36.0939C111.562 36.0061 111.2 35.8824 111.081 35.8185C110.963 35.7549 110.729 35.7028 110.562 35.7028C110.394 35.7028 110.223 35.647 110.18 35.5787C110.138 35.5105 109.859 35.4547 109.56 35.4547C109.261 35.4547 108.982 35.3988 108.94 35.3306C108.794 35.0955 88.8219 35.1669 88.7313 35.4029ZM71.9498 105.979C73.6779 106.796 74.5302 108.731 73.9 110.405C72.4519 114.253 66.8214 113.27 66.8214 109.169C66.8214 108.382 67.2587 107.388 67.8905 106.737C68.9301 105.667 70.6223 105.351 71.9498 105.979Z" fill="#FBDC04"/>
<path fill-rule="evenodd" clip-rule="evenodd" d="M66.6133 62.0966C69.1261 62.1152 73.2015 62.1152 75.6697 62.0966C78.1381 62.0776 76.0825 62.0624 71.1015 62.0624C66.1205 62.0624 64.1008 62.0776 66.6133 62.0966ZM43.5602 62.3223C42.0829 62.6002 41.9784 62.6334 40.8309 63.1877C38.8521 64.1435 37.257 65.7588 36.4264 67.6482C35.4492 69.8723 35.4343 70.0565 35.4343 80.0127C35.4343 85.6896 35.3912 88.6699 35.308 88.753C35.0066 89.0545 35.2618 109.619 35.571 109.946C35.6321 110.011 35.6824 110.276 35.6824 110.536C35.6824 110.795 35.7382 111.007 35.8064 111.007C35.8747 111.007 35.9305 111.175 35.9305 111.379C35.9305 111.584 35.9863 111.752 36.0546 111.752C36.1228 111.752 36.1786 111.864 36.1786 112.001C36.1786 112.139 36.2345 112.362 36.3027 112.497C36.3709 112.633 36.4826 112.855 36.5508 112.991C36.619 113.126 36.6749 113.321 36.6749 113.425C36.6749 113.528 36.7307 113.612 36.7989 113.612C36.8672 113.612 36.9242 113.71 36.9258 113.83C36.9273 113.949 37.0377 114.186 37.1711 114.357C37.3045 114.527 37.4149 114.737 37.4164 114.822C37.418 114.907 37.4645 114.977 37.52 114.977C37.5755 114.977 37.6977 115.172 37.7914 115.411C37.8851 115.65 38.0073 115.845 38.0628 115.845C38.1183 115.845 38.1636 115.929 38.1636 116.032C38.1636 116.134 38.2194 116.218 38.2876 116.218C38.3559 116.218 38.4117 116.274 38.4117 116.343C38.4117 116.412 38.5792 116.643 38.7839 116.858C38.9886 117.072 39.1567 117.308 39.1576 117.384C39.1598 117.566 41.1798 119.641 41.8854 120.187C42.1924 120.424 42.5175 120.689 42.6077 120.775C42.6977 120.861 42.8149 120.932 42.8676 120.932C42.9207 120.932 43.0928 121.044 43.25 121.18C43.4073 121.317 43.6269 121.428 43.7379 121.428C43.8489 121.428 44.0201 121.54 44.1185 121.676C44.2168 121.813 44.3967 121.924 44.5179 121.924C44.6395 121.924 44.7388 121.98 44.7388 122.048C44.7388 122.117 44.8504 122.173 44.9869 122.173C45.1233 122.173 45.235 122.228 45.235 122.297C45.235 122.365 45.3466 122.421 45.4831 122.421C45.6196 122.421 45.7312 122.476 45.7312 122.545C45.7312 122.613 45.8395 122.669 45.9719 122.669C46.1043 122.669 46.2473 122.725 46.2895 122.793C46.3317 122.861 46.4747 122.917 46.6071 122.917C46.7395 122.917 46.8478 122.973 46.8478 123.041C46.8478 123.109 47.0153 123.165 47.22 123.165C47.4246 123.165 47.5921 123.221 47.5921 123.289C47.5921 123.357 47.7596 123.413 47.9643 123.413C48.169 123.413 48.3365 123.469 48.3365 123.537C48.3365 123.605 48.5551 123.661 48.8225 123.661C49.101 123.661 49.3302 123.727 49.36 123.816C49.4 123.937 50.8078 123.98 55.6973 124.011L61.9831 124.052V93.0895V62.1276L53.2058 62.1431C46.5206 62.1552 44.2217 62.1977 43.5602 62.3223Z" fill="#FCEC54"/>
<path fill-rule="evenodd" clip-rule="evenodd" d="M88.4866 53.9254C88.4389 54.2243 88.4258 54.4951 88.4578 54.527C88.5412 54.6105 88.6916 53.7365 88.6271 53.5433C88.5977 53.4546 88.5344 53.6264 88.4866 53.9254ZM88.2218 55.0562C88.1752 55.2029 88.165 55.3508 88.1991 55.3849C88.2332 55.419 88.2993 55.3269 88.3458 55.1802C88.3923 55.0335 88.4026 54.8856 88.3685 54.8515C88.3343 54.8173 88.2683 54.9095 88.2218 55.0562ZM87.0475 57.5926C86.7609 58.0324 86.4449 58.4601 86.345 58.5432C86.2449 58.626 86.0467 58.8664 85.904 59.0769C85.7238 59.344 85.8054 59.2906 86.1726 58.902C86.6967 58.3478 87.2439 57.6078 87.5255 57.0721C87.8083 56.534 87.5636 56.8004 87.0475 57.5926ZM85.2967 59.5961C84.9605 60.0009 83.1927 61.0973 82.5283 61.3128C82.399 61.3547 82.3277 61.4235 82.3698 61.4654C82.4737 61.5693 84.1349 60.7015 84.7481 60.2233C85.4102 59.7065 85.5957 59.5223 85.525 59.4513C85.4924 59.4187 85.3898 59.4839 85.2967 59.5961ZM81.5846 61.6313C81.338 61.7908 81.6478 61.7908 82.0188 61.6313L82.2669 61.5246L82.0188 61.5178C81.8823 61.5141 81.6869 61.5653 81.5846 61.6313ZM80.53 61.8795L80.2819 61.9861L80.53 61.9824C80.6665 61.9806 80.9177 61.934 81.0883 61.8795L81.3985 61.7802L81.0883 61.7765C80.9177 61.7746 80.6665 61.8208 80.53 61.8795ZM43.126 62.14C42.0116 62.4328 41.6314 62.5714 40.7043 63.0236C38.1527 64.2685 36.2863 66.6037 35.5205 69.5091C35.3685 70.0857 35.1939 88.8104 35.3412 88.7192C35.3924 88.6876 35.4343 84.7775 35.4343 80.0303C35.4343 70.0547 35.4489 69.8726 36.4264 67.6482C37.4251 65.3764 40.1299 63.0444 42.3196 62.5674C42.5243 62.523 42.943 62.425 43.2501 62.3503C43.6139 62.2612 47.0041 62.1871 52.9887 62.1366L62.1692 62.0593L52.8647 62.0426C47.5425 62.033 43.3744 62.0749 43.126 62.14Z" fill="#E0EC74"/>
</svg>
