<svg width="134" height="119" viewBox="0 0 134 119" fill="none" xmlns="http://www.w3.org/2000/svg">
<path d="M69.8848 11.6516C81.3467 1.67728 92.6957 -2.49579 99.6348 1.50608C106.872 5.67882 108.991 18.3552 105.75 34.0901C105.547 35.0676 105.327 36.0416 105.089 37.011C106.527 37.4247 107.955 37.874 109.371 38.3596C123.738 43.3053 133.021 51.0532 133.021 59.0637C133.021 67.4178 123.1 75.5857 107.851 80.6379C107.045 80.9052 106.218 81.1619 105.376 81.4104C105.676 82.6182 105.944 83.8047 106.174 84.966C109.184 100.173 106.866 112.671 99.7314 116.802C92.823 120.801 81.6571 116.873 70.3516 107.145C69.1228 106.085 67.9237 104.99 66.7559 103.863C65.8287 104.76 64.9029 105.616 63.9805 106.422C52.309 116.624 40.3233 120.857 33.1816 116.739C26.2673 112.751 24.0938 101.116 26.876 86.4631C27.18 84.8708 27.5284 83.2869 27.9209 81.7141C26.7129 81.3692 25.5136 80.9947 24.3242 80.5901C9.655 75.5767 0.000171086 67.3078 0 59.0637C0 51.0821 8.99425 43.3866 23.0771 38.4768C24.6513 37.9281 26.2973 37.4119 28.001 36.928C27.636 35.4681 27.3079 33.9992 27.0176 32.5227C24.0994 17.6109 26.1525 5.69318 33.085 1.6799C40.3148 -2.50519 52.3557 1.98936 64.3682 12.6555C65.1153 13.3203 65.8503 13.9986 66.5723 14.6906C67.6505 13.6498 68.7553 12.6367 69.8848 11.6516ZM99.8799 82.8528C94.3702 84.1261 88.2943 85.0587 81.8633 85.6291C78.2075 90.9214 74.462 95.6877 70.7139 99.7873C71.8336 100.865 72.9501 101.883 74.0586 102.837C83.7263 111.157 92.6916 114.311 96.8838 111.884C98.8535 110.744 100.447 107.897 101.239 103.626C102.121 98.8737 101.931 92.7944 100.6 86.0705C100.392 85.021 100.151 83.9476 99.8799 82.8528ZM33.4307 83.1067C33.0661 84.5696 32.7419 86.0428 32.459 87.5237C30.0802 100.054 31.8244 109.396 36.0205 111.816C37.9921 112.952 41.255 112.912 45.3506 111.465C49.9083 109.855 55.0802 106.655 60.2412 102.143C61.1049 101.386 61.95 100.608 62.7754 99.8098C58.8911 95.6412 55.0364 90.8802 51.3564 85.7014C44.9103 85.1786 38.879 84.3117 33.4307 83.1067ZM74.541 86.1145C71.903 86.2322 69.2223 86.2932 66.5107 86.2932C63.8716 86.2932 61.2743 86.2419 58.7275 86.1418C61.3513 89.5992 64.0382 92.8136 66.7314 95.7199C69.3346 92.8536 71.9508 89.6348 74.541 86.1145ZM66.5117 37.7531C62.4114 37.7531 58.3545 37.9101 54.3984 38.2092C52.1193 41.549 49.9684 44.9746 47.9492 48.4778V48.4758C45.9294 51.9782 44.0419 55.5561 42.291 59.2004C44.0463 62.8435 45.9392 66.4188 47.9658 69.9182C50.002 73.4363 52.1705 76.8765 54.4668 80.2307C58.3446 80.4821 62.3716 80.6106 66.5107 80.6106C70.667 80.6106 74.7457 80.4648 78.6924 80.1828C80.9305 76.8209 83.0593 73.3872 85.0742 69.8869C87.1067 66.3668 89.0132 62.7752 90.79 59.1194C88.9948 55.5005 87.0823 51.941 85.0557 48.4465C83.0404 44.9612 80.9025 41.5477 78.6465 38.2131C74.6917 37.9117 70.6301 37.7532 66.5117 37.7531ZM39.2764 65.8821C37.5863 69.891 36.1393 73.8329 34.9648 77.6252C38.759 78.4512 42.8682 79.1096 47.2246 79.5959C45.7784 77.3523 44.3854 75.0748 43.0479 72.7649C41.737 70.5004 40.4793 68.2056 39.2764 65.8821ZM93.8545 65.678C92.621 68.0555 91.3341 70.4055 89.9961 72.7258C88.68 75.0087 87.319 77.2656 85.9131 79.4944C90.3005 78.9681 94.4642 78.2592 98.3213 77.3791C97.131 73.651 95.6323 69.7304 93.8545 65.678ZM29.5264 42.4016C27.9866 42.837 26.4599 43.3173 24.9482 43.842C12.9039 48.0412 5.68262 54.2204 5.68262 59.0637C5.68273 61.3402 7.34847 64.1452 10.6475 66.9709C14.3192 70.1146 19.6758 72.9961 26.1621 75.2131C27.2481 75.5826 28.3435 75.9248 29.4463 76.2405C31.1264 70.7627 33.3406 65.0112 36.0098 59.2014C33.3748 53.477 31.1912 47.8158 29.5264 42.4016ZM103.566 42.4856C101.93 47.7809 99.746 53.3757 97.0928 59.092C99.8726 64.9466 102.145 70.6141 103.829 75.9436C104.59 75.7182 105.336 75.4851 106.062 75.2444C119.229 70.8815 127.339 64.206 127.339 59.0637C127.339 54.2364 119.831 47.9705 107.521 43.7336C106.249 43.295 104.927 42.88 103.566 42.4856ZM85.9287 38.9465C87.3246 41.1346 88.6733 43.3527 89.9736 45.5988C91.295 47.8803 92.5706 50.1883 93.7998 52.5207C95.4823 48.5824 96.9114 44.7406 98.0576 41.0666C94.2393 40.1948 90.1732 39.4822 85.9287 38.9465ZM47.1025 38.9358C42.8857 39.4627 38.8383 40.1576 35.043 41.0071C36.1992 44.7335 37.6157 48.592 39.2705 52.5168C40.4684 50.195 41.7205 47.9013 43.0254 45.6379C44.332 43.3725 45.691 41.1374 47.1025 38.9358ZM96.7969 6.42893C92.6147 4.017 83.436 7.39188 73.6152 15.9387C72.5726 16.8484 71.5528 17.784 70.5566 18.7444C74.3584 22.8405 78.1456 27.5729 81.8008 32.7776C88.0751 33.3663 94.0685 34.3148 99.5869 35.5881C99.8022 34.7104 100.001 33.8285 100.185 32.9436C102.983 19.3581 101.251 8.99814 96.7969 6.42893ZM60.5947 16.9045C50.2233 7.69573 40.3834 4.02217 35.9326 6.59787C31.7546 9.01627 30.0945 18.6542 32.5947 31.4309C32.865 32.8044 33.1697 34.1704 33.5088 35.5285C39.0142 34.2811 45.0029 33.3496 51.2588 32.7697C54.907 27.621 58.7266 22.897 62.5908 18.7473C61.9238 18.1097 61.2576 17.4932 60.5947 16.9045ZM66.5742 22.8078C63.9122 25.68 61.265 28.8462 58.6807 32.2541C63.9184 32.009 69.1648 32.0105 74.4023 32.258C71.8203 28.8182 69.1951 25.6472 66.5742 22.8078Z" fill="#53C1DE"/>
<path d="M66.2398 47.2901C72.8003 47.2901 78.1181 52.6085 78.1181 59.1684C78.1181 65.7289 72.8003 71.0473 66.2398 71.0473C59.6799 71.0473 54.3615 65.7289 54.3615 59.1684C54.3615 52.6085 59.6799 47.2901 66.2398 47.2901Z" fill="#53C1DE"/>
</svg>
