<svg xmlns="http://www.w3.org/2000/svg" viewBox="0 0 256 236.45"><defs><style>.cls-1{fill:#a8b9cc;}.cls-2{fill:#1b75b3;}</style></defs><g id="Layer_2" data-name="Layer 2"><g id="Layer_1-2" data-name="Layer 1"><path class="cls-1" d="M152.13,86.6s-2-18.27-20.1-18.78-27.45,13.71-27.45,34,10.3,36.56,27.94,36.56,19.61-20.31,19.61-20.31l33.82,2s2,18.34-12.16,32.34-31.53,16.27-43.66,16.18-28.95.19-45.21-16.47-19-32.84-19-48.74,3.08-37,22.42-52.93c13.15-10.85,26.47-14.85,39.8-14.85,55.63,0,59.37,51.31,59.37,51.31l-35.35-.35Z"/><path class="cls-2" d="M93.18,0h18.59l0,6.45h-.89c-.29-2.3-1.13-3.87-2.5-4.68A7.59,7.59,0,0,0,104.94,1V17.88a3.34,3.34,0,0,0,.6,2.35,3.73,3.73,0,0,0,2.48.58v.81H97v-.81a3.55,3.55,0,0,0,2.41-.59,3.38,3.38,0,0,0,.59-2.34V1a7.65,7.65,0,0,0-3.47.74c-1.47.83-2.31,2.4-2.5,4.68h-.89l0-6.45Z"/><path class="cls-2" d="M115.68,20.81a4.27,4.27,0,0,0,1.75-.36,2,2,0,0,0,.86-1.89V3.06a2,2,0,0,0-.77-1.83,5.37,5.37,0,0,0-1.84-.42V0h10.45V.81a4.89,4.89,0,0,0-1.89.37,2,2,0,0,0-.87,1.88V9.7h7.36V3.06a2,2,0,0,0-.83-1.86A4.81,4.81,0,0,0,128,.81V0h10.51V.81a4.85,4.85,0,0,0-1.85.4,2,2,0,0,0-.83,1.85v15.5a2,2,0,0,0,.92,1.9,4.1,4.1,0,0,0,1.76.34v.82H128V20.8a4.26,4.26,0,0,0,1.89-.37,2,2,0,0,0,.86-1.87V11.19h-7.36v7.37a2,2,0,0,0,.93,1.92,4.79,4.79,0,0,0,1.83.32v.82H115.68v-.81Z"/><path class="cls-2" d="M141.8,21.62v-.81a4.19,4.19,0,0,0,1.88-.38,2,2,0,0,0,.86-1.87V3.07a1.92,1.92,0,0,0-.89-1.88A4.51,4.51,0,0,0,141.8.82V0h17.79V6.46h-.75c-.4-2.07-1.06-3.48-2-4.24s-2.65-1.14-5.13-1.14a3.3,3.3,0,0,0-1.81.31,1.5,1.5,0,0,0-.38,1.21V10q2.64,0,3.57-1a7.71,7.71,0,0,0,1.43-3.74h.79V16.08h-.79a7,7,0,0,0-1.34-3.85c-.68-.75-1.9-1.12-3.66-1.12v7.74a1.65,1.65,0,0,0,.5,1.39,4,4,0,0,0,2.08.37,8.85,8.85,0,0,0,4.82-1.19A9.77,9.77,0,0,0,160.24,15h.86l-1.25,6.65Z"/><path class="cls-2" d="M0,203a3.1,3.1,0,0,0,2-.66,3.43,3.43,0,0,0,.52-2.26V185.94c0-1.2-.17-2-.53-2.27A3.74,3.74,0,0,0,0,183v-.81H9.94a11.17,11.17,0,0,1,6,1.32c1.38.89,2.06,2.41,2.06,4.57a5.87,5.87,0,0,1-.8,3,5.66,5.66,0,0,1-2.67,2.22,9,9,0,0,1-2.8.72c-.93.09-2.32.13-4.16.13v6a3.29,3.29,0,0,0,.57,2.31,3.32,3.32,0,0,0,2.14.61v.81H0V203Zm11.25-10.65c1-.65,1.46-2,1.46-4.17a7.61,7.61,0,0,0-.71-3.53,2.79,2.79,0,0,0-2.71-1.34,2.68,2.68,0,0,0-1.32.23.91.91,0,0,0-.4.88V193a7.62,7.62,0,0,0,3.68-.66Z"/><path class="cls-2" d="M19.54,203a3.4,3.4,0,0,0,2.14-.61,3.2,3.2,0,0,0,.58-2.31V185.94a3.15,3.15,0,0,0-.68-2.41,4.26,4.26,0,0,0-2-.51v-.81h9.94a15.43,15.43,0,0,1,5,.67c2.47.9,3.7,2.54,3.7,4.89a4.89,4.89,0,0,1-1.94,4.11,7.36,7.36,0,0,1-3.14,1.43l6.56,9.11a1.29,1.29,0,0,0,.54.49,2.27,2.27,0,0,0,.71.15v.76H34.48l-7.21-10h0v6.26a3.46,3.46,0,0,0,.54,2.27A3.16,3.16,0,0,0,30,203v.81H19.54V203ZM31.6,191.92c.86-.56,1.3-1.85,1.3-3.87a7.17,7.17,0,0,0-.5-2.94,3.14,3.14,0,0,0-3.13-1.82,2.74,2.74,0,0,0-1.63.32,1.3,1.3,0,0,0-.38,1v8.14a8.74,8.74,0,0,0,4.34-.88Z"/><path class="cls-2" d="M61.76,184.85a12.28,12.28,0,0,1,0,16.49A10.51,10.51,0,0,1,54,204.46,10.42,10.42,0,0,1,45.93,201,11.16,11.16,0,0,1,43,193.27a11.56,11.56,0,0,1,3-8.26A10.36,10.36,0,0,1,54,181.73a10.44,10.44,0,0,1,7.76,3.12Zm-3,14.27a21.63,21.63,0,0,0,.69-6c0-3.4-.48-6-1.47-7.69a4.46,4.46,0,0,0-4-2.6q-3.51,0-4.8,4.33a21.28,21.28,0,0,0-.68,6,21.53,21.53,0,0,0,.69,6c.86,2.85,2.45,4.27,4.79,4.27S57.9,202,58.76,199.12Z"/><path class="cls-2" d="M70.83,185.16a10.16,10.16,0,0,1,7.85-3.36,10.54,10.54,0,0,1,3.82.74,9.53,9.53,0,0,0,2.36.74,1,1,0,0,0,.8-.36,2.77,2.77,0,0,0,.5-1.09H87v7.48h-.79A17.74,17.74,0,0,0,84,185.47,6.33,6.33,0,0,0,79,182.88a4.57,4.57,0,0,0-4.36,2.69,17,17,0,0,0-1.37,7.55,18.82,18.82,0,0,0,1.28,7.14,4.84,4.84,0,0,0,4.92,3.13,3.25,3.25,0,0,0,2.65-.86,2.24,2.24,0,0,0,.4-1.47v-3.37a2,2,0,0,0-.86-1.91,6.07,6.07,0,0,0-2.26-.31v-.81H90v.81a3,3,0,0,0-2.12.66,3.63,3.63,0,0,0-.52,2.26v4.08a13.7,13.7,0,0,1-3.32,1.31,18.8,18.8,0,0,1-5.12.66,10.6,10.6,0,0,1-8.22-3.36,11.25,11.25,0,0,1-2.86-7.87,11.53,11.53,0,0,1,3-8.05Z"/><path class="cls-2" d="M91.92,203a3.4,3.4,0,0,0,2.14-.61,3.25,3.25,0,0,0,.58-2.31V185.94a3.15,3.15,0,0,0-.68-2.41,4.26,4.26,0,0,0-2-.51v-.81h9.94a15.33,15.33,0,0,1,5,.67c2.48.9,3.71,2.54,3.71,4.89a4.89,4.89,0,0,1-1.94,4.11,7.36,7.36,0,0,1-3.14,1.43l6.56,9.11a1.29,1.29,0,0,0,.54.49,2.27,2.27,0,0,0,.71.15v.76h-6.44l-7.21-10h0v6.26a3.46,3.46,0,0,0,.54,2.27,3.15,3.15,0,0,0,2.17.65v.81H91.92V203ZM104,191.92c.86-.56,1.3-1.85,1.3-3.87a7.17,7.17,0,0,0-.5-2.94,3.14,3.14,0,0,0-3.13-1.82,2.74,2.74,0,0,0-1.63.32,1.3,1.3,0,0,0-.38,1v8.14a8.74,8.74,0,0,0,4.34-.88Z"/><path class="cls-2" d="M115,203a2.28,2.28,0,0,0,1.79-1,14.58,14.58,0,0,0,1.25-2.68l6.86-17.51h.86l6.89,16.8a23.67,23.67,0,0,0,1.74,3.65A1.79,1.79,0,0,0,136,203v.81H126V203a7.08,7.08,0,0,0,2-.26c.31-.14.47-.48.47-1a4.26,4.26,0,0,0-.24-1.14c-.1-.3-.24-.66-.41-1.09l-.78-1.93h-6.94c-.45,1.27-.74,2.09-.87,2.48a6.63,6.63,0,0,0-.41,1.8c0,.45.3.79.89,1a5.48,5.48,0,0,0,1.58.19v.81H115V203Zm11.59-6.73-3-7.4h-.26l-2.79,7.4Z"/><path class="cls-2" d="M137.8,203a3,3,0,0,0,2.29-.65,2.84,2.84,0,0,0,.53-1.89v-15.2a2,2,0,0,0-.6-1.71,4.6,4.6,0,0,0-2.14-.54v-.81h7.78l6.07,14.8H152l6-14.8h7.79V183a3.93,3.93,0,0,0-2.14.6c-.39.31-.58,1.09-.58,2.32v14.15a3.23,3.23,0,0,0,.58,2.31,3.28,3.28,0,0,0,2.14.61v.81H155.56V203a4.33,4.33,0,0,0,2.07-.47q.69-.43.69-1.89V185h-.22l-7.57,18.8h-.83l-7.64-18.43h-.14v14.47a3.82,3.82,0,0,0,.57,2.33A3.34,3.34,0,0,0,145,203v.81h-7.22V203Z"/><path class="cls-2" d="M167.63,203a3,3,0,0,0,2.29-.65,2.9,2.9,0,0,0,.53-1.89v-15.2a1.93,1.93,0,0,0-.61-1.71,4.57,4.57,0,0,0-2.14-.54v-.81h7.78l6.08,14.8h.25l6.05-14.8h7.78V183a4,4,0,0,0-2.14.6c-.38.31-.57,1.09-.57,2.32v14.15a2.29,2.29,0,0,0,2.71,2.92v.81H185.39V203a4.31,4.31,0,0,0,2.06-.47c.47-.29.7-.92.7-1.89V185h-.23l-7.56,18.8h-.83l-7.65-18.43h-.14v14.47a3.81,3.81,0,0,0,.58,2.33,3.3,3.3,0,0,0,2.53.82v.81h-7.22V203Z"/><path class="cls-2" d="M197.53,203a4.54,4.54,0,0,0,1.88-.33,2,2,0,0,0,.94-1.92V185.27a2,2,0,0,0-.89-1.89,4.84,4.84,0,0,0-1.93-.36v-.81h10.79V183a5.53,5.53,0,0,0-2,.34,2,2,0,0,0-.9,1.91v15.49a2,2,0,0,0,.72,1.8,4.18,4.18,0,0,0,2.17.45v.82H197.53V203Z"/><path class="cls-2" d="M210.22,203a2.92,2.92,0,0,0,2.22-.68,3,3,0,0,0,.5-1.86V185.32c-.95-1.1-1.53-1.74-1.75-1.93a1.69,1.69,0,0,0-.91-.37v-.81h6.55l10.61,13.36h.15v-9.39a3.67,3.67,0,0,0-.56-2.32,3.27,3.27,0,0,0-2.29-.84v-.81h6.64V183a4.36,4.36,0,0,0-1.94.67,2.55,2.55,0,0,0-.49,1.88v18.85h-.86l-13.58-17.11h-.21v12.54a4.09,4.09,0,0,0,.39,2.09,2.9,2.9,0,0,0,2.53,1.07v.81h-7V203Z"/><path class="cls-2" d="M236.81,185.16a10.16,10.16,0,0,1,7.85-3.36,10.54,10.54,0,0,1,3.82.74,9.53,9.53,0,0,0,2.36.74,1,1,0,0,0,.8-.36,2.77,2.77,0,0,0,.5-1.09H253v7.48h-.78a18.15,18.15,0,0,0-2.28-3.84,6.33,6.33,0,0,0-4.92-2.59,4.55,4.55,0,0,0-4.35,2.69,16.81,16.81,0,0,0-1.38,7.55,18.82,18.82,0,0,0,1.28,7.14,4.84,4.84,0,0,0,4.92,3.13,3.29,3.29,0,0,0,2.66-.86,2.31,2.31,0,0,0,.39-1.47v-3.37a2,2,0,0,0-.86-1.91,6.07,6.07,0,0,0-2.26-.31v-.81H256v.81a3,3,0,0,0-2.12.66,3.63,3.63,0,0,0-.52,2.26v4.08a13.76,13.76,0,0,1-3.31,1.31,18.93,18.93,0,0,1-5.13.66,10.6,10.6,0,0,1-8.22-3.36,11.25,11.25,0,0,1-2.86-7.87,11.53,11.53,0,0,1,3-8.05Z"/><path class="cls-2" d="M36.43,235a4.27,4.27,0,0,0,1.81-.35,2,2,0,0,0,.92-1.9V217.26a1.94,1.94,0,0,0-.88-1.88,4.51,4.51,0,0,0-1.85-.37v-.81h10.8V215a4.7,4.7,0,0,0-2.51.54c-.42.32-.63,1.11-.63,2.38V233a1.58,1.58,0,0,0,.53,1.41,4.29,4.29,0,0,0,2.09.35,8.24,8.24,0,0,0,4.69-1.28c1.25-.84,2.34-2.5,3.26-5h.9l-1.25,7.24H36.43V235Z"/><path class="cls-2" d="M57.89,235a2.29,2.29,0,0,0,1.8-1.05,14.45,14.45,0,0,0,1.25-2.69l6.86-17.5h.86l6.89,16.8a23,23,0,0,0,1.73,3.65,1.82,1.82,0,0,0,1.63.79v.81h-10V235a6.61,6.61,0,0,0,2-.27c.31-.13.47-.47.47-1a4.26,4.26,0,0,0-.24-1.14c-.1-.3-.24-.67-.41-1.09l-.78-1.94H63c-.45,1.27-.74,2.1-.87,2.48a6.78,6.78,0,0,0-.41,1.8c0,.46.3.79.89,1a5.89,5.89,0,0,0,1.59.19v.81H57.89V235Zm11.59-6.73-3-7.4h-.26l-2.78,7.4Z"/><path class="cls-2" d="M81,235a2.91,2.91,0,0,0,2.21-.68,3,3,0,0,0,.5-1.87V217.3c-.95-1.09-1.53-1.73-1.75-1.93a1.68,1.68,0,0,0-.9-.36v-.81H87.6l10.61,13.36h.16v-9.4a3.71,3.71,0,0,0-.57-2.32,3.26,3.26,0,0,0-2.28-.83v-.81h6.63V215a4.18,4.18,0,0,0-1.93.67c-.33.27-.49.9-.49,1.87V236.4h-.86L85.28,219.3h-.21v12.54a4.09,4.09,0,0,0,.39,2.09A2.92,2.92,0,0,0,88,235v.82H81V235Z"/><path class="cls-2" d="M107.77,217.14a10.18,10.18,0,0,1,7.85-3.35,10.54,10.54,0,0,1,3.82.74,10,10,0,0,0,2.36.74,1,1,0,0,0,.8-.36,2.84,2.84,0,0,0,.5-1.09H124v7.48h-.79a17.27,17.27,0,0,0-2.27-3.84,6.34,6.34,0,0,0-4.92-2.6,4.59,4.59,0,0,0-4.36,2.69,17,17,0,0,0-1.37,7.56,18.77,18.77,0,0,0,1.28,7.13,4.83,4.83,0,0,0,4.92,3.13,3.22,3.22,0,0,0,2.65-.86,2.23,2.23,0,0,0,.4-1.46v-3.38a1.94,1.94,0,0,0-.86-1.9,6.23,6.23,0,0,0-2.26-.32v-.81H127v.81a3,3,0,0,0-2.12.67,3.59,3.59,0,0,0-.52,2.25v4.08a13.3,13.3,0,0,1-3.32,1.31,18.42,18.42,0,0,1-5.12.66,10.6,10.6,0,0,1-8.22-3.36,11.23,11.23,0,0,1-2.86-7.87,11.48,11.48,0,0,1,3-8.05Z"/><path class="cls-2" d="M139.48,214.19V215a4.22,4.22,0,0,0-2.4.58c-.4.34-.6,1.12-.6,2.35v10.71a10,10,0,0,0,.56,3.78,3.81,3.81,0,0,0,3.87,2.47c2.37,0,4-.91,4.81-2.74a10.3,10.3,0,0,0,.69-4.2v-9.79a3.46,3.46,0,0,0-.61-2.37,3.73,3.73,0,0,0-2.38-.79v-.81h6.78V215a4.33,4.33,0,0,0-1.95.73,2.79,2.79,0,0,0-.48,2v10.23a9.38,9.38,0,0,1-1.9,6.29q-1.89,2.22-6,2.22c-3.55,0-6-1.1-7.28-3.3a8.69,8.69,0,0,1-1-4.52v-10.7a3.62,3.62,0,0,0-.46-2.27,3.79,3.79,0,0,0-2.07-.66v-.81Z"/><path class="cls-2" d="M152.27,235a2.28,2.28,0,0,0,1.79-1.05,14.26,14.26,0,0,0,1.26-2.69l6.86-17.5H163l6.89,16.8a23,23,0,0,0,1.73,3.65,1.82,1.82,0,0,0,1.63.79v.81h-10V235a6.61,6.61,0,0,0,2-.27c.31-.13.47-.47.47-1a4.26,4.26,0,0,0-.24-1.14c-.1-.3-.24-.67-.41-1.09l-.78-1.94h-6.94c-.45,1.27-.74,2.1-.87,2.48a6.78,6.78,0,0,0-.41,1.8c0,.46.3.79.89,1a5.86,5.86,0,0,0,1.58.19v.81h-6.3V235Zm11.59-6.73-3-7.4h-.26l-2.79,7.4Z"/><path class="cls-2" d="M179,217.14a10.2,10.2,0,0,1,7.85-3.35,10.54,10.54,0,0,1,3.82.74,10,10,0,0,0,2.37.74,1,1,0,0,0,.79-.36,2.7,2.7,0,0,0,.5-1.09h.86v7.48h-.78a16.88,16.88,0,0,0-2.28-3.84,6.33,6.33,0,0,0-4.92-2.6,4.56,4.56,0,0,0-4.35,2.69,16.85,16.85,0,0,0-1.37,7.56,18.77,18.77,0,0,0,1.27,7.13,4.83,4.83,0,0,0,4.92,3.13,3.26,3.26,0,0,0,2.66-.86,2.29,2.29,0,0,0,.39-1.46v-3.38a1.94,1.94,0,0,0-.86-1.9,6.23,6.23,0,0,0-2.26-.32v-.81h10.58v.81a3,3,0,0,0-2.12.67,3.59,3.59,0,0,0-.52,2.25v4.08a13.36,13.36,0,0,1-3.31,1.31,18.54,18.54,0,0,1-5.13.66,10.6,10.6,0,0,1-8.22-3.36,11.23,11.23,0,0,1-2.86-7.87,11.53,11.53,0,0,1,3-8.05Z"/><path class="cls-2" d="M200.26,235.81V235a4.33,4.33,0,0,0,1.88-.38,2,2,0,0,0,.86-1.87v-15.5a1.91,1.91,0,0,0-.89-1.87,4.51,4.51,0,0,0-1.85-.37v-.81h17.79v6.44h-.75c-.4-2.06-1.06-3.47-2-4.23s-2.65-1.14-5.13-1.14a3.3,3.3,0,0,0-1.81.31,1.5,1.5,0,0,0-.38,1.21v7.4q2.64,0,3.57-1a7.71,7.71,0,0,0,1.43-3.74h.79v10.81H213a7,7,0,0,0-1.34-3.85c-.68-.75-1.9-1.12-3.66-1.12v7.75a1.61,1.61,0,0,0,.51,1.38,3.91,3.91,0,0,0,2.07.37,8.85,8.85,0,0,0,4.82-1.19,9.71,9.71,0,0,0,3.32-4.45h.86l-1.25,6.65Z"/></g></g></svg>