<svg xmlns="http://www.w3.org/2000/svg" viewBox="0 0 175.7 248"><defs><style>.cls-1{fill:#264de4;}.cls-2{fill:#2965f1;}.cls-3{fill:#ebebeb;}.cls-4{fill:#fff;}</style></defs><g id="Layer_2" data-name="Layer 2"><g id="Layer_1-2" data-name="Layer 1"><polygon class="cls-1" points="175.7 48.74 159.69 228.05 87.74 248 15.99 228.08 0 48.74 175.7 48.74"/><polygon class="cls-2" points="145.99 216.64 159.67 63.4 87.85 63.4 87.85 232.75 145.99 216.64"/><polygon class="cls-3" points="36.66 129.92 38.63 151.91 87.85 151.91 87.85 129.92 36.66 129.92"/><polygon class="cls-3" points="87.85 85.39 87.77 85.39 32.69 85.39 34.69 107.4 87.85 107.4 87.85 85.39"/><polygon class="cls-3" points="87.85 209.93 87.85 187.04 87.75 187.07 63.26 180.45 61.69 162.91 49.79 162.91 39.61 162.91 42.69 197.45 87.75 209.96 87.85 209.93"/><path d="M41.35,0H68V11.14H52.49V22.28H68V33.42H41.35Z"/><path d="M73.32,0H100V9.69H84.46v1.94H100V33.91H73.32V23.73h15.5V21.8H73.32Z"/><path d="M105.29,0h26.64V9.69h-15.5v1.94h15.5V33.91H105.29V23.73h15.5V21.8h-15.5Z"/><polygon class="cls-4" points="114.86 151.91 112.31 180.44 87.77 187.06 87.77 209.95 132.87 197.45 133.2 193.73 138.37 135.82 138.9 129.92 142.88 85.39 87.77 85.39 87.77 107.4 118.77 107.4 116.77 129.92 87.77 129.92 87.77 151.91 114.86 151.91"/></g></g></svg>