<svg xmlns="http://www.w3.org/2000/svg" viewBox="0 0 228.71 98"><defs><style>.cls-1{fill:#092e20;}.cls-2{fill:#fff;}</style></defs><g id="Layer_2" data-name="Layer 2"><g id="Layer_1-2" data-name="Layer 1"><path class="cls-1" d="M228.71,85.3A12.7,12.7,0,0,1,216,98H12.7A12.71,12.71,0,0,1,0,85.3V12.7A12.71,12.71,0,0,1,12.7,0H216a12.7,12.7,0,0,1,12.7,12.7Z"/><path class="cls-2" d="M39.45,15.39H50.28V65.53A71.84,71.84,0,0,1,36.21,67C23,67,16.1,61,16.1,49.56c0-11,7.31-18.22,18.64-18.22a17.42,17.42,0,0,1,4.71.57V15.39Zm0,25.24a10.58,10.58,0,0,0-3.66-.57c-5.48,0-8.65,3.38-8.65,9.29,0,5.76,3,8.93,8.58,8.93A25.35,25.35,0,0,0,39.45,58Z"/><path class="cls-2" d="M67.51,32.12v25.1c0,8.65-.63,12.8-2.53,16.39s-4.08,5.63-8.87,8l-10-4.78c4.78-2.25,7.1-4.22,8.58-7.25s2-6.68,2-16.1V32.12ZM56.68,15.45H67.51V26.56H56.68Z"/><path class="cls-2" d="M74.05,34.58A32.6,32.6,0,0,1,88.4,31.34c5.56,0,9.21,1.48,10.83,4.36.91,1.62,1.2,3.73,1.2,8.23v22A118.24,118.24,0,0,1,85,67.14c-9.07,0-13.15-3.16-13.15-10.2,0-7.59,5.42-11.11,18.71-12.24V42.31c0-2-1-2.67-3.73-2.67A28.37,28.37,0,0,0,74.05,43V34.58ZM91,51.81c-7.17.7-9.49,1.83-9.49,4.64,0,2.11,1.33,3.1,4.29,3.1a30.15,30.15,0,0,0,5.2-.5V51.81Z"/><path class="cls-2" d="M105.7,33.8a65.31,65.31,0,0,1,17-2.46c5.56,0,9.57,1.27,12,3.73s2.95,4.85,2.95,10.27V66.58H126.8V45.76c0-4.15-1.4-5.7-5.27-5.7a16.15,16.15,0,0,0-5,.78V66.58H105.7V33.8Z"/><path class="cls-2" d="M141.84,72.49a24.78,24.78,0,0,0,11.61,2.88c7.1,0,10.12-2.88,10.12-9.78v-.21a14.75,14.75,0,0,1-7,1.48c-9.49,0-15.54-6.26-15.54-16.18,0-12.31,8.93-19.27,24.75-19.27A68,68,0,0,1,179.89,33l-3.71,7.81c-2.88-.56-.23-.07-2.41-.28v1.12l.14,4.57.07,5.91c.07,1.48.07,2.95.14,4.43v2.95c0,9.29-.77,13.65-3.09,17.23-3.38,5.28-9.22,7.88-17.51,7.88a31,31,0,0,1-11.68-2.11v-10Zm21.52-32.36h-1.12A11.8,11.8,0,0,0,156,41.68c-2.6,1.48-3.94,4.15-3.94,8,0,5.41,2.67,8.51,7.45,8.51a13.15,13.15,0,0,0,4.08-.71V53.71c0-1.27-.07-2.68-.07-4.15l-.07-5L163.36,41v-.85Z"/><path class="cls-2" d="M196.7,31.2c10.83,0,17.45,6.82,17.45,17.87,0,11.32-6.9,18.42-17.87,18.42s-17.51-6.82-17.51-17.79c0-11.4,6.89-18.5,17.93-18.5Zm-.21,27.57c4.15,0,6.61-3.45,6.61-9.42s-2.39-9.43-6.54-9.43-6.75,3.45-6.75,9.43,2.46,9.42,6.68,9.42Z"/></g></g></svg>