<svg width="65" height="100" viewBox="0 0 65 100" fill="none" xmlns="http://www.w3.org/2000/svg">
<path d="M32.5 50C32.5 40.7928 39.7786 33.3357 48.75 33.3357C57.7286 33.3357 65 40.7857 65 50C65 59.2071 57.7286 66.6643 48.75 66.6643C39.7857 66.6643 32.5 59.2143 32.5 50Z" fill="#1ABCFE"/>
<path d="M0 83.3357C0 74.1286 7.27857 66.6643 16.25 66.6643H32.5V83.3357C32.5 92.5357 25.2214 100 16.25 100C7.27857 100 0 92.5357 0 83.3357Z" fill="#0ACF83"/>
<path d="M32.5 0V33.3357H48.75C57.7286 33.3357 65 25.8714 65 16.6643C65 7.46428 57.7286 0 48.75 0H32.5Z" fill="#FF7262"/>
<path d="M0 16.6643C0 25.8714 7.27857 33.3357 16.25 33.3357H32.5V0H16.25C7.27857 0 0 7.46428 0 16.6643Z" fill="#F24E1E"/>
<path d="M0 50C0 59.2071 7.27857 66.6643 16.25 66.6643H32.5V33.3357H16.25C7.27857 33.3357 0 40.7857 0 50Z" fill="#A259FF"/>
</svg>
