<svg xmlns="http://www.w3.org/2000/svg" viewBox="0 0 163.58 245.36"><defs><style>.cls-1{fill:#0acf83;}.cls-2{fill:#a259ff;}.cls-3{fill:#f24e1e;}.cls-4{fill:#ff7262;}.cls-5{fill:#1abcfe;}</style></defs><g id="Layer_2" data-name="Layer 2"><g id="Layer_1-2" data-name="Layer 1"><path class="cls-1" d="M40.89,245.36a40.91,40.91,0,0,0,40.9-40.89V163.58H40.89a40.89,40.89,0,0,0,0,81.78Z"/><path class="cls-2" d="M0,122.68A40.91,40.91,0,0,1,40.89,81.79h40.9v81.79H40.89A40.92,40.92,0,0,1,0,122.68Z"/><path class="cls-3" d="M0,40.89A40.91,40.91,0,0,1,40.89,0h40.9V81.79H40.89A40.91,40.91,0,0,1,0,40.89Z"/><path class="cls-4" d="M81.79,0h40.89a40.9,40.9,0,1,1,0,81.79H81.79Z"/><path class="cls-5" d="M163.58,122.68a40.9,40.9,0,1,1-40.9-40.89A40.92,40.92,0,0,1,163.58,122.68Z"/></g></g></svg>