<svg xmlns="http://www.w3.org/2000/svg" viewBox="0 0 172 242.78"><defs><style>.cls-1{fill:#e44d26;}.cls-2{fill:#f16529;}.cls-3{fill:#ebebeb;}.cls-4{fill:#fff;}</style></defs><g id="Layer_2" data-name="Layer 2"><g id="Layer_1-2" data-name="Layer 1"><path d="M130,0h10.94V21.92H156.3V32.74H130Z"/><path class="cls-1" d="M15.65,223.28,0,47.71H172L156.33,223.25,85.89,242.78Z"/><path class="cls-2" d="M86,227.85l56.92-15.78,13.39-150H86V227.85Z"/><path class="cls-3" d="M86,127.18H57.51l-2-22.05H86V83.6H32l.51,5.78,5.29,59.34H86V127.18Z"/><path class="cls-3" d="M86,183.1l-.09,0-24-6.48-1.54-17.17H38.78l3,33.81L85.9,205.53l.1,0V183.1Z"/><path d="M16,0H27V10.81H37V0H47.9V32.74H37v-11H27v11H16V0Z"/><path d="M62.29,10.86H52.65V0H82.87V10.86H73.23V32.74H62.29V10.86Z"/><path d="M87.66,0H99.07l7,11.5,7-11.5h11.41V32.74h-10.9V16.51l-7.53,11.64h-.18L98.37,16.51V32.74H87.66Z"/><path class="cls-4" d="M85.93,127.18v21.54h26.51l-2.5,27.92-24,6.48v22.41l44.14-12.24.32-3.64L135.45,133l.53-5.79h-50Z"/><path class="cls-4" d="M85.93,83.6v21.53h52l.43-4.84,1-10.92.52-5.77Z"/></g></g></svg>