<svg width="79" height="100" viewBox="0 0 79 100" fill="none" xmlns="http://www.w3.org/2000/svg">
<path d="M45.6406 0C51.1406 12.7266 25.9063 20.5859 23.5703 31.1953C21.4141 40.9297 38.5469 52.25 38.5547 52.25C35.9531 48.2188 34.0703 44.8906 31.4609 38.6172C27.0469 28.0078 58.3281 18.4141 45.6406 0ZM62.3672 17.6328C62.3672 17.6328 40.2734 19.0313 39.1484 33.1719C38.6484 39.4688 44.9531 42.8281 45.1406 47.4141C45.2813 51.1484 41.3672 54.2656 41.3672 54.2656C41.3672 54.2656 48.4688 52.9297 50.6953 47.2188C53.1563 40.8828 45.9219 36.5547 46.6484 31.4844C47.3516 26.6328 62.3672 17.6328 62.3672 17.6328ZM67.7266 50.2969C65.4141 50.1953 62.8438 50.9609 60.5156 52.6328C65.0781 51.6563 68.9375 54.4453 68.9375 57.6641C68.9375 64.9141 58.4609 71.7656 58.4609 71.7656C58.4609 71.7656 74.6797 69.9141 74.6797 58.0078C74.6797 53.0859 71.5703 50.4766 67.7266 50.2969ZM27.6328 50.3125C27.6328 50.3125 7.39062 50.0391 7.39062 55.7656C7.39062 61.75 33.8984 62.1719 52.8281 58.4844C52.8281 58.4844 57.8828 55.0234 59.2266 53.7344C46.8203 56.2656 18.5078 56.6016 18.5078 54.4141C18.5078 52.3906 27.6328 50.3125 27.6328 50.3125ZM22.7422 61.4531C19.6406 61.4531 15.0078 63.8516 15.0078 66.1641C15.0078 70.8125 38.3906 74.3984 55.7031 67.6016L49.7109 63.9297C37.9766 67.6875 16.3438 66.4844 22.7422 61.4531ZM25.625 71.8516C21.3672 71.8516 18.6094 74.4766 18.6094 76.4141C18.6094 82.3828 44.0234 82.9844 54.0938 76.9141L47.6953 72.8438C40.1719 76.0234 21.2812 76.4531 25.625 71.8516ZM11.4453 77.2578C4.50781 77.1172 6.44442e-07 80.2344 6.44442e-07 82.8203C-0.00781336 96.5703 71.0469 95.9063 71.0469 81.8516C71.0469 79.5234 68.2969 78.4141 67.3047 77.8828C73.1094 91.3203 9.20312 90.2813 9.20312 82.3516C9.20312 80.5469 13.8906 78.7734 18.25 79.625L14.5547 77.5234C13.4688 77.3594 12.4297 77.2734 11.4453 77.2578ZM78.5391 86.5078C67.7344 96.7422 40.3594 100.477 12.8281 94.1562C40.3516 105.414 78.3984 99.0781 78.5391 86.5078Z" fill="#F7AE12"/>
</svg>
