<svg id="svg" version="1.1" xmlns="http://www.w3.org/2000/svg" xmlns:xlink="http://www.w3.org/1999/xlink" width="400" height="400" viewBox="0, 0, 400,400"><g id="svgg"><path id="path0" d="M313.490 209.843 C 313.325 210.008,311.798 210.279,310.095 210.444 C 308.393 210.610,306.100 210.948,305.000 211.195 C 303.900 211.442,302.415 211.744,301.700 211.866 C 300.985 211.988,300.400 212.248,300.400 212.444 C 300.400 212.640,299.871 212.800,299.224 212.800 C 298.577 212.800,297.936 212.980,297.800 213.200 C 297.664 213.420,297.195 213.600,296.757 213.600 C 296.319 213.600,295.216 213.960,294.306 214.400 C 293.395 214.840,292.324 215.200,291.925 215.200 C 291.526 215.200,291.200 215.380,291.200 215.600 C 291.200 215.820,290.840 216.000,290.400 216.000 C 289.960 216.000,289.600 216.180,289.600 216.400 C 289.600 216.620,289.240 216.800,288.800 216.800 C 288.360 216.800,288.000 216.980,288.000 217.200 C 288.000 217.420,287.640 217.600,287.200 217.600 C 286.756 217.600,286.400 217.867,286.400 218.200 C 286.400 218.530,286.220 218.800,286.000 218.800 C 285.780 218.800,285.600 219.790,285.600 221.000 C 285.600 222.210,285.780 223.200,286.000 223.200 C 286.220 223.200,286.400 223.462,286.400 223.781 C 286.400 224.644,288.932 225.195,292.900 225.198 C 294.965 225.199,296.400 225.364,296.400 225.600 C 296.400 225.820,297.289 226.000,298.376 226.000 C 299.463 226.000,300.464 226.180,300.600 226.400 C 300.736 226.620,301.647 226.800,302.624 226.800 C 303.601 226.800,304.400 226.980,304.400 227.200 C 304.400 227.420,304.940 227.600,305.600 227.600 C 306.260 227.600,306.800 227.780,306.800 228.000 C 306.800 228.220,307.250 228.400,307.800 228.400 C 308.350 228.400,308.800 228.580,308.800 228.800 C 308.800 229.020,309.034 229.200,309.320 229.200 C 310.056 229.200,311.993 230.141,311.997 230.500 C 311.999 230.665,312.360 230.800,312.800 230.800 C 313.240 230.800,313.600 230.980,313.600 231.200 C 313.600 231.420,313.881 231.600,314.224 231.600 C 314.567 231.600,314.736 231.780,314.600 232.000 C 314.464 232.220,314.637 232.400,314.985 232.400 C 315.794 232.400,320.000 236.586,320.000 237.391 C 320.000 237.726,320.180 238.000,320.400 238.000 C 320.620 238.000,320.800 238.345,320.800 238.767 C 320.800 239.188,320.964 239.593,321.164 239.667 C 321.365 239.740,321.582 240.520,321.646 241.400 C 321.711 242.280,321.952 243.339,322.182 243.752 C 322.489 244.304,322.467 244.553,322.100 244.686 C 321.816 244.788,321.600 245.543,321.600 246.433 C 321.600 247.295,321.420 248.000,321.200 248.000 C 320.980 248.000,320.800 248.360,320.800 248.800 C 320.800 249.240,320.620 249.600,320.400 249.600 C 320.180 249.600,320.000 249.834,320.000 250.120 C 320.000 250.856,319.059 252.793,318.700 252.797 C 318.535 252.799,318.400 253.068,318.400 253.395 C 318.400 253.943,317.770 254.878,316.500 256.216 C 316.225 256.506,316.000 256.896,316.000 257.083 C 316.000 257.270,315.640 257.683,315.200 258.000 C 314.760 258.317,314.400 258.722,314.400 258.899 C 314.400 259.241,312.898 261.000,310.100 263.933 C 309.165 264.914,308.400 265.795,308.400 265.891 C 308.400 265.988,307.770 266.679,307.000 267.426 C 306.230 268.174,305.600 268.705,305.600 268.607 C 305.600 268.509,305.183 268.827,304.674 269.314 C 304.165 269.801,303.816 270.335,303.898 270.500 C 303.980 270.665,303.845 270.800,303.598 270.800 C 303.350 270.800,302.305 271.655,301.274 272.700 C 300.243 273.745,298.410 275.342,297.200 276.248 C 295.166 277.773,294.024 278.720,291.714 280.802 C 291.227 281.241,290.687 281.600,290.514 281.601 C 290.341 281.601,289.570 282.141,288.800 282.800 C 288.030 283.459,287.263 283.999,287.096 283.999 C 286.929 284.000,286.228 284.540,285.537 285.200 C 284.846 285.860,284.078 286.400,283.829 286.400 C 283.580 286.400,283.117 286.760,282.800 287.200 C 282.483 287.640,281.993 288.000,281.712 288.000 C 281.430 288.000,281.200 288.180,281.200 288.400 C 281.200 288.620,280.930 288.800,280.600 288.800 C 280.246 288.800,279.997 289.169,279.994 289.700 C 279.991 290.195,279.827 290.853,279.631 291.163 C 279.196 291.850,279.850 293.445,281.081 294.700 C 282.014 295.652,286.400 296.064,286.400 295.200 C 286.400 294.980,287.120 294.800,288.000 294.800 C 288.880 294.800,289.600 294.620,289.600 294.400 C 289.600 294.180,290.129 294.000,290.776 294.000 C 291.423 294.000,292.064 293.820,292.200 293.600 C 292.336 293.380,292.977 293.200,293.624 293.200 C 294.271 293.200,294.800 293.020,294.800 292.800 C 294.800 292.580,295.419 292.400,296.176 292.400 C 296.933 292.400,297.654 292.236,297.778 292.035 C 297.903 291.834,298.768 291.544,299.702 291.390 C 300.636 291.236,301.580 290.973,301.800 290.807 C 302.020 290.640,302.920 290.288,303.800 290.024 C 304.680 289.760,305.805 289.377,306.300 289.172 C 306.795 288.967,307.695 288.599,308.300 288.353 C 308.905 288.108,309.713 287.748,310.095 287.553 C 310.477 287.359,311.062 287.200,311.395 287.200 C 311.728 287.200,312.000 287.020,312.000 286.800 C 312.000 286.580,312.225 286.401,312.500 286.403 C 313.135 286.406,321.355 282.314,321.533 281.905 C 321.607 281.737,322.022 281.600,322.457 281.600 C 322.892 281.600,323.136 281.420,323.000 281.200 C 322.864 280.980,323.123 280.800,323.576 280.800 C 324.029 280.800,324.400 280.620,324.400 280.400 C 324.400 280.180,324.672 280.000,325.004 280.000 C 325.336 280.000,326.172 279.460,326.863 278.800 C 327.554 278.140,328.322 277.600,328.571 277.600 C 328.820 277.600,329.283 277.240,329.600 276.800 C 329.917 276.360,330.420 276.000,330.717 276.000 C 331.014 276.000,331.508 275.775,331.815 275.500 C 332.442 274.938,332.671 274.755,335.200 272.805 C 336.190 272.041,337.630 270.706,338.400 269.837 C 339.170 268.968,340.160 267.885,340.600 267.429 C 341.040 266.973,341.655 266.105,341.968 265.500 C 342.280 264.895,342.685 264.400,342.868 264.400 C 343.050 264.400,343.200 264.080,343.200 263.688 C 343.200 263.297,343.560 262.717,344.000 262.400 C 344.440 262.083,344.800 261.503,344.800 261.112 C 344.800 260.720,344.980 260.400,345.200 260.400 C 345.420 260.400,345.600 260.040,345.600 259.600 C 345.600 259.160,345.780 258.800,346.000 258.800 C 346.220 258.800,346.400 258.440,346.400 258.000 C 346.400 257.560,346.580 257.200,346.800 257.200 C 347.020 257.200,347.200 256.761,347.200 256.224 C 347.200 255.687,347.380 255.136,347.600 255.000 C 347.820 254.864,348.000 253.953,348.000 252.976 C 348.000 251.999,348.180 251.200,348.400 251.200 C 348.649 251.200,348.800 248.933,348.800 245.200 C 348.800 241.467,348.649 239.200,348.400 239.200 C 348.180 239.200,348.000 238.491,348.000 237.624 C 348.000 236.757,347.820 235.936,347.600 235.800 C 347.380 235.664,347.200 235.023,347.200 234.376 C 347.200 233.729,347.020 233.200,346.800 233.200 C 346.580 233.200,346.400 232.581,346.400 231.824 C 346.400 231.067,346.220 230.336,346.000 230.200 C 345.780 230.064,345.600 229.593,345.600 229.153 C 345.600 228.713,345.420 228.464,345.200 228.600 C 344.973 228.740,344.800 228.404,344.800 227.824 C 344.800 227.261,344.620 226.800,344.400 226.800 C 344.180 226.800,344.000 226.530,344.000 226.200 C 344.000 225.870,343.820 225.600,343.600 225.600 C 343.380 225.600,343.200 225.280,343.200 224.888 C 343.200 224.497,342.840 223.917,342.400 223.600 C 341.960 223.283,341.600 222.719,341.600 222.346 C 341.600 221.973,340.986 221.037,340.236 220.265 C 339.486 219.492,338.976 218.757,339.103 218.630 C 339.230 218.504,339.109 218.400,338.835 218.400 C 338.561 218.400,337.676 217.725,336.869 216.900 C 336.061 216.075,334.905 215.145,334.300 214.832 C 333.695 214.520,333.200 214.115,333.200 213.932 C 333.200 213.750,332.840 213.600,332.400 213.600 C 331.960 213.600,331.600 213.420,331.600 213.200 C 331.600 212.980,331.240 212.800,330.800 212.800 C 330.360 212.800,330.000 212.620,330.000 212.400 C 330.000 212.180,329.595 211.997,329.100 211.994 C 328.605 211.991,327.390 211.699,326.400 211.346 C 323.404 210.277,314.135 209.198,313.490 209.843 M138.511 215.608 C 138.022 215.805,135.097 215.991,132.010 216.022 C 128.924 216.054,126.298 216.241,126.176 216.439 C 126.053 216.638,124.624 216.800,123.000 216.800 C 121.376 216.800,119.936 216.980,119.800 217.200 C 119.664 217.420,118.213 217.600,116.576 217.600 C 114.859 217.600,113.600 217.769,113.600 218.000 C 113.600 218.220,112.801 218.400,111.824 218.400 C 110.847 218.400,109.936 218.580,109.800 218.800 C 109.664 219.020,108.768 219.200,107.810 219.200 C 106.851 219.200,106.007 219.370,105.933 219.579 C 105.860 219.787,104.955 220.000,103.922 220.052 C 102.889 220.104,102.135 220.294,102.245 220.474 C 102.356 220.653,101.807 220.800,101.024 220.800 C 100.241 220.800,99.600 220.980,99.600 221.200 C 99.600 221.420,99.060 221.600,98.400 221.600 C 97.740 221.600,97.200 221.780,97.200 222.000 C 97.200 222.220,96.660 222.400,96.000 222.400 C 95.340 222.400,94.800 222.580,94.800 222.800 C 94.800 223.020,94.440 223.200,94.000 223.200 C 93.560 223.200,93.200 223.380,93.200 223.600 C 93.200 223.820,92.930 224.000,92.600 224.000 C 92.270 224.000,92.000 224.180,92.000 224.400 C 92.000 224.620,91.721 224.800,91.380 224.800 C 89.698 224.800,84.000 229.628,84.000 231.054 C 84.000 231.354,83.820 231.600,83.600 231.600 C 83.380 231.600,83.200 232.140,83.200 232.800 C 83.200 233.460,83.020 234.000,82.800 234.000 C 82.292 234.000,82.272 238.575,82.776 239.505 C 82.983 239.887,83.253 240.682,83.376 241.272 C 83.500 241.862,83.871 242.614,84.201 242.943 C 84.530 243.273,84.800 243.740,84.800 243.980 C 84.800 244.648,89.099 248.800,89.791 248.800 C 90.126 248.800,90.400 248.958,90.400 249.151 C 90.400 249.345,90.940 249.727,91.600 250.000 C 92.260 250.273,92.800 250.655,92.800 250.849 C 92.800 251.042,93.070 251.200,93.400 251.200 C 93.730 251.200,94.000 251.380,94.000 251.600 C 94.000 251.820,94.349 252.000,94.776 252.000 C 95.203 252.000,95.664 252.180,95.800 252.400 C 95.936 252.620,96.487 252.800,97.024 252.800 C 97.561 252.800,98.000 252.980,98.000 253.200 C 98.000 253.420,98.450 253.600,99.000 253.600 C 99.550 253.600,100.000 253.780,100.000 254.000 C 100.000 254.220,100.439 254.400,100.976 254.400 C 101.513 254.400,102.064 254.580,102.200 254.800 C 102.336 255.020,102.876 255.200,103.400 255.200 C 103.924 255.200,104.464 255.380,104.600 255.600 C 104.736 255.820,105.456 256.000,106.200 256.000 C 106.944 256.000,107.664 256.180,107.800 256.400 C 107.936 256.620,108.656 256.800,109.400 256.800 C 110.144 256.800,110.864 256.980,111.000 257.200 C 111.136 257.420,111.946 257.600,112.800 257.600 C 113.654 257.600,114.453 257.763,114.576 257.961 C 114.699 258.160,116.690 258.452,119.000 258.609 C 121.310 258.767,123.200 259.054,123.200 259.248 C 123.200 259.442,124.809 259.600,126.776 259.600 C 128.743 259.600,130.464 259.780,130.600 260.000 C 130.739 260.225,132.644 260.400,134.944 260.400 C 137.197 260.400,139.214 260.574,139.426 260.786 C 140.440 261.800,193.158 261.802,194.173 260.787 C 194.386 260.574,196.684 260.400,199.280 260.400 C 202.160 260.400,204.000 260.244,204.000 260.000 C 204.000 259.767,205.335 259.600,207.205 259.600 C 208.968 259.600,210.723 259.433,211.105 259.229 C 211.487 259.025,213.960 258.671,216.600 258.442 C 223.310 257.862,225.341 257.578,225.780 257.161 C 225.989 256.963,226.923 256.800,227.856 256.800 C 228.789 256.800,229.664 256.620,229.800 256.400 C 229.936 256.180,230.757 256.000,231.624 256.000 C 232.491 256.000,233.200 255.820,233.200 255.600 C 233.200 255.380,233.909 255.200,234.776 255.200 C 235.643 255.200,236.452 255.040,236.573 254.844 C 236.780 254.508,237.793 254.272,241.303 253.742 C 242.129 253.618,242.905 253.355,243.026 253.158 C 243.148 252.961,243.856 252.800,244.600 252.800 C 245.344 252.800,246.042 252.656,246.151 252.479 C 246.260 252.303,247.272 251.907,248.400 251.600 C 249.528 251.293,250.540 250.897,250.649 250.721 C 250.758 250.544,251.276 250.400,251.800 250.400 C 252.324 250.400,252.864 250.220,253.000 250.000 C 253.136 249.780,253.766 249.600,254.400 249.600 C 255.034 249.600,255.664 249.420,255.800 249.200 C 255.936 248.980,256.487 248.800,257.024 248.800 C 257.561 248.800,258.000 248.620,258.000 248.400 C 258.000 248.180,258.360 248.000,258.800 248.000 C 259.240 248.000,259.600 247.820,259.600 247.600 C 259.600 247.380,260.039 247.200,260.576 247.200 C 261.113 247.200,261.664 247.020,261.800 246.800 C 261.936 246.580,262.397 246.400,262.824 246.400 C 263.251 246.400,263.600 246.220,263.600 246.000 C 263.600 245.780,263.960 245.600,264.400 245.600 C 264.840 245.600,265.200 245.420,265.200 245.200 C 265.200 244.980,265.560 244.800,266.000 244.800 C 266.440 244.800,266.800 244.620,266.800 244.400 C 266.800 244.180,267.250 244.000,267.800 244.000 C 268.350 244.000,268.800 243.841,268.800 243.647 C 268.800 243.452,269.115 243.193,269.500 243.071 C 269.885 242.949,270.650 242.594,271.200 242.281 C 271.750 241.969,273.234 241.193,274.499 240.556 C 275.763 239.920,276.798 239.277,276.799 239.127 C 276.799 238.977,277.168 238.737,277.617 238.595 C 281.106 237.487,282.899 232.462,280.618 230.182 C 279.589 229.152,274.800 228.673,274.800 229.600 C 274.800 229.820,274.206 230.000,273.480 230.000 C 272.754 230.000,271.989 230.170,271.780 230.379 C 271.571 230.587,270.635 230.802,269.700 230.857 C 268.765 230.912,268.000 231.101,268.000 231.278 C 268.000 231.455,267.100 231.600,266.000 231.600 C 264.900 231.600,264.000 231.780,264.000 232.000 C 264.000 232.220,263.021 232.400,261.824 232.400 C 260.627 232.400,259.536 232.580,259.400 232.800 C 259.264 233.020,258.083 233.200,256.776 233.200 C 255.459 233.200,254.400 233.378,254.400 233.600 C 254.400 233.833,253.075 234.000,251.224 234.000 C 249.477 234.000,247.936 234.180,247.800 234.400 C 247.664 234.620,246.224 234.800,244.600 234.800 C 242.976 234.800,241.536 234.980,241.400 235.200 C 241.261 235.425,239.329 235.600,236.976 235.600 C 234.459 235.600,232.800 235.759,232.800 236.000 C 232.800 236.247,230.741 236.400,227.424 236.400 C 224.271 236.400,221.945 236.565,221.800 236.800 C 221.650 237.043,218.740 237.200,214.410 237.200 C 210.100 237.200,207.214 237.356,207.133 237.592 C 207.050 237.838,201.459 237.994,192.112 238.010 C 183.120 238.026,177.131 238.187,176.989 238.418 C 176.676 238.925,173.715 238.910,173.400 238.400 C 173.243 238.146,168.270 238.000,159.800 238.000 C 151.330 238.000,146.357 237.854,146.200 237.600 C 146.054 237.363,143.604 237.200,140.200 237.200 C 136.796 237.200,134.346 237.037,134.200 236.800 C 134.064 236.580,132.603 236.400,130.953 236.400 C 129.055 236.400,128.044 236.253,128.200 236.000 C 128.355 235.749,127.479 235.600,125.847 235.600 C 124.417 235.600,123.136 235.420,123.000 235.200 C 122.864 234.980,122.043 234.800,121.176 234.800 C 118.748 234.800,119.566 233.562,123.000 232.039 C 123.660 231.746,124.513 231.348,124.895 231.153 C 125.277 230.959,125.862 230.800,126.195 230.800 C 126.528 230.800,126.800 230.620,126.800 230.400 C 126.800 230.180,127.160 230.000,127.600 230.000 C 128.040 230.000,128.400 229.820,128.400 229.600 C 128.400 229.380,128.940 229.200,129.600 229.200 C 130.260 229.200,130.800 229.020,130.800 228.800 C 130.800 228.580,131.340 228.400,132.000 228.400 C 132.660 228.400,133.200 228.220,133.200 228.000 C 133.200 227.780,133.729 227.600,134.376 227.600 C 135.023 227.600,135.664 227.420,135.800 227.200 C 135.936 226.980,136.476 226.800,137.000 226.800 C 137.524 226.800,138.064 226.620,138.200 226.400 C 138.336 226.180,138.966 226.000,139.600 226.000 C 140.234 226.000,140.855 225.835,140.979 225.634 C 141.104 225.433,142.557 225.141,144.208 224.986 C 145.860 224.832,147.310 224.546,147.429 224.352 C 147.549 224.159,148.155 224.000,148.775 224.000 C 150.278 224.000,152.573 223.010,153.583 221.926 C 155.063 220.337,154.327 216.000,152.577 216.000 C 152.260 216.000,152.000 215.820,152.000 215.600 C 152.000 215.096,139.767 215.103,138.511 215.608 M133.500 261.874 C 132.675 261.970,132.000 262.217,132.000 262.424 C 132.000 262.631,131.471 262.800,130.824 262.800 C 130.177 262.800,129.536 262.980,129.400 263.200 C 129.264 263.420,128.724 263.600,128.200 263.600 C 127.676 263.600,127.136 263.780,127.000 264.000 C 126.864 264.220,126.223 264.400,125.576 264.400 C 124.929 264.400,124.400 264.580,124.400 264.800 C 124.400 265.020,123.950 265.200,123.400 265.200 C 122.850 265.200,122.400 265.380,122.400 265.600 C 122.400 265.820,122.040 266.000,121.600 266.000 C 121.160 266.000,120.800 266.180,120.800 266.400 C 120.800 266.620,120.440 266.800,120.000 266.800 C 119.560 266.800,119.200 266.980,119.200 267.200 C 119.200 267.420,118.840 267.600,118.400 267.600 C 117.960 267.600,117.600 267.780,117.600 268.000 C 117.600 268.220,117.326 268.400,116.991 268.400 C 116.317 268.400,112.000 272.544,112.000 273.191 C 112.000 273.416,111.820 273.600,111.600 273.600 C 111.380 273.600,111.200 274.050,111.200 274.600 C 111.200 275.150,111.020 275.600,110.800 275.600 C 110.578 275.600,110.400 276.659,110.400 277.976 C 110.400 279.283,110.580 280.464,110.800 280.600 C 111.020 280.736,111.200 281.279,111.200 281.807 C 111.200 282.450,112.027 283.599,113.700 285.284 C 116.177 287.777,116.700 288.161,119.800 289.770 C 120.680 290.226,121.490 290.718,121.601 290.863 C 121.711 291.008,122.476 291.253,123.301 291.408 C 124.125 291.562,124.800 291.849,124.800 292.045 C 124.800 292.240,125.250 292.400,125.800 292.400 C 126.350 292.400,126.800 292.580,126.800 292.800 C 126.800 293.020,127.340 293.200,128.000 293.200 C 128.660 293.200,129.200 293.380,129.200 293.600 C 129.200 293.820,129.729 294.000,130.376 294.000 C 131.023 294.000,131.664 294.180,131.800 294.400 C 131.936 294.620,132.656 294.800,133.400 294.800 C 134.144 294.800,134.864 294.980,135.000 295.200 C 135.136 295.420,135.867 295.600,136.624 295.600 C 137.381 295.600,138.000 295.780,138.000 296.000 C 138.000 296.220,138.900 296.400,140.000 296.400 C 141.100 296.400,142.000 296.580,142.000 296.800 C 142.000 297.020,142.889 297.200,143.976 297.200 C 145.063 297.200,146.064 297.380,146.200 297.600 C 146.336 297.820,147.506 298.000,148.800 298.000 C 150.094 298.000,151.264 298.180,151.400 298.400 C 151.536 298.620,152.987 298.800,154.624 298.800 C 156.341 298.800,157.600 298.969,157.600 299.200 C 157.600 299.449,159.859 299.600,163.576 299.600 C 167.129 299.600,169.653 299.762,169.800 300.000 C 170.113 300.506,180.268 300.537,180.580 300.033 C 180.704 299.831,184.070 299.644,188.058 299.618 C 192.046 299.592,195.632 299.397,196.028 299.185 C 196.424 298.973,198.559 298.800,200.774 298.800 C 203.191 298.800,204.800 298.640,204.800 298.400 C 204.800 298.167,206.125 298.000,207.976 298.000 C 209.723 298.000,211.264 297.820,211.400 297.600 C 211.536 297.380,212.886 297.200,214.400 297.200 C 215.914 297.200,217.264 297.020,217.400 296.800 C 217.536 296.580,218.796 296.400,220.200 296.400 C 221.604 296.400,222.864 296.220,223.000 296.000 C 223.136 295.780,224.306 295.600,225.600 295.600 C 226.894 295.600,228.064 295.420,228.200 295.200 C 228.336 294.980,229.427 294.800,230.624 294.800 C 231.821 294.800,232.800 294.620,232.800 294.400 C 232.800 294.178,233.867 294.000,235.200 294.000 C 236.533 294.000,237.600 293.822,237.600 293.600 C 237.600 293.380,238.500 293.200,239.600 293.200 C 240.700 293.200,241.600 293.020,241.600 292.800 C 241.600 292.580,242.500 292.400,243.600 292.400 C 244.700 292.400,245.600 292.243,245.600 292.052 C 245.600 291.860,247.218 291.577,249.195 291.422 C 251.172 291.267,252.892 290.974,253.018 290.770 C 253.144 290.567,254.036 290.400,255.000 290.400 C 255.964 290.400,256.864 290.220,257.000 290.000 C 257.136 289.780,258.036 289.600,259.000 289.600 C 259.964 289.600,260.864 289.420,261.000 289.200 C 261.136 288.980,261.856 288.800,262.600 288.800 C 263.344 288.800,264.064 288.620,264.200 288.400 C 264.336 288.180,264.971 288.000,265.611 288.000 C 268.046 288.000,270.765 285.832,270.787 283.874 C 270.808 282.005,267.999 278.400,266.522 278.400 C 266.235 278.400,266.000 278.250,266.000 278.068 C 266.000 277.885,265.505 277.480,264.900 277.168 C 264.295 276.855,263.562 276.375,263.271 276.100 C 262.981 275.825,262.486 275.600,262.171 275.600 C 261.857 275.600,261.600 275.420,261.600 275.200 C 261.600 274.980,261.370 274.800,261.088 274.800 C 260.807 274.800,260.317 274.440,260.000 274.000 C 259.683 273.560,259.193 273.200,258.912 273.200 C 258.630 273.200,258.400 273.020,258.400 272.800 C 258.400 272.580,258.222 272.400,258.005 272.400 C 257.653 272.400,256.894 271.864,255.455 270.600 C 255.205 270.380,254.505 269.945,253.900 269.632 C 253.295 269.320,252.800 268.915,252.800 268.732 C 252.800 268.550,251.450 268.400,249.800 268.400 C 248.067 268.400,246.800 268.569,246.800 268.800 C 246.800 269.020,246.091 269.200,245.224 269.200 C 244.357 269.200,243.548 269.361,243.426 269.558 C 243.218 269.894,242.499 270.046,238.300 270.641 C 237.365 270.774,236.429 271.044,236.220 271.241 C 236.011 271.438,235.012 271.600,234.000 271.600 C 232.988 271.600,231.989 271.763,231.780 271.961 C 231.387 272.334,229.232 272.676,224.900 273.052 C 223.525 273.171,222.400 273.433,222.400 273.634 C 222.400 273.835,221.140 274.000,219.600 274.000 C 218.000 274.000,216.800 274.171,216.800 274.400 C 216.800 274.620,215.765 274.810,214.500 274.822 C 213.235 274.833,210.760 275.019,209.000 275.234 C 198.327 276.540,163.793 277.043,153.000 276.051 C 145.776 275.387,140.101 274.636,139.766 274.300 C 139.601 274.135,138.787 274.000,137.957 274.000 C 137.127 274.000,136.336 273.820,136.200 273.600 C 136.064 273.380,135.681 273.200,135.348 273.200 C 133.456 273.200,133.636 271.420,135.600 270.702 C 138.267 269.727,139.600 268.030,139.600 265.607 C 139.600 262.322,138.014 261.351,133.500 261.874 M142.600 304.000 C 142.464 304.220,141.294 304.400,140.000 304.400 C 138.706 304.400,137.536 304.580,137.400 304.800 C 137.264 305.020,136.443 305.200,135.576 305.200 C 134.709 305.200,134.000 305.380,134.000 305.600 C 134.000 305.820,133.460 306.000,132.800 306.000 C 132.140 306.000,131.600 306.180,131.600 306.400 C 131.600 306.620,131.240 306.800,130.800 306.800 C 130.360 306.800,130.000 306.980,130.000 307.200 C 130.000 307.420,129.640 307.600,129.200 307.600 C 128.760 307.600,128.400 307.752,128.400 307.937 C 128.400 308.122,127.770 308.613,127.000 309.028 C 126.230 309.443,125.600 309.919,125.600 310.086 C 125.600 310.379,124.752 311.507,123.700 312.616 C 123.425 312.906,123.200 313.415,123.200 313.748 C 123.200 314.081,123.020 314.464,122.800 314.600 C 121.728 315.263,122.570 325.185,123.700 325.197 C 123.865 325.199,124.000 325.469,124.000 325.797 C 124.000 326.804,127.923 331.051,129.700 331.968 C 130.305 332.280,130.800 332.685,130.800 332.868 C 130.800 333.050,131.160 333.200,131.600 333.200 C 132.040 333.200,132.400 333.380,132.400 333.600 C 132.400 333.820,132.760 334.000,133.200 334.000 C 133.640 334.000,134.000 334.180,134.000 334.400 C 134.000 334.620,134.439 334.800,134.976 334.800 C 135.513 334.800,136.064 334.980,136.200 335.200 C 136.336 335.420,136.797 335.600,137.224 335.600 C 137.651 335.600,138.000 335.780,138.000 336.000 C 138.000 336.220,138.529 336.400,139.176 336.400 C 139.823 336.400,140.464 336.580,140.600 336.800 C 140.736 337.020,141.276 337.200,141.800 337.200 C 142.324 337.200,142.852 337.360,142.973 337.556 C 143.094 337.751,143.779 338.013,144.496 338.137 C 145.213 338.261,146.430 338.473,147.200 338.608 C 147.970 338.744,148.960 339.011,149.400 339.202 C 149.840 339.394,150.920 339.658,151.800 339.788 C 155.911 340.400,157.878 340.727,158.790 340.948 C 159.334 341.080,162.163 341.308,165.076 341.455 C 167.989 341.601,170.278 341.873,170.163 342.060 C 170.047 342.247,172.293 342.400,175.153 342.400 C 178.188 342.400,180.456 342.567,180.600 342.800 C 180.757 343.053,185.596 343.200,193.800 343.200 C 202.004 343.200,206.843 343.053,207.000 342.800 C 207.136 342.579,208.930 342.400,211.000 342.400 C 213.070 342.400,214.864 342.221,215.000 342.000 C 215.136 341.780,216.452 341.591,217.924 341.579 C 220.664 341.558,224.103 341.158,228.000 340.407 C 229.210 340.174,231.148 339.874,232.307 339.741 C 233.466 339.608,234.512 339.342,234.631 339.150 C 234.750 338.957,235.456 338.800,236.200 338.800 C 236.944 338.800,237.664 338.620,237.800 338.400 C 237.936 338.180,238.656 338.000,239.400 338.000 C 240.144 338.000,240.864 337.820,241.000 337.600 C 241.136 337.380,241.867 337.200,242.624 337.200 C 243.381 337.200,244.000 337.020,244.000 336.800 C 244.000 336.580,244.619 336.400,245.376 336.400 C 246.133 336.400,246.864 336.220,247.000 336.000 C 247.136 335.780,247.777 335.600,248.424 335.600 C 249.071 335.600,249.600 335.420,249.600 335.200 C 249.600 334.980,250.140 334.800,250.800 334.800 C 251.460 334.800,252.000 334.620,252.000 334.400 C 252.000 334.180,252.362 334.000,252.805 334.000 C 253.248 334.000,253.923 333.841,254.305 333.647 C 254.687 333.452,255.540 333.071,256.200 332.800 C 256.860 332.529,257.713 332.148,258.095 331.953 C 258.477 331.759,259.152 331.600,259.595 331.600 C 260.038 331.600,260.400 331.420,260.400 331.200 C 260.400 330.980,260.702 330.800,261.072 330.800 C 262.215 330.800,264.400 328.062,264.400 326.628 C 264.400 325.209,262.172 322.400,261.046 322.400 C 260.691 322.400,260.400 322.220,260.400 322.000 C 260.400 321.780,260.164 321.600,259.875 321.600 C 259.587 321.600,258.964 321.240,258.492 320.800 C 258.020 320.360,257.448 320.000,257.221 320.000 C 256.835 320.000,255.800 319.254,254.584 318.100 C 254.294 317.825,253.774 317.600,253.429 317.600 C 253.083 317.600,252.800 317.420,252.800 317.200 C 252.800 316.980,252.530 316.800,252.200 316.800 C 251.870 316.800,251.600 316.654,251.600 316.475 C 251.600 316.296,250.970 315.902,250.200 315.600 C 249.430 315.298,248.800 314.904,248.800 314.725 C 248.800 314.546,248.564 314.400,248.275 314.400 C 247.987 314.400,247.401 314.085,246.973 313.700 C 246.545 313.315,245.387 312.563,244.398 312.030 C 243.409 311.496,242.491 310.897,242.357 310.699 C 241.945 310.087,230.800 310.992,230.800 311.637 C 230.800 311.837,229.731 312.000,228.424 312.000 C 227.117 312.000,225.936 312.180,225.800 312.400 C 225.664 312.620,224.483 312.800,223.176 312.800 C 221.869 312.800,220.800 312.964,220.800 313.164 C 220.800 313.365,219.720 313.635,218.400 313.764 C 217.080 313.894,214.875 314.107,213.500 314.238 C 212.125 314.369,210.815 314.628,210.588 314.814 C 210.362 315.000,209.147 315.193,207.888 315.244 C 206.630 315.295,205.600 315.486,205.600 315.668 C 205.600 316.159,176.103 316.091,175.800 315.600 C 175.664 315.379,173.870 315.200,171.800 315.200 C 169.730 315.200,167.936 315.021,167.800 314.800 C 167.664 314.580,166.224 314.400,164.600 314.400 C 162.976 314.400,161.536 314.220,161.400 314.000 C 161.264 313.780,160.083 313.600,158.776 313.600 C 157.459 313.600,156.400 313.422,156.400 313.200 C 156.400 312.980,155.500 312.800,154.400 312.800 C 153.300 312.800,152.400 312.620,152.400 312.400 C 152.400 312.180,151.770 312.000,151.000 312.000 C 150.230 312.000,149.600 311.820,149.600 311.600 C 149.600 311.380,149.240 311.200,148.800 311.200 C 148.360 311.200,148.000 311.102,148.000 310.983 C 148.000 310.864,148.360 310.380,148.800 309.908 C 150.376 308.217,149.141 304.400,147.018 304.400 C 146.678 304.400,146.400 304.220,146.400 304.000 C 146.400 303.780,145.601 303.600,144.624 303.600 C 143.647 303.600,142.736 303.780,142.600 304.000 M109.400 332.000 C 109.259 332.229,107.204 332.400,104.600 332.400 C 101.996 332.400,99.941 332.571,99.800 332.800 C 99.661 333.025,97.729 333.200,95.376 333.200 C 92.859 333.200,91.200 333.359,91.200 333.600 C 91.200 333.833,89.867 334.000,88.000 334.000 C 86.133 334.000,84.800 334.167,84.800 334.400 C 84.800 334.629,83.600 334.800,82.000 334.800 C 80.400 334.800,79.200 334.971,79.200 335.200 C 79.200 335.420,78.390 335.600,77.400 335.600 C 76.410 335.600,75.600 335.780,75.600 336.000 C 75.600 336.220,74.700 336.400,73.600 336.400 C 72.500 336.400,71.600 336.580,71.600 336.800 C 71.600 337.020,70.970 337.200,70.200 337.200 C 69.430 337.200,68.800 337.380,68.800 337.600 C 68.800 337.820,68.271 338.000,67.624 338.000 C 66.977 338.000,66.336 338.180,66.200 338.400 C 66.064 338.620,65.524 338.800,65.000 338.800 C 64.476 338.800,63.936 338.980,63.800 339.200 C 63.664 339.420,63.203 339.600,62.776 339.600 C 62.349 339.600,62.000 339.780,62.000 340.000 C 62.000 340.220,61.655 340.400,61.233 340.400 C 60.812 340.400,60.407 340.535,60.333 340.700 C 60.260 340.865,59.120 341.539,57.800 342.197 C 55.195 343.497,53.314 345.199,52.453 347.034 C 52.153 347.675,51.748 348.513,51.553 348.895 C 51.059 349.867,51.100 357.200,51.600 357.200 C 51.820 357.200,52.000 357.650,52.000 358.200 C 52.000 358.750,52.180 359.200,52.400 359.200 C 52.620 359.200,52.800 359.470,52.800 359.800 C 52.800 360.130,52.980 360.400,53.200 360.400 C 53.420 360.400,53.600 360.674,53.600 361.009 C 53.600 361.849,57.565 365.740,59.124 366.431 C 59.826 366.741,60.400 367.103,60.400 367.235 C 60.400 367.469,63.203 368.906,65.200 369.697 C 65.750 369.915,66.513 370.252,66.895 370.447 C 67.277 370.641,67.862 370.800,68.195 370.800 C 68.528 370.800,68.800 370.980,68.800 371.200 C 68.800 371.420,69.214 371.600,69.720 371.600 C 70.226 371.600,70.811 371.751,71.020 371.936 C 71.229 372.120,72.480 372.499,73.800 372.777 C 75.120 373.056,76.560 373.431,77.000 373.612 C 78.712 374.314,83.461 375.148,85.900 375.176 C 87.055 375.189,88.000 375.380,88.000 375.600 C 88.000 375.822,89.067 376.000,90.400 376.000 C 91.733 376.000,92.800 376.178,92.800 376.400 C 92.800 376.623,93.875 376.800,95.224 376.800 C 96.737 376.800,97.554 376.950,97.400 377.200 C 97.241 377.457,98.596 377.600,101.176 377.600 C 103.592 377.600,105.200 377.760,105.200 378.000 C 105.200 378.239,106.773 378.400,109.120 378.400 C 111.276 378.400,113.211 378.570,113.420 378.778 C 113.811 379.167,119.054 379.460,132.100 379.824 C 136.401 379.944,139.600 380.195,139.600 380.412 C 139.600 380.647,151.822 380.790,171.800 380.790 C 192.738 380.790,204.000 380.652,204.000 380.395 C 204.000 380.151,206.512 380.000,210.576 380.000 C 214.529 380.000,217.251 379.840,217.400 379.600 C 217.545 379.366,219.863 379.200,223.000 379.200 C 226.137 379.200,228.455 379.034,228.600 378.800 C 228.741 378.571,230.796 378.400,233.400 378.400 C 236.004 378.400,238.059 378.229,238.200 378.000 C 238.336 377.780,239.877 377.600,241.624 377.600 C 243.475 377.600,244.800 377.433,244.800 377.200 C 244.800 376.967,246.133 376.800,248.000 376.800 C 249.867 376.800,251.200 376.633,251.200 376.400 C 251.200 376.169,252.467 376.000,254.200 376.000 C 255.933 376.000,257.200 375.831,257.200 375.600 C 257.200 375.380,258.323 375.185,259.700 375.166 C 262.108 375.134,264.185 374.873,269.100 373.984 C 270.365 373.756,272.120 373.476,273.000 373.362 C 273.880 373.248,274.960 372.995,275.400 372.800 C 275.840 372.605,276.920 372.352,277.800 372.238 C 281.258 371.790,282.632 371.536,283.400 371.205 C 284.337 370.801,285.999 370.420,288.103 370.126 C 288.929 370.010,289.705 369.755,289.826 369.558 C 289.948 369.361,290.656 369.200,291.400 369.200 C 292.144 369.200,292.852 369.040,292.973 368.844 C 293.094 368.649,293.824 368.379,294.596 368.244 C 295.368 368.110,296.630 367.890,297.400 367.756 C 298.170 367.622,298.800 367.352,298.800 367.156 C 298.800 366.960,299.239 366.800,299.776 366.800 C 300.313 366.800,300.864 366.620,301.000 366.400 C 301.136 366.180,301.676 366.000,302.200 366.000 C 302.724 366.000,303.264 365.820,303.400 365.600 C 303.536 365.380,304.076 365.200,304.600 365.200 C 305.124 365.200,305.664 365.020,305.800 364.800 C 305.936 364.580,306.487 364.400,307.024 364.400 C 307.561 364.400,308.000 364.220,308.000 364.000 C 308.000 363.780,308.540 363.600,309.200 363.600 C 309.860 363.600,310.400 363.420,310.400 363.200 C 310.400 362.980,310.760 362.800,311.200 362.800 C 311.640 362.800,312.000 362.620,312.000 362.400 C 312.000 362.180,312.360 362.000,312.800 362.000 C 313.240 362.000,313.600 361.820,313.600 361.600 C 313.600 361.380,313.960 361.200,314.400 361.200 C 314.840 361.200,315.200 361.020,315.200 360.800 C 315.200 360.580,315.472 360.400,315.805 360.400 C 316.138 360.400,316.723 360.236,317.105 360.036 C 317.487 359.835,318.876 359.160,320.192 358.536 C 322.676 357.357,326.201 354.209,327.174 352.300 C 327.483 351.695,327.885 351.200,328.068 351.200 C 328.250 351.200,328.400 350.660,328.400 350.000 C 328.400 349.340,328.580 348.800,328.800 348.800 C 329.031 348.800,329.200 347.533,329.200 345.800 C 329.200 344.067,329.031 342.800,328.800 342.800 C 328.580 342.800,328.400 342.384,328.400 341.875 C 328.400 341.367,328.040 340.564,327.600 340.092 C 327.160 339.620,326.800 339.046,326.800 338.818 C 326.800 337.399,322.159 334.000,320.222 334.000 C 318.140 334.000,314.781 338.174,316.411 338.733 C 316.625 338.807,316.800 339.287,316.800 339.800 C 316.800 340.313,317.023 340.808,317.295 340.898 C 317.958 341.119,317.048 343.200,316.289 343.200 C 315.998 343.200,315.535 343.425,315.260 343.700 C 314.985 343.975,314.634 344.216,314.480 344.235 C 314.191 344.270,313.264 344.604,311.700 345.236 C 311.205 345.436,310.350 345.780,309.800 346.000 C 309.250 346.220,308.395 346.566,307.900 346.770 C 307.405 346.973,306.460 347.251,305.800 347.388 C 305.140 347.524,303.970 347.800,303.200 348.000 C 302.430 348.200,301.260 348.476,300.600 348.612 C 299.940 348.749,299.040 349.014,298.600 349.203 C 297.771 349.558,296.153 349.888,293.400 350.264 C 292.520 350.384,291.629 350.644,291.420 350.841 C 291.211 351.038,290.356 351.200,289.520 351.200 C 288.684 351.200,288.000 351.380,288.000 351.600 C 288.000 351.820,287.100 352.000,286.000 352.000 C 284.900 352.000,284.000 352.163,284.000 352.363 C 284.000 352.702,282.974 352.862,277.100 353.444 C 275.835 353.569,274.800 353.835,274.800 354.036 C 274.800 354.236,273.720 354.400,272.400 354.400 C 271.067 354.400,270.000 354.578,270.000 354.800 C 270.000 355.029,268.800 355.200,267.200 355.200 C 265.600 355.200,264.400 355.371,264.400 355.600 C 264.400 355.826,263.267 356.000,261.800 356.000 C 260.333 356.000,259.200 356.174,259.200 356.400 C 259.200 356.633,257.867 356.800,256.000 356.800 C 254.133 356.800,252.800 356.967,252.800 357.200 C 252.800 357.439,251.267 357.600,249.000 357.600 C 246.910 357.600,245.200 357.749,245.200 357.930 C 245.200 358.226,241.199 358.526,222.800 359.611 C 219.830 359.786,216.770 360.033,216.000 360.159 C 210.353 361.088,156.948 361.086,151.200 360.157 C 149.730 359.919,144.860 359.583,131.100 358.769 C 126.535 358.499,122.800 358.125,122.800 357.939 C 122.800 357.753,121.349 357.600,119.576 357.600 C 117.529 357.600,116.443 357.454,116.600 357.200 C 116.756 356.948,115.804 356.800,114.024 356.800 C 112.408 356.800,111.200 356.629,111.200 356.400 C 111.200 356.178,110.141 356.000,108.824 356.000 C 107.517 356.000,106.336 355.820,106.200 355.600 C 106.064 355.380,104.973 355.200,103.776 355.200 C 102.579 355.200,101.600 355.020,101.600 354.800 C 101.600 354.580,100.801 354.400,99.824 354.400 C 98.847 354.400,97.936 354.220,97.800 354.000 C 97.664 353.780,96.753 353.600,95.776 353.600 C 94.799 353.600,94.000 353.420,94.000 353.200 C 94.000 352.980,93.280 352.800,92.400 352.800 C 91.520 352.800,90.800 352.620,90.800 352.400 C 90.800 352.180,90.260 352.000,89.600 352.000 C 88.940 352.000,88.400 351.820,88.400 351.600 C 88.400 351.380,87.858 351.200,87.195 351.200 C 84.067 351.200,82.024 348.091,85.100 348.013 C 85.375 348.006,85.600 347.820,85.600 347.600 C 85.600 347.380,86.039 347.200,86.576 347.200 C 87.113 347.200,87.664 347.020,87.800 346.800 C 87.936 346.580,88.487 346.400,89.024 346.400 C 89.561 346.400,90.000 346.220,90.000 346.000 C 90.000 345.780,90.360 345.600,90.800 345.600 C 91.240 345.600,91.600 345.420,91.600 345.200 C 91.600 344.980,92.219 344.800,92.976 344.800 C 93.733 344.800,94.464 344.620,94.600 344.400 C 94.736 344.180,95.377 344.000,96.024 344.000 C 96.671 344.000,97.200 343.820,97.200 343.600 C 97.200 343.380,97.830 343.200,98.600 343.200 C 99.370 343.200,100.000 343.020,100.000 342.800 C 100.000 342.580,100.630 342.400,101.400 342.400 C 102.170 342.400,102.800 342.245,102.800 342.055 C 102.800 341.866,104.195 341.587,105.900 341.437 C 107.605 341.286,109.540 341.003,110.200 340.807 C 110.860 340.612,112.199 340.242,113.176 339.987 C 116.209 339.194,116.773 338.551,116.787 335.871 C 116.800 333.473,116.257 332.400,115.029 332.400 C 114.683 332.400,114.400 332.220,114.400 332.000 C 114.400 331.778,113.341 331.600,112.024 331.600 C 110.717 331.600,109.536 331.780,109.400 332.000 M339.600 356.400 C 339.600 356.620,339.330 356.800,339.001 356.800 C 338.671 356.800,337.759 357.406,336.974 358.147 C 336.189 358.888,335.063 359.741,334.473 360.044 C 333.883 360.347,333.109 360.911,332.753 361.297 C 332.397 361.684,331.827 362.000,331.486 362.000 C 331.146 362.000,330.807 362.135,330.733 362.300 C 330.566 362.676,328.436 363.975,327.500 364.271 C 327.115 364.393,326.800 364.652,326.800 364.847 C 326.800 365.041,326.530 365.200,326.200 365.200 C 325.870 365.200,325.600 365.380,325.600 365.600 C 325.600 365.820,325.240 366.000,324.800 366.000 C 324.360 366.000,324.000 366.180,324.000 366.400 C 324.000 366.620,323.640 366.800,323.200 366.800 C 322.760 366.800,322.400 366.980,322.400 367.200 C 322.400 367.420,322.040 367.600,321.600 367.600 C 321.160 367.600,320.800 367.780,320.800 368.000 C 320.800 368.220,320.451 368.400,320.024 368.400 C 319.597 368.400,319.136 368.580,319.000 368.800 C 318.864 369.020,318.313 369.200,317.776 369.200 C 317.239 369.200,316.800 369.380,316.800 369.600 C 316.800 369.820,316.528 370.000,316.195 370.000 C 315.862 370.000,315.277 370.159,314.895 370.353 C 314.513 370.548,313.660 370.929,313.000 371.200 C 312.340 371.471,311.487 371.852,311.105 372.047 C 310.723 372.241,310.138 372.400,309.805 372.400 C 309.472 372.400,309.200 372.580,309.200 372.800 C 309.200 373.020,308.660 373.200,308.000 373.200 C 307.340 373.200,306.800 373.380,306.800 373.600 C 306.800 373.820,306.271 374.000,305.624 374.000 C 304.977 374.000,304.336 374.180,304.200 374.400 C 304.064 374.620,303.423 374.800,302.776 374.800 C 302.129 374.800,301.600 374.991,301.600 375.224 C 301.600 375.457,301.454 375.557,301.276 375.447 C 300.928 375.232,297.915 375.850,296.600 376.407 C 296.160 376.593,295.260 376.837,294.600 376.948 C 293.940 377.060,292.590 377.357,291.600 377.608 C 290.610 377.859,289.124 378.160,288.297 378.275 C 287.471 378.390,286.695 378.645,286.574 378.842 C 286.452 379.039,285.744 379.200,285.000 379.200 C 284.256 379.200,283.536 379.380,283.400 379.600 C 283.264 379.820,281.993 380.000,280.576 380.000 C 279.125 380.000,278.000 380.175,278.000 380.400 C 278.000 380.625,276.875 380.800,275.424 380.800 C 274.007 380.800,272.736 380.980,272.600 381.200 C 272.464 381.420,270.754 381.600,268.800 381.600 C 266.846 381.600,265.136 381.780,265.000 382.000 C 264.856 382.233,262.596 382.400,259.576 382.400 C 256.392 382.400,254.400 382.554,254.400 382.800 C 254.400 383.053,251.591 383.200,246.774 383.200 C 242.412 383.200,238.825 383.373,238.394 383.603 C 237.408 384.131,141.454 384.161,141.278 383.634 C 141.207 383.420,135.987 383.244,128.892 383.217 C 122.147 383.191,116.532 383.041,116.414 382.885 C 116.015 382.354,112.608 382.337,111.000 382.858 C 108.669 383.612,108.400 384.028,108.400 386.872 L 108.400 389.401 110.100 390.287 C 111.188 390.854,112.916 391.270,114.900 391.442 C 116.605 391.590,118.000 391.866,118.000 392.055 C 118.000 392.245,118.979 392.400,120.176 392.400 C 121.373 392.400,122.464 392.580,122.600 392.800 C 122.736 393.020,123.827 393.200,125.024 393.200 C 126.221 393.200,127.200 393.380,127.200 393.600 C 127.200 393.826,128.333 394.000,129.800 394.000 C 131.267 394.000,132.400 394.174,132.400 394.400 C 132.400 394.620,133.379 394.800,134.576 394.800 C 135.773 394.800,136.864 394.980,137.000 395.200 C 137.136 395.420,138.407 395.600,139.824 395.600 C 141.275 395.600,142.400 395.775,142.400 396.000 C 142.400 396.233,143.733 396.400,145.600 396.400 C 147.467 396.400,148.800 396.567,148.800 396.800 C 148.800 397.032,150.107 397.200,151.920 397.200 C 153.636 397.200,155.211 397.368,155.420 397.573 C 155.777 397.924,157.641 398.081,167.992 398.632 C 170.298 398.755,172.422 399.053,172.713 399.294 C 173.476 399.927,231.857 400.184,243.400 399.605 C 259.114 398.817,260.000 398.752,260.000 398.373 C 260.000 398.168,261.699 398.000,263.776 398.000 C 265.863 398.000,267.663 397.821,267.800 397.600 C 267.936 397.380,269.567 397.200,271.424 397.200 C 273.408 397.200,274.800 397.035,274.800 396.800 C 274.800 396.574,275.933 396.400,277.400 396.400 C 278.830 396.400,280.000 396.235,280.000 396.034 C 280.000 395.833,281.125 395.567,282.500 395.444 C 288.294 394.925,289.820 394.710,290.180 394.365 C 290.389 394.164,291.514 394.000,292.680 394.000 C 293.846 394.000,294.800 393.820,294.800 393.600 C 294.800 393.380,295.700 393.200,296.800 393.200 C 297.900 393.200,298.800 393.020,298.800 392.800 C 298.800 392.580,299.599 392.400,300.576 392.400 C 301.553 392.400,302.451 392.241,302.571 392.047 C 302.691 391.853,303.959 391.569,305.390 391.416 C 306.821 391.263,308.075 391.002,308.177 390.837 C 308.279 390.672,309.361 390.297,310.581 390.004 C 311.802 389.712,312.800 389.321,312.800 389.136 C 312.800 388.951,313.239 388.800,313.776 388.800 C 314.313 388.800,314.864 388.620,315.000 388.400 C 315.136 388.180,315.777 388.000,316.424 388.000 C 317.071 388.000,317.600 387.820,317.600 387.600 C 317.600 387.380,317.960 387.200,318.400 387.200 C 318.840 387.200,319.200 387.020,319.200 386.800 C 319.200 386.580,319.549 386.400,319.976 386.400 C 320.403 386.400,320.864 386.220,321.000 386.000 C 321.136 385.780,321.582 385.600,321.990 385.600 C 322.399 385.600,322.793 385.465,322.867 385.300 C 323.034 384.924,325.164 383.625,326.100 383.329 C 326.485 383.207,326.800 382.948,326.800 382.753 C 326.800 382.559,327.120 382.400,327.512 382.400 C 327.903 382.400,328.483 382.040,328.800 381.600 C 329.117 381.160,329.625 380.800,329.928 380.800 C 330.231 380.800,330.983 380.260,331.600 379.600 C 332.217 378.940,332.923 378.400,333.169 378.400 C 333.656 378.400,339.303 372.798,340.600 371.028 C 341.040 370.427,341.625 369.693,341.900 369.396 C 342.175 369.100,342.400 368.574,342.400 368.229 C 342.400 367.883,342.580 367.600,342.800 367.600 C 343.020 367.600,343.200 367.240,343.200 366.800 C 343.200 366.360,343.380 366.000,343.600 366.000 C 343.820 366.000,344.000 365.640,344.000 365.200 C 344.000 364.760,344.180 364.400,344.400 364.400 C 344.620 364.400,344.800 363.860,344.800 363.200 C 344.800 362.540,344.980 362.000,345.200 362.000 C 345.420 362.000,345.600 361.190,345.600 360.200 C 345.600 359.210,345.420 358.400,345.200 358.400 C 344.980 358.400,344.800 358.117,344.800 357.771 C 344.800 356.604,343.719 356.000,341.629 356.000 C 340.513 356.000,339.600 356.180,339.600 356.400 " stroke="none" fill="#74a4fc" fill-rule="evenodd"></path><path id="path1" d="M234.861 0.747 C 233.933 1.552,233.591 5.300,234.400 5.800 C 234.646 5.952,234.800 9.204,234.800 14.224 C 234.800 19.408,234.654 22.400,234.400 22.400 C 234.180 22.400,234.000 23.379,234.000 24.576 C 234.000 25.773,233.820 26.864,233.600 27.000 C 233.380 27.136,233.200 28.047,233.200 29.024 C 233.200 30.001,233.020 30.800,232.800 30.800 C 232.580 30.800,232.400 31.340,232.400 32.000 C 232.400 32.660,232.220 33.200,232.000 33.200 C 231.780 33.200,231.600 33.652,231.600 34.205 C 231.600 34.758,231.432 35.523,231.227 35.905 C 231.021 36.287,230.622 37.455,230.339 38.500 C 230.057 39.545,229.685 40.400,229.513 40.400 C 229.341 40.400,229.200 40.760,229.200 41.200 C 229.200 41.640,229.020 42.000,228.800 42.000 C 228.580 42.000,228.400 42.360,228.400 42.800 C 228.400 43.240,228.220 43.600,228.000 43.600 C 227.780 43.600,227.600 43.853,227.600 44.163 C 227.600 44.850,224.793 50.147,224.331 50.333 C 224.149 50.407,224.000 50.729,224.000 51.049 C 224.000 51.849,214.462 61.200,213.646 61.200 C 213.466 61.200,212.754 61.740,212.063 62.400 C 211.372 63.060,210.710 63.600,210.590 63.600 C 210.471 63.600,209.743 64.230,208.973 65.000 C 208.203 65.770,207.408 66.400,207.205 66.400 C 207.002 66.400,206.386 66.850,205.836 67.400 C 205.286 67.950,204.647 68.400,204.415 68.400 C 204.183 68.400,203.428 68.940,202.737 69.600 C 202.046 70.260,201.278 70.800,201.029 70.800 C 200.780 70.800,200.317 71.160,200.000 71.600 C 199.683 72.040,199.175 72.400,198.872 72.400 C 198.569 72.400,197.817 72.940,197.200 73.600 C 196.583 74.260,195.791 74.800,195.440 74.800 C 195.088 74.800,194.800 74.941,194.800 75.114 C 194.800 75.286,194.215 75.769,193.500 76.185 C 192.785 76.602,191.909 77.271,191.553 77.672 C 191.197 78.072,190.701 78.400,190.449 78.400 C 190.198 78.400,189.428 78.940,188.737 79.600 C 188.046 80.260,187.278 80.800,187.029 80.800 C 186.780 80.800,186.317 81.160,186.000 81.600 C 185.683 82.040,185.175 82.400,184.872 82.400 C 184.569 82.400,183.817 82.940,183.200 83.600 C 182.583 84.260,181.903 84.800,181.688 84.800 C 181.473 84.800,180.555 85.520,179.648 86.400 C 178.741 87.280,177.881 88.000,177.737 88.000 C 177.593 88.000,176.767 88.723,175.901 89.606 C 175.035 90.489,173.511 91.773,172.514 92.459 C 170.548 93.812,160.800 103.384,160.800 103.962 C 160.800 104.281,159.989 105.278,157.609 107.886 C 157.164 108.373,156.800 108.918,156.800 109.097 C 156.800 109.277,156.440 109.683,156.000 110.000 C 155.560 110.317,155.200 110.857,155.200 111.200 C 155.200 111.543,154.840 112.083,154.400 112.400 C 153.960 112.717,153.600 113.162,153.599 113.388 C 153.599 113.615,153.059 114.430,152.400 115.200 C 151.741 115.970,151.201 116.825,151.201 117.100 C 151.200 117.375,151.020 117.600,150.800 117.600 C 150.580 117.600,150.400 117.960,150.400 118.400 C 150.400 118.840,150.220 119.200,150.000 119.200 C 149.780 119.200,149.600 119.560,149.600 120.000 C 149.600 120.440,149.420 120.800,149.200 120.800 C 148.980 120.800,148.800 121.160,148.800 121.600 C 148.800 122.040,148.620 122.400,148.400 122.400 C 148.180 122.400,148.000 122.745,148.000 123.167 C 148.000 123.588,147.865 123.993,147.700 124.067 C 147.147 124.313,144.800 129.302,144.800 130.233 C 144.800 130.739,144.640 131.252,144.444 131.373 C 144.249 131.494,143.974 132.269,143.834 133.096 C 143.693 133.923,143.375 135.770,143.127 137.200 C 142.381 141.491,142.757 153.679,143.652 154.232 C 143.843 154.350,144.000 155.146,144.000 156.000 C 144.000 156.854,144.180 157.664,144.400 157.800 C 144.620 157.936,144.800 158.577,144.800 159.224 C 144.800 159.871,144.980 160.400,145.200 160.400 C 145.420 160.400,145.600 160.940,145.600 161.600 C 145.600 162.260,145.780 162.800,146.000 162.800 C 146.220 162.800,146.400 163.340,146.400 164.000 C 146.400 164.660,146.580 165.200,146.800 165.200 C 147.020 165.200,147.200 165.472,147.200 165.805 C 147.200 166.138,147.362 166.723,147.559 167.105 C 147.757 167.487,148.697 169.420,149.648 171.400 C 150.600 173.380,151.699 175.291,152.089 175.647 C 152.480 176.003,152.800 176.588,152.800 176.947 C 152.800 177.306,152.980 177.600,153.200 177.600 C 153.420 177.600,153.600 177.960,153.600 178.400 C 153.600 178.840,153.750 179.200,153.932 179.200 C 154.115 179.200,154.520 179.695,154.832 180.300 C 155.145 180.905,155.715 181.749,156.100 182.175 C 156.485 182.602,156.800 183.147,156.800 183.387 C 156.800 183.627,157.160 184.083,157.600 184.400 C 158.040 184.717,158.400 185.215,158.400 185.505 C 158.400 186.095,161.110 189.895,162.139 190.749 C 162.503 191.051,162.800 191.468,162.800 191.675 C 162.800 191.882,163.700 192.929,164.800 194.000 C 165.900 195.071,166.800 196.137,166.800 196.369 C 166.800 196.928,182.626 212.800,183.184 212.800 C 183.422 212.800,184.591 213.774,185.782 214.965 C 186.972 216.155,188.319 217.247,188.773 217.392 C 189.228 217.536,189.600 217.822,189.600 218.027 C 189.600 218.909,193.614 218.422,194.618 217.418 C 195.643 216.393,196.115 212.000,195.200 212.000 C 194.980 212.000,194.800 211.640,194.800 211.200 C 194.800 210.760,194.620 210.400,194.400 210.400 C 194.180 210.400,194.000 210.040,194.000 209.600 C 194.000 209.160,193.820 208.800,193.600 208.800 C 193.380 208.800,193.200 208.530,193.200 208.200 C 193.200 207.870,193.020 207.600,192.800 207.600 C 192.580 207.600,192.400 207.251,192.400 206.824 C 192.400 206.397,192.220 205.936,192.000 205.800 C 191.780 205.664,191.599 205.158,191.598 204.676 C 191.596 204.194,191.326 203.284,190.998 202.654 C 190.669 202.024,190.400 201.259,190.400 200.954 C 190.400 200.649,190.220 200.400,190.000 200.400 C 189.780 200.400,189.600 200.128,189.600 199.795 C 189.600 199.462,189.420 198.832,189.200 198.395 C 188.980 197.958,188.620 197.242,188.400 196.805 C 188.180 196.368,188.000 195.738,188.000 195.405 C 188.000 195.072,187.820 194.800,187.600 194.800 C 187.380 194.800,187.200 194.350,187.200 193.800 C 187.200 193.250,187.053 192.800,186.872 192.800 C 186.692 192.800,186.300 191.900,186.000 190.800 C 185.700 189.700,185.308 188.800,185.128 188.800 C 184.947 188.800,184.800 188.260,184.800 187.600 C 184.800 186.940,184.620 186.400,184.400 186.400 C 184.180 186.400,184.000 185.961,184.000 185.424 C 184.000 184.887,183.820 184.336,183.600 184.200 C 183.380 184.064,183.200 183.513,183.200 182.976 C 183.200 182.439,183.020 182.000,182.800 182.000 C 182.580 182.000,182.400 181.561,182.400 181.024 C 182.400 180.487,182.220 179.936,182.000 179.800 C 181.780 179.664,181.600 179.113,181.600 178.576 C 181.600 178.039,181.420 177.600,181.200 177.600 C 180.980 177.600,180.800 176.970,180.800 176.200 C 180.800 175.430,180.620 174.800,180.400 174.800 C 180.180 174.800,180.000 174.260,180.000 173.600 C 180.000 172.940,179.820 172.400,179.600 172.400 C 179.380 172.400,179.200 171.680,179.200 170.800 C 179.200 169.920,179.020 169.200,178.800 169.200 C 178.580 169.200,178.400 168.570,178.400 167.800 C 178.400 167.030,178.220 166.400,178.000 166.400 C 177.780 166.400,177.600 165.691,177.600 164.824 C 177.600 163.957,177.420 163.136,177.200 163.000 C 176.980 162.864,176.800 161.953,176.800 160.976 C 176.800 159.999,176.620 159.200,176.400 159.200 C 176.178 159.200,176.000 158.144,176.000 156.833 C 176.000 155.446,175.815 154.405,175.553 154.318 C 174.878 154.093,174.826 137.926,175.500 137.700 C 175.775 137.609,176.000 137.098,176.000 136.567 C 176.000 136.035,176.180 135.600,176.400 135.600 C 176.620 135.600,176.800 135.280,176.800 134.888 C 176.800 134.497,177.160 133.917,177.600 133.600 C 178.040 133.283,178.400 132.793,178.400 132.512 C 178.400 132.231,179.120 131.259,180.000 130.352 C 180.880 129.445,181.600 128.531,181.600 128.320 C 181.600 127.941,182.700 126.861,187.022 123.000 C 188.253 121.900,190.594 119.695,192.224 118.100 C 193.854 116.505,195.352 115.200,195.553 115.200 C 195.754 115.200,196.838 114.300,197.961 113.200 C 199.085 112.100,200.156 111.200,200.343 111.200 C 200.529 111.200,201.203 110.703,201.841 110.095 C 202.478 109.487,203.720 108.458,204.600 107.809 C 206.588 106.342,209.275 104.073,211.491 101.990 C 212.421 101.115,213.350 100.400,213.556 100.400 C 213.762 100.400,214.985 99.361,216.275 98.092 C 217.564 96.822,219.245 95.342,220.010 94.802 C 221.872 93.488,237.200 78.111,237.200 77.557 C 237.200 77.317,237.696 76.644,238.301 76.060 C 239.787 74.630,241.600 72.164,241.600 71.574 C 241.600 71.310,241.916 70.803,242.303 70.447 C 242.689 70.091,243.260 69.305,243.570 68.700 C 243.881 68.095,244.285 67.600,244.468 67.600 C 244.650 67.600,244.800 67.240,244.800 66.800 C 244.800 66.360,244.980 66.000,245.200 66.000 C 245.420 66.000,245.600 65.640,245.600 65.200 C 245.600 64.760,245.780 64.400,246.000 64.400 C 246.220 64.400,246.400 64.040,246.400 63.600 C 246.400 63.160,246.580 62.800,246.800 62.800 C 247.020 62.800,247.200 62.440,247.200 62.000 C 247.200 61.560,247.380 61.200,247.600 61.200 C 247.820 61.200,248.000 60.840,248.000 60.400 C 248.000 59.960,248.180 59.600,248.400 59.600 C 248.620 59.600,248.800 59.161,248.800 58.624 C 248.800 58.087,248.980 57.536,249.200 57.400 C 249.420 57.264,249.600 56.713,249.600 56.176 C 249.600 55.639,249.780 55.200,250.000 55.200 C 250.220 55.200,250.400 54.581,250.400 53.824 C 250.400 53.067,250.580 52.336,250.800 52.200 C 251.020 52.064,251.200 51.243,251.200 50.376 C 251.200 49.509,251.380 48.800,251.600 48.800 C 251.821 48.800,252.000 47.760,252.000 46.480 C 252.000 45.204,252.190 43.970,252.422 43.738 C 253.138 43.022,252.318 26.400,251.567 26.400 C 251.365 26.400,251.200 25.500,251.200 24.400 C 251.200 23.300,251.020 22.400,250.800 22.400 C 250.580 22.400,250.400 21.860,250.400 21.200 C 250.400 20.540,250.220 20.000,250.000 20.000 C 249.780 20.000,249.600 19.460,249.600 18.800 C 249.600 18.140,249.420 17.600,249.200 17.600 C 248.980 17.600,248.800 17.071,248.800 16.424 C 248.800 15.777,248.620 15.136,248.400 15.000 C 248.180 14.864,248.000 14.313,248.000 13.776 C 248.000 13.239,247.820 12.800,247.600 12.800 C 247.380 12.800,247.200 12.350,247.200 11.800 C 247.200 11.250,247.020 10.800,246.800 10.800 C 246.580 10.800,246.400 10.440,246.400 10.000 C 246.400 9.560,246.220 9.200,246.000 9.200 C 245.780 9.200,245.600 8.840,245.600 8.400 C 245.600 7.960,245.420 7.600,245.200 7.600 C 244.980 7.600,244.800 7.240,244.800 6.800 C 244.800 6.360,244.620 6.000,244.400 6.000 C 244.180 6.000,244.000 5.640,244.000 5.200 C 244.000 4.760,243.820 4.400,243.600 4.400 C 243.380 4.400,243.200 4.164,243.200 3.875 C 243.200 3.587,242.840 2.964,242.400 2.492 C 241.960 2.020,241.600 1.375,241.600 1.060 C 241.600 -0.250,236.294 -0.496,234.861 0.747 M270.800 82.800 C 270.800 83.020,270.440 83.200,270.000 83.200 C 269.560 83.200,269.200 83.380,269.200 83.600 C 269.200 83.820,268.840 84.000,268.400 84.000 C 267.960 84.000,267.600 84.180,267.600 84.400 C 267.600 84.620,267.060 84.800,266.400 84.800 C 265.740 84.800,265.200 84.980,265.200 85.200 C 265.200 85.420,264.840 85.600,264.400 85.600 C 263.960 85.600,263.600 85.780,263.600 86.000 C 263.600 86.220,263.328 86.400,262.995 86.400 C 262.662 86.400,262.077 86.568,261.695 86.774 C 261.313 86.979,260.415 87.383,259.700 87.671 C 258.985 87.960,258.400 88.331,258.400 88.498 C 258.400 88.664,258.040 88.800,257.600 88.800 C 257.160 88.800,256.800 88.980,256.800 89.200 C 256.800 89.420,256.440 89.600,256.000 89.600 C 255.560 89.600,255.200 89.780,255.200 90.000 C 255.200 90.220,254.840 90.400,254.400 90.400 C 253.960 90.400,253.600 90.580,253.600 90.800 C 253.600 91.020,253.358 91.200,253.061 91.200 C 252.560 91.200,250.717 91.957,249.105 92.826 C 248.723 93.032,248.138 93.200,247.805 93.200 C 247.472 93.200,247.200 93.380,247.200 93.600 C 247.200 93.820,246.840 94.000,246.400 94.000 C 245.960 94.000,245.600 94.146,245.600 94.325 C 245.600 94.504,244.970 94.898,244.200 95.200 C 243.430 95.502,242.800 95.896,242.800 96.075 C 242.800 96.254,242.564 96.400,242.275 96.400 C 241.987 96.400,241.364 96.760,240.892 97.200 C 240.420 97.640,239.756 98.000,239.417 98.000 C 239.078 98.000,238.800 98.180,238.800 98.400 C 238.800 98.620,238.440 98.800,238.000 98.800 C 237.560 98.800,237.200 98.980,237.200 99.200 C 237.200 99.420,236.922 99.600,236.583 99.600 C 236.244 99.600,235.580 99.960,235.108 100.400 C 234.636 100.840,234.013 101.200,233.725 101.200 C 233.436 101.200,233.200 101.380,233.200 101.600 C 233.200 101.820,232.922 102.000,232.583 102.000 C 232.244 102.000,231.580 102.360,231.108 102.800 C 230.636 103.240,230.013 103.600,229.725 103.600 C 229.436 103.600,229.200 103.780,229.200 104.000 C 229.200 104.220,228.930 104.400,228.600 104.400 C 228.270 104.400,228.000 104.580,228.000 104.800 C 228.000 105.020,227.730 105.200,227.400 105.200 C 227.070 105.200,226.800 105.380,226.800 105.600 C 226.800 105.820,226.618 106.000,226.396 106.000 C 226.174 106.000,225.428 106.540,224.737 107.200 C 224.046 107.860,223.266 108.400,223.002 108.400 C 222.738 108.400,222.107 108.760,221.600 109.200 C 221.093 109.640,220.533 110.000,220.357 110.000 C 220.181 110.000,219.623 110.409,219.118 110.909 C 218.613 111.408,217.570 112.257,216.800 112.793 C 216.030 113.330,214.923 114.271,214.340 114.885 C 213.756 115.498,213.155 116.000,213.003 116.000 C 212.557 116.000,206.000 122.764,206.000 123.225 C 206.000 123.456,205.100 124.508,204.000 125.563 C 202.900 126.617,202.000 127.687,202.000 127.940 C 202.000 128.193,201.820 128.400,201.600 128.400 C 201.380 128.400,201.200 128.636,201.200 128.925 C 201.200 129.213,200.840 129.836,200.400 130.308 C 199.960 130.780,199.600 131.367,199.600 131.612 C 199.600 131.857,199.321 132.336,198.980 132.677 C 198.640 133.018,198.257 133.815,198.130 134.448 C 198.004 135.082,197.743 135.600,197.550 135.600 C 197.358 135.600,197.200 136.039,197.200 136.576 C 197.200 137.113,197.020 137.664,196.800 137.800 C 196.580 137.936,196.400 138.397,196.400 138.824 C 196.400 139.251,196.220 139.600,196.000 139.600 C 195.780 139.600,195.600 140.500,195.600 141.600 C 195.600 142.752,195.419 143.600,195.173 143.600 C 194.884 143.600,194.818 144.802,194.969 147.300 C 195.092 149.335,195.297 152.710,195.424 154.800 C 195.551 156.890,195.822 158.771,196.027 158.980 C 196.232 159.189,196.400 160.314,196.400 161.480 C 196.400 162.646,196.560 163.600,196.756 163.600 C 196.952 163.600,197.222 164.230,197.356 165.000 C 197.490 165.770,197.710 167.030,197.844 167.800 C 197.978 168.570,198.248 169.200,198.444 169.200 C 198.640 169.200,198.800 169.639,198.800 170.176 C 198.800 170.713,198.980 171.264,199.200 171.400 C 199.420 171.536,199.600 171.997,199.600 172.424 C 199.600 172.851,199.780 173.200,200.000 173.200 C 200.220 173.200,200.400 173.650,200.400 174.200 C 200.400 174.750,200.580 175.200,200.800 175.200 C 201.020 175.200,201.200 175.560,201.200 176.000 C 201.200 176.440,201.380 176.800,201.600 176.800 C 201.820 176.800,202.000 177.036,202.000 177.325 C 202.000 177.613,202.360 178.236,202.800 178.708 C 203.240 179.180,203.600 179.844,203.600 180.183 C 203.600 180.522,203.780 180.800,204.000 180.800 C 204.220 180.800,204.400 181.120,204.400 181.512 C 204.400 181.903,204.760 182.483,205.200 182.800 C 205.640 183.117,206.000 183.657,206.000 184.000 C 206.000 184.343,206.360 184.883,206.800 185.200 C 207.240 185.517,207.600 186.097,207.600 186.488 C 207.600 186.880,207.735 187.201,207.900 187.203 C 208.065 187.204,208.650 187.870,209.200 188.683 C 209.750 189.496,210.785 190.749,211.500 191.467 C 212.215 192.186,212.800 192.977,212.800 193.226 C 212.800 193.475,213.340 194.183,214.000 194.800 C 214.660 195.417,215.200 196.092,215.200 196.301 C 215.200 196.510,215.740 197.246,216.400 197.937 C 217.060 198.628,217.600 199.464,217.600 199.796 C 217.600 200.128,217.780 200.400,218.000 200.400 C 218.220 200.400,218.400 200.760,218.400 201.200 C 218.400 201.640,218.580 202.000,218.800 202.000 C 219.041 202.000,219.200 203.667,219.200 206.200 C 219.200 208.733,219.041 210.400,218.800 210.400 C 218.580 210.400,218.400 211.300,218.400 212.400 C 218.400 213.500,218.220 214.400,218.000 214.400 C 217.780 214.400,217.600 214.940,217.600 215.600 C 217.600 216.260,217.420 216.800,217.200 216.800 C 216.980 216.800,216.800 217.340,216.800 218.000 C 216.800 218.660,216.620 219.200,216.400 219.200 C 216.180 219.200,216.000 219.740,216.000 220.400 C 216.000 221.060,215.820 221.600,215.600 221.600 C 215.380 221.600,215.200 222.140,215.200 222.800 C 215.200 223.460,215.020 224.000,214.800 224.000 C 214.580 224.000,214.400 224.360,214.400 224.800 C 214.400 225.240,214.220 225.600,214.000 225.600 C 213.780 225.600,213.600 226.039,213.600 226.576 C 213.600 227.113,213.420 227.664,213.200 227.800 C 212.980 227.936,212.800 228.667,212.800 229.424 C 212.800 230.181,212.980 230.800,213.200 230.800 C 213.420 230.800,213.601 231.115,213.603 231.500 C 213.607 232.349,215.307 233.200,217.000 233.200 C 218.313 233.200,220.392 232.405,220.397 231.900 C 220.399 231.735,220.598 231.600,220.840 231.600 C 221.081 231.600,221.783 231.060,222.400 230.400 C 223.017 229.740,223.632 229.200,223.768 229.200 C 223.904 229.200,224.957 228.297,226.108 227.194 C 227.259 226.090,229.284 224.155,230.610 222.894 C 231.935 221.632,233.456 219.970,233.991 219.200 C 234.525 218.430,235.286 217.509,235.681 217.153 C 236.076 216.797,236.400 216.347,236.401 216.153 C 236.401 215.959,236.941 215.170,237.600 214.400 C 238.259 213.630,238.799 212.857,238.799 212.683 C 238.800 212.509,239.160 211.980,239.600 211.508 C 240.040 211.036,240.400 210.413,240.400 210.125 C 240.400 209.836,240.572 209.600,240.782 209.600 C 240.992 209.600,241.282 208.970,241.426 208.200 C 241.571 207.430,241.849 206.800,242.045 206.800 C 242.240 206.800,242.400 206.440,242.400 206.000 C 242.400 205.560,242.580 205.200,242.800 205.200 C 243.020 205.200,243.200 204.851,243.200 204.424 C 243.200 203.997,243.380 203.536,243.600 203.400 C 243.820 203.264,244.000 202.533,244.000 201.776 C 244.000 201.019,244.180 200.400,244.400 200.400 C 244.620 200.400,244.800 199.680,244.800 198.800 C 244.800 197.920,244.980 197.200,245.200 197.200 C 245.451 197.200,245.600 194.733,245.600 190.600 C 245.600 186.467,245.451 184.000,245.200 184.000 C 244.980 184.000,244.800 183.471,244.800 182.824 C 244.800 182.177,244.620 181.536,244.400 181.400 C 244.180 181.264,244.000 180.533,244.000 179.776 C 244.000 179.019,243.820 178.400,243.600 178.400 C 243.380 178.400,243.200 177.950,243.200 177.400 C 243.200 176.850,243.020 176.400,242.800 176.400 C 242.580 176.400,242.400 176.040,242.400 175.600 C 242.400 175.160,242.236 174.800,242.035 174.800 C 241.834 174.800,241.549 174.080,241.400 173.200 C 241.251 172.320,240.966 171.600,240.765 171.600 C 240.564 171.600,240.400 171.240,240.400 170.800 C 240.400 170.360,240.220 170.000,240.000 170.000 C 239.780 170.000,239.600 169.640,239.600 169.200 C 239.600 168.760,239.420 168.400,239.200 168.400 C 238.980 168.400,238.800 168.164,238.800 167.875 C 238.800 167.587,238.440 166.964,238.000 166.492 C 237.560 166.020,237.200 165.396,237.200 165.105 C 237.200 164.814,236.840 164.317,236.400 164.000 C 235.960 163.683,235.600 163.169,235.600 162.859 C 235.600 162.548,235.284 162.003,234.897 161.647 C 234.511 161.291,233.942 160.508,233.633 159.907 C 233.325 159.305,232.741 158.458,232.336 158.023 C 231.931 157.589,231.600 156.996,231.600 156.705 C 231.600 156.414,231.240 155.917,230.800 155.600 C 230.360 155.283,230.000 154.703,230.000 154.312 C 230.000 153.920,229.820 153.600,229.600 153.600 C 229.380 153.600,229.200 153.240,229.200 152.800 C 229.200 152.360,229.020 152.000,228.800 152.000 C 228.580 152.000,228.400 151.651,228.400 151.224 C 228.400 150.797,228.220 150.336,228.000 150.200 C 227.780 150.064,227.600 149.524,227.600 149.000 C 227.600 148.476,227.420 147.936,227.200 147.800 C 226.980 147.664,226.800 146.134,226.800 144.400 C 226.800 142.666,226.980 141.136,227.200 141.000 C 227.420 140.864,227.600 140.133,227.600 139.376 C 227.600 138.619,227.780 138.000,228.000 138.000 C 228.220 138.000,228.400 137.640,228.400 137.200 C 228.400 136.760,228.580 136.400,228.800 136.400 C 229.020 136.400,229.200 136.040,229.200 135.600 C 229.200 135.160,229.380 134.800,229.600 134.800 C 229.820 134.800,230.000 134.440,230.000 134.000 C 230.000 133.560,230.180 133.200,230.400 133.200 C 230.620 133.200,230.800 132.880,230.800 132.488 C 230.800 132.097,231.160 131.517,231.600 131.200 C 232.040 130.883,232.400 130.420,232.400 130.171 C 232.400 129.922,232.940 129.154,233.600 128.463 C 234.260 127.772,234.800 127.057,234.800 126.872 C 234.800 126.378,250.690 110.400,251.181 110.400 C 251.411 110.400,251.600 110.220,251.600 110.000 C 251.600 109.780,251.795 109.600,252.034 109.600 C 252.272 109.600,253.433 108.678,254.613 107.552 C 255.793 106.426,257.173 105.218,257.679 104.868 C 258.186 104.519,259.261 103.550,260.069 102.716 C 260.876 101.882,261.700 101.200,261.898 101.200 C 262.096 101.200,263.222 100.300,264.400 99.200 C 265.578 98.100,266.704 97.200,266.902 97.200 C 267.100 97.200,267.954 96.480,268.800 95.600 C 269.646 94.720,270.496 94.000,270.690 94.000 C 270.885 94.000,271.731 93.370,272.572 92.600 C 273.413 91.830,274.223 91.200,274.372 91.200 C 276.735 91.200,278.525 85.784,276.954 83.386 C 276.273 82.346,270.800 81.825,270.800 82.800 " stroke="none" fill="#dc3b0c" fill-rule="evenodd"></path><path id="path2" d="" stroke="none" fill="#a86c100" fill-rule="evenodd"></path><path id="path3" d="" stroke="none" fill="#a86c100" fill-rule="evenodd"></path><path id="path4" d="" stroke="none" fill="#a86c100" fill-rule="evenodd"></path></g></svg>