<svg id="svg" version="1.1" xmlns="http://www.w3.org/2000/svg" xmlns:xlink="http://www.w3.org/1999/xlink" width="400" height="400" viewBox="0, 0, 400,400"><g id="svgg"><path id="path0" d="M72.400 199.992 L 72.400 296.385 73.300 296.603 C 73.795 296.724,82.390 296.772,92.400 296.711 L 110.600 296.600 110.800 260.000 L 111.000 223.400 134.600 223.149 C 167.724 222.796,175.756 221.929,186.200 217.577 C 189.541 216.184,194.903 213.268,195.133 212.719 C 195.207 212.543,195.488 212.400,195.758 212.400 C 196.028 212.400,196.599 212.085,197.026 211.700 C 197.453 211.315,198.814 210.231,200.050 209.291 C 202.149 207.695,206.580 203.092,207.949 201.086 C 208.282 200.599,208.666 200.110,208.803 200.000 C 209.311 199.593,211.600 196.042,211.600 195.661 C 211.600 195.444,211.758 195.207,211.951 195.133 C 213.284 194.628,217.639 182.739,218.740 176.600 C 222.100 157.881,217.178 133.156,208.428 124.800 C 208.083 124.470,206.596 122.835,205.124 121.167 C 202.127 117.770,197.104 113.647,193.673 111.767 C 192.423 111.082,190.770 110.171,190.000 109.742 C 189.230 109.314,187.790 108.715,186.800 108.412 C 185.810 108.109,184.829 107.712,184.620 107.530 C 184.411 107.349,183.837 107.200,183.344 107.200 C 182.851 107.200,182.348 107.039,182.226 106.842 C 182.105 106.645,181.329 106.383,180.503 106.258 C 179.676 106.133,177.920 105.832,176.600 105.588 C 168.575 104.105,154.015 103.677,110.300 103.636 L 72.400 103.600 72.400 199.992 M153.800 136.338 C 156.000 136.578,158.520 136.953,159.400 137.170 C 160.280 137.387,161.540 137.691,162.200 137.847 C 162.860 138.002,163.990 138.460,164.712 138.865 C 165.434 139.269,166.289 139.600,166.612 139.600 C 166.935 139.600,167.200 139.780,167.200 140.000 C 167.200 140.220,167.470 140.400,167.800 140.400 C 168.130 140.400,168.400 140.580,168.400 140.800 C 168.400 141.020,168.670 141.200,169.000 141.200 C 169.330 141.200,169.600 141.380,169.600 141.600 C 169.600 141.820,169.796 142.000,170.035 142.000 C 171.118 142.000,176.275 147.970,177.636 150.800 C 181.902 159.672,181.373 170.111,176.257 178.000 C 172.683 183.512,166.671 187.624,159.800 189.254 C 152.511 190.984,112.676 192.516,111.280 191.120 C 110.745 190.585,110.554 136.380,111.084 135.849 C 111.522 135.411,149.275 135.843,153.800 136.338 M297.200 154.390 C 296.870 154.609,296.116 154.791,295.524 154.794 C 294.932 154.797,294.336 154.980,294.200 155.200 C 294.064 155.420,293.648 155.604,293.276 155.608 C 290.537 155.640,282.955 161.438,279.357 166.252 C 278.721 167.103,277.981 168.032,277.714 168.315 C 277.447 168.598,276.913 169.363,276.528 170.015 C 276.143 170.667,275.686 171.200,275.514 171.200 C 275.341 171.200,275.200 171.425,275.200 171.700 C 275.199 171.975,274.749 172.723,274.200 173.362 C 273.650 174.001,273.200 174.664,273.200 174.834 C 273.200 175.266,272.021 176.400,271.571 176.400 C 271.353 176.400,271.200 172.441,271.200 166.800 L 271.200 157.200 254.399 157.200 L 237.598 157.200 237.699 226.900 L 237.800 296.600 255.883 296.704 L 273.967 296.808 274.158 262.104 C 274.339 229.274,274.553 222.162,275.587 214.600 C 275.827 212.840,276.126 210.590,276.251 209.600 C 276.376 208.610,276.640 207.629,276.839 207.420 C 277.037 207.211,277.200 206.547,277.200 205.944 C 277.200 205.341,277.380 204.736,277.600 204.600 C 277.820 204.464,278.000 203.924,278.000 203.400 C 278.000 202.876,278.180 202.336,278.400 202.200 C 278.620 202.064,278.800 201.699,278.800 201.388 C 278.800 197.829,284.863 190.485,289.600 188.307 C 293.371 186.573,300.821 185.812,304.200 186.817 C 308.353 188.052,313.274 190.049,314.000 190.795 C 314.421 191.227,316.085 192.048,316.236 191.897 C 316.417 191.716,318.564 185.887,319.439 183.200 C 319.761 182.210,320.200 181.087,320.413 180.705 C 320.626 180.323,320.800 179.684,320.800 179.285 C 320.800 178.886,320.949 178.389,321.130 178.180 C 321.312 177.971,321.705 176.990,322.002 176.000 C 322.300 175.010,322.659 174.020,322.800 173.800 C 322.941 173.580,323.300 172.590,323.598 171.600 C 323.895 170.610,324.288 169.629,324.470 169.420 C 324.651 169.211,324.800 168.714,324.800 168.315 C 324.800 167.613,324.951 167.214,325.938 165.305 C 326.192 164.813,326.400 164.084,326.400 163.685 C 326.400 163.286,326.595 162.765,326.834 162.526 C 327.960 161.400,327.047 160.239,323.800 158.666 C 322.040 157.813,320.287 156.955,319.905 156.758 C 319.523 156.561,318.859 156.400,318.429 156.400 C 317.999 156.400,317.549 156.241,317.429 156.046 C 317.308 155.851,316.713 155.590,316.105 155.464 C 315.497 155.339,314.100 155.022,313.000 154.760 C 310.421 154.146,298.006 153.856,297.200 154.390 " stroke="none" fill="#8b5ba3" fill-rule="evenodd"></path><path id="path1" d="M179.803 0.275 C 177.825 0.362,176.034 0.606,175.823 0.817 C 175.612 1.028,174.227 1.200,172.744 1.200 C 171.261 1.200,169.936 1.380,169.800 1.600 C 169.664 1.820,168.584 2.000,167.400 2.000 C 166.216 2.000,165.136 2.180,165.000 2.400 C 164.864 2.620,163.964 2.800,163.000 2.800 C 162.036 2.800,161.136 2.980,161.000 3.200 C 160.864 3.420,159.964 3.600,159.000 3.600 C 158.036 3.600,157.136 3.780,157.000 4.000 C 156.864 4.220,156.144 4.400,155.400 4.400 C 154.656 4.400,153.936 4.580,153.800 4.800 C 153.664 5.020,152.843 5.200,151.976 5.200 C 151.109 5.200,150.400 5.380,150.400 5.600 C 150.400 5.820,149.770 6.000,149.000 6.000 C 148.230 6.000,147.600 6.180,147.600 6.400 C 147.600 6.620,146.981 6.800,146.224 6.800 C 145.467 6.800,144.736 6.980,144.600 7.200 C 144.464 7.420,143.823 7.600,143.176 7.600 C 142.529 7.600,142.000 7.780,142.000 8.000 C 142.000 8.220,141.558 8.400,141.019 8.400 C 140.479 8.400,139.624 8.565,139.119 8.767 C 137.079 9.583,136.562 9.727,135.700 9.719 C 135.205 9.714,134.800 9.851,134.800 10.025 C 134.800 10.458,130.745 11.613,130.264 11.316 C 130.050 11.184,130.004 11.284,130.162 11.538 C 130.330 11.810,130.196 12.000,129.835 12.000 C 129.499 12.000,128.240 12.450,127.037 13.000 C 125.835 13.550,124.732 14.000,124.586 14.000 C 124.300 14.000,121.837 15.037,120.705 15.634 C 120.323 15.835,119.738 16.000,119.405 16.000 C 119.072 16.000,118.800 16.180,118.800 16.400 C 118.800 16.620,118.575 16.799,118.300 16.797 C 117.665 16.794,109.445 20.886,109.267 21.295 C 109.193 21.463,108.788 21.600,108.367 21.600 C 107.945 21.600,107.600 21.780,107.600 22.000 C 107.600 22.220,107.240 22.400,106.800 22.400 C 106.360 22.400,106.000 22.580,106.000 22.800 C 106.000 23.020,105.640 23.200,105.200 23.200 C 104.760 23.200,104.400 23.380,104.400 23.600 C 104.400 23.820,104.040 24.000,103.600 24.000 C 103.160 24.000,102.800 24.141,102.800 24.312 C 102.800 24.484,102.305 24.848,101.700 25.122 C 100.394 25.712,98.264 26.916,96.600 28.005 C 95.940 28.437,94.815 29.096,94.100 29.469 C 93.385 29.843,92.800 30.295,92.800 30.474 C 92.800 30.653,92.564 30.800,92.275 30.800 C 91.987 30.800,91.364 31.160,90.892 31.600 C 90.420 32.040,89.923 32.400,89.789 32.400 C 89.414 32.400,85.818 34.910,85.667 35.277 C 85.593 35.455,85.312 35.600,85.042 35.600 C 84.772 35.600,84.202 35.920,83.775 36.311 C 83.349 36.702,82.370 37.464,81.600 38.005 C 80.077 39.075,79.005 39.920,78.184 40.700 C 77.894 40.975,77.454 41.200,77.205 41.200 C 76.956 41.200,76.864 41.380,77.000 41.600 C 77.136 41.820,76.986 42.000,76.667 42.000 C 76.348 42.000,75.212 42.773,74.143 43.718 C 73.074 44.663,71.660 45.848,71.000 46.351 C 70.340 46.854,69.046 47.971,68.123 48.833 C 67.201 49.695,66.341 50.400,66.211 50.400 C 65.902 50.400,50.400 65.902,50.400 66.211 C 50.400 66.341,49.695 67.201,48.833 68.123 C 47.971 69.046,46.854 70.340,46.351 71.000 C 45.848 71.660,44.663 73.074,43.718 74.143 C 42.773 75.212,42.000 76.348,42.000 76.667 C 42.000 76.986,41.820 77.136,41.600 77.000 C 41.380 76.864,41.200 76.941,41.200 77.172 C 41.200 77.548,40.573 78.438,39.387 79.745 C 39.160 79.995,38.534 80.830,37.998 81.600 C 37.461 82.370,36.702 83.349,36.311 83.775 C 35.920 84.202,35.600 84.772,35.600 85.042 C 35.600 85.312,35.455 85.593,35.277 85.667 C 34.910 85.818,32.400 89.414,32.400 89.789 C 32.400 89.923,32.040 90.420,31.600 90.892 C 31.160 91.364,30.800 91.987,30.800 92.275 C 30.800 92.564,30.653 92.800,30.474 92.800 C 30.295 92.800,29.843 93.385,29.469 94.100 C 29.096 94.815,28.437 95.940,28.005 96.600 C 26.916 98.264,25.712 100.394,25.122 101.700 C 24.848 102.305,24.484 102.800,24.312 102.800 C 24.141 102.800,24.000 103.160,24.000 103.600 C 24.000 104.040,23.820 104.400,23.600 104.400 C 23.380 104.400,23.200 104.760,23.200 105.200 C 23.200 105.640,23.020 106.000,22.800 106.000 C 22.580 106.000,22.400 106.360,22.400 106.800 C 22.400 107.240,22.220 107.600,22.000 107.600 C 21.780 107.600,21.600 107.945,21.600 108.367 C 21.600 108.788,21.463 109.193,21.295 109.267 C 20.886 109.445,16.794 117.665,16.797 118.300 C 16.799 118.575,16.620 118.800,16.400 118.800 C 16.180 118.800,16.000 119.072,16.000 119.405 C 16.000 119.738,15.835 120.323,15.634 120.705 C 15.037 121.837,14.000 124.300,14.000 124.586 C 14.000 124.732,13.550 125.835,13.000 127.037 C 12.450 128.240,12.000 129.499,12.000 129.835 C 12.000 130.196,11.810 130.330,11.538 130.162 C 11.284 130.004,11.184 130.050,11.316 130.264 C 11.613 130.745,10.458 134.800,10.025 134.800 C 9.851 134.800,9.714 135.205,9.719 135.700 C 9.727 136.562,9.583 137.079,8.767 139.119 C 8.565 139.624,8.400 140.479,8.400 141.019 C 8.400 141.558,8.220 142.000,8.000 142.000 C 7.780 142.000,7.600 142.529,7.600 143.176 C 7.600 143.823,7.420 144.464,7.200 144.600 C 6.980 144.736,6.800 145.467,6.800 146.224 C 6.800 146.981,6.620 147.600,6.400 147.600 C 6.180 147.600,6.000 148.230,6.000 149.000 C 6.000 149.770,5.820 150.400,5.600 150.400 C 5.380 150.400,5.200 151.109,5.200 151.976 C 5.200 152.843,5.020 153.664,4.800 153.800 C 4.580 153.936,4.400 154.656,4.400 155.400 C 4.400 156.144,4.220 156.864,4.000 157.000 C 3.780 157.136,3.600 158.036,3.600 159.000 C 3.600 159.964,3.420 160.864,3.200 161.000 C 2.980 161.136,2.800 162.036,2.800 163.000 C 2.800 163.964,2.620 164.864,2.400 165.000 C 2.180 165.136,2.000 166.216,2.000 167.400 C 2.000 168.584,1.820 169.664,1.600 169.800 C 1.380 169.936,1.200 171.261,1.200 172.744 C 1.200 174.367,1.001 175.639,0.700 175.940 C 0.011 176.629,-0.032 223.191,0.655 224.039 C 0.906 224.347,1.222 225.860,1.358 227.400 C 1.850 232.987,2.080 234.607,2.437 234.980 C 2.637 235.189,2.800 236.123,2.800 237.056 C 2.800 237.989,2.980 238.864,3.200 239.000 C 3.420 239.136,3.600 240.036,3.600 241.000 C 3.600 241.964,3.780 242.864,4.000 243.000 C 4.220 243.136,4.400 243.957,4.400 244.824 C 4.400 245.691,4.580 246.400,4.800 246.400 C 5.020 246.400,5.200 247.109,5.200 247.976 C 5.200 248.843,5.380 249.664,5.600 249.800 C 5.820 249.936,6.000 250.577,6.000 251.224 C 6.000 251.871,6.180 252.400,6.400 252.400 C 6.620 252.400,6.800 253.019,6.800 253.776 C 6.800 254.533,6.980 255.264,7.200 255.400 C 7.420 255.536,7.600 256.177,7.600 256.824 C 7.600 257.471,7.780 258.000,8.000 258.000 C 8.220 258.000,8.400 258.442,8.400 258.981 C 8.400 259.521,8.565 260.376,8.767 260.881 C 9.583 262.921,9.727 263.438,9.719 264.300 C 9.714 264.795,9.851 265.200,10.025 265.200 C 10.458 265.200,11.613 269.255,11.316 269.736 C 11.184 269.950,11.284 269.996,11.538 269.838 C 11.810 269.670,12.000 269.804,12.000 270.165 C 12.000 270.501,12.454 271.769,13.009 272.981 C 13.563 274.194,14.126 275.730,14.259 276.393 C 14.391 277.057,14.657 277.600,14.850 277.600 C 15.043 277.600,15.200 277.853,15.200 278.162 C 15.200 278.471,15.539 279.416,15.954 280.262 C 16.369 281.108,17.288 283.060,17.997 284.600 C 18.705 286.140,19.547 287.850,19.867 288.400 C 20.187 288.950,20.549 289.715,20.671 290.100 C 20.793 290.485,21.052 290.800,21.247 290.800 C 21.441 290.800,21.600 291.160,21.600 291.600 C 21.600 292.040,21.780 292.400,22.000 292.400 C 22.220 292.400,22.400 292.760,22.400 293.200 C 22.400 293.640,22.580 294.000,22.800 294.000 C 23.020 294.000,23.200 294.360,23.200 294.800 C 23.200 295.240,23.380 295.600,23.600 295.600 C 23.820 295.600,24.000 295.960,24.000 296.400 C 24.000 296.840,24.141 297.200,24.312 297.200 C 24.484 297.200,24.839 297.695,25.102 298.300 C 25.826 299.967,27.805 303.330,29.386 305.580 C 30.164 306.687,30.800 307.692,30.800 307.814 C 30.800 308.187,34.916 314.191,35.270 314.333 C 35.451 314.407,35.600 314.688,35.600 314.958 C 35.600 315.228,35.922 315.798,36.317 316.225 C 36.711 316.651,37.607 317.810,38.308 318.800 C 41.162 322.832,48.160 331.473,49.683 332.847 C 50.077 333.203,50.400 333.604,50.400 333.738 C 50.400 334.090,65.063 348.630,67.808 351.000 C 69.083 352.100,70.322 353.183,70.563 353.406 C 70.803 353.629,71.810 354.437,72.800 355.202 C 73.790 355.966,75.048 356.999,75.596 357.496 C 76.144 357.993,76.701 358.400,76.835 358.400 C 76.968 358.400,77.441 358.715,77.885 359.100 C 78.330 359.485,79.212 360.189,79.847 360.665 C 80.481 361.141,81.857 362.176,82.903 362.965 C 83.950 363.754,84.970 364.400,85.170 364.400 C 85.370 364.400,85.593 364.549,85.667 364.730 C 85.854 365.194,91.873 369.200,92.382 369.200 C 92.612 369.200,92.800 369.368,92.800 369.573 C 92.800 369.778,93.161 370.061,93.602 370.201 C 94.043 370.341,94.898 370.868,95.502 371.373 C 96.106 371.878,97.050 372.429,97.600 372.599 C 98.150 372.769,98.690 373.019,98.800 373.154 C 99.125 373.554,100.519 374.394,101.700 374.902 C 102.305 375.162,102.800 375.516,102.800 375.688 C 102.800 375.859,103.160 376.000,103.600 376.000 C 104.040 376.000,104.400 376.180,104.400 376.400 C 104.400 376.620,104.760 376.800,105.200 376.800 C 105.640 376.800,106.000 376.980,106.000 377.200 C 106.000 377.420,106.360 377.600,106.800 377.600 C 107.240 377.600,107.600 377.780,107.600 378.000 C 107.600 378.220,107.945 378.400,108.367 378.400 C 108.788 378.400,109.193 378.537,109.267 378.705 C 109.445 379.114,117.665 383.206,118.300 383.203 C 118.575 383.201,118.800 383.380,118.800 383.600 C 118.800 383.820,119.149 384.000,119.576 384.000 C 120.003 384.000,120.464 384.180,120.600 384.400 C 120.736 384.620,121.197 384.800,121.624 384.800 C 122.051 384.800,122.400 384.941,122.400 385.113 C 122.400 385.285,123.255 385.671,124.300 385.971 C 125.345 386.271,126.380 386.646,126.600 386.805 C 127.134 387.191,132.541 389.148,134.818 389.780 C 135.819 390.058,137.079 390.521,137.618 390.810 C 138.158 391.099,138.600 391.290,138.600 391.235 C 138.600 391.039,141.011 391.654,141.695 392.024 C 142.077 392.231,142.831 392.400,143.371 392.400 C 143.911 392.400,144.464 392.580,144.600 392.800 C 144.736 393.020,145.467 393.200,146.224 393.200 C 146.981 393.200,147.600 393.380,147.600 393.600 C 147.600 393.820,148.129 394.000,148.776 394.000 C 149.423 394.000,150.064 394.180,150.200 394.400 C 150.336 394.620,151.157 394.800,152.024 394.800 C 152.891 394.800,153.600 394.980,153.600 395.200 C 153.600 395.420,154.309 395.600,155.176 395.600 C 156.043 395.600,156.864 395.780,157.000 396.000 C 157.136 396.220,158.047 396.400,159.024 396.400 C 160.001 396.400,160.800 396.580,160.800 396.800 C 160.800 397.020,161.700 397.200,162.800 397.200 C 163.900 397.200,164.800 397.380,164.800 397.600 C 164.800 397.822,165.859 398.000,167.176 398.000 C 168.483 398.000,169.664 398.180,169.800 398.400 C 170.143 398.955,173.200 398.910,173.200 398.350 C 173.200 398.102,150.610 375.309,123.000 347.699 C 95.390 320.089,72.800 297.433,72.800 297.353 C 72.800 297.273,81.485 297.161,92.100 297.104 L 111.400 297.000 111.502 260.700 L 111.604 224.400 128.902 224.353 C 138.416 224.328,147.370 224.160,148.800 223.981 C 150.423 223.778,147.868 223.720,142.000 223.827 C 136.830 223.921,127.785 223.999,121.900 223.999 L 111.200 224.000 111.200 260.400 L 111.200 296.800 91.399 296.800 L 71.598 296.800 71.699 199.900 L 71.800 103.000 108.400 102.870 C 143.547 102.746,156.977 103.003,169.000 104.028 C 175.440 104.578,182.139 105.749,182.980 106.473 C 183.189 106.653,183.686 106.800,184.085 106.800 C 184.484 106.800,185.168 106.980,185.605 107.200 C 186.042 107.420,186.758 107.780,187.195 108.000 C 187.632 108.220,188.307 108.404,188.695 108.409 C 189.083 108.414,189.850 108.770,190.400 109.200 C 190.950 109.630,191.610 109.986,191.867 109.991 C 192.123 109.996,192.393 110.135,192.467 110.300 C 192.540 110.465,193.578 111.113,194.773 111.741 C 197.595 113.223,202.987 117.740,205.677 120.876 C 206.845 122.238,208.250 123.826,208.800 124.406 C 209.350 124.987,209.863 125.628,209.940 125.831 C 210.017 126.034,210.255 126.151,210.470 126.090 C 210.684 126.030,210.738 126.176,210.591 126.415 C 210.443 126.655,210.591 127.154,210.920 127.525 C 211.900 128.629,214.190 132.858,215.727 136.400 C 216.285 137.688,217.251 140.500,218.337 144.000 L 218.771 145.400 218.553 144.000 C 217.950 140.126,213.791 130.508,211.500 127.690 C 211.272 127.410,211.179 127.087,211.294 126.973 C 211.408 126.859,218.040 133.298,226.032 141.283 L 240.563 155.800 238.981 155.920 C 238.106 155.987,237.177 156.334,236.900 156.697 C 236.373 157.388,236.120 295.204,236.643 296.567 C 236.860 297.134,238.860 297.190,255.743 297.104 L 274.600 297.008 255.900 296.900 L 237.200 296.792 237.200 226.820 C 237.200 171.281,237.303 156.780,237.700 156.524 C 238.290 156.142,269.183 155.809,270.618 156.169 L 271.600 156.415 271.600 165.584 C 271.600 174.503,271.778 175.832,272.804 174.596 C 273.104 174.234,273.135 174.000,272.882 174.000 C 272.654 174.000,272.376 174.225,272.265 174.500 C 272.154 174.775,272.049 171.085,272.032 166.300 C 272.014 161.515,272.139 157.600,272.309 157.600 C 272.479 157.600,274.143 159.133,276.007 161.007 C 279.833 164.853,279.749 164.121,276.841 168.264 C 274.743 171.252,276.246 169.615,279.177 165.719 C 286.847 155.524,299.364 151.030,312.000 153.935 C 316.636 155.001,317.812 155.329,318.180 155.659 C 318.389 155.847,318.837 156.000,319.177 156.000 C 321.163 156.000,328.062 160.099,327.838 161.145 C 327.655 161.998,327.697 162.080,328.058 161.572 C 328.432 161.047,334.131 166.578,363.230 195.710 C 382.381 214.883,398.144 230.358,398.377 230.214 C 398.610 230.070,398.800 228.739,398.800 227.256 C 398.800 225.633,398.999 224.361,399.300 224.060 C 399.689 223.671,399.800 218.315,399.800 200.000 C 399.800 181.685,399.689 176.329,399.300 175.940 C 398.999 175.639,398.800 174.367,398.800 172.744 C 398.800 171.261,398.620 169.936,398.400 169.800 C 398.180 169.664,398.000 168.483,398.000 167.176 C 398.000 165.859,397.822 164.800,397.600 164.800 C 397.380 164.800,397.200 163.900,397.200 162.800 C 397.200 161.700,397.020 160.800,396.800 160.800 C 396.580 160.800,396.400 160.001,396.400 159.024 C 396.400 158.047,396.220 157.136,396.000 157.000 C 395.780 156.864,395.600 156.043,395.600 155.176 C 395.600 154.309,395.420 153.600,395.200 153.600 C 394.980 153.600,394.800 152.891,394.800 152.024 C 394.800 151.157,394.620 150.336,394.400 150.200 C 394.180 150.064,394.000 149.423,394.000 148.776 C 394.000 148.129,393.820 147.600,393.600 147.600 C 393.380 147.600,393.200 146.981,393.200 146.224 C 393.200 145.467,393.020 144.736,392.800 144.600 C 392.580 144.464,392.400 143.911,392.400 143.371 C 392.400 142.831,392.231 142.077,392.024 141.695 C 391.694 141.084,391.355 139.846,391.178 138.600 C 391.147 138.380,390.933 137.848,390.703 137.418 C 390.473 136.989,390.058 135.819,389.780 134.818 C 389.148 132.541,387.191 127.134,386.805 126.600 C 386.646 126.380,386.271 125.345,385.971 124.300 C 385.671 123.255,385.285 122.400,385.113 122.400 C 384.941 122.400,384.800 122.051,384.800 121.624 C 384.800 121.197,384.620 120.736,384.400 120.600 C 384.180 120.464,384.000 120.003,384.000 119.576 C 384.000 119.149,383.820 118.800,383.600 118.800 C 383.380 118.800,383.201 118.575,383.203 118.300 C 383.206 117.665,379.114 109.445,378.705 109.267 C 378.537 109.193,378.400 108.788,378.400 108.367 C 378.400 107.945,378.220 107.600,378.000 107.600 C 377.780 107.600,377.600 107.240,377.600 106.800 C 377.600 106.360,377.420 106.000,377.200 106.000 C 376.980 106.000,376.800 105.640,376.800 105.200 C 376.800 104.760,376.620 104.400,376.400 104.400 C 376.180 104.400,376.000 104.040,376.000 103.600 C 376.000 103.160,375.859 102.800,375.688 102.800 C 375.516 102.800,375.162 102.305,374.902 101.700 C 374.394 100.519,373.554 99.125,373.154 98.800 C 373.019 98.690,372.769 98.150,372.599 97.600 C 372.429 97.050,371.878 96.106,371.373 95.502 C 370.868 94.898,370.341 94.043,370.201 93.602 C 370.061 93.161,369.778 92.800,369.573 92.800 C 369.368 92.800,369.200 92.612,369.200 92.382 C 369.200 91.873,365.194 85.854,364.730 85.667 C 364.549 85.593,364.400 85.370,364.400 85.170 C 364.400 84.970,363.754 83.950,362.965 82.903 C 362.176 81.857,361.141 80.481,360.665 79.847 C 360.189 79.212,359.485 78.330,359.100 77.885 C 358.715 77.441,358.400 76.968,358.400 76.835 C 358.400 76.701,357.993 76.144,357.496 75.596 C 356.999 75.048,355.966 73.790,355.202 72.800 C 354.437 71.810,353.629 70.803,353.406 70.563 C 353.183 70.322,352.100 69.083,351.000 67.808 C 348.630 65.063,334.090 50.400,333.738 50.400 C 333.604 50.400,333.203 50.077,332.847 49.683 C 331.473 48.160,322.832 41.162,318.800 38.308 C 317.810 37.607,316.651 36.711,316.225 36.317 C 315.798 35.922,315.228 35.600,314.958 35.600 C 314.688 35.600,314.407 35.451,314.333 35.270 C 314.191 34.916,308.187 30.800,307.814 30.800 C 307.692 30.800,306.687 30.164,305.580 29.386 C 303.330 27.805,299.967 25.826,298.300 25.102 C 297.695 24.839,297.200 24.484,297.200 24.312 C 297.200 24.141,296.840 24.000,296.400 24.000 C 295.960 24.000,295.600 23.820,295.600 23.600 C 295.600 23.380,295.240 23.200,294.800 23.200 C 294.360 23.200,294.000 23.020,294.000 22.800 C 294.000 22.580,293.640 22.400,293.200 22.400 C 292.760 22.400,292.400 22.220,292.400 22.000 C 292.400 21.780,292.040 21.600,291.600 21.600 C 291.160 21.600,290.800 21.441,290.800 21.247 C 290.800 21.052,290.485 20.793,290.100 20.671 C 289.715 20.549,288.950 20.187,288.400 19.867 C 287.850 19.547,286.140 18.705,284.600 17.997 C 283.060 17.288,281.108 16.369,280.262 15.954 C 279.416 15.539,278.471 15.200,278.162 15.200 C 277.853 15.200,277.600 15.042,277.600 14.850 C 277.600 14.657,277.057 14.391,276.393 14.259 C 275.730 14.126,274.194 13.563,272.981 13.009 C 271.769 12.454,270.501 12.000,270.165 12.000 C 269.804 12.000,269.670 11.810,269.838 11.538 C 269.996 11.284,269.950 11.184,269.736 11.316 C 269.255 11.613,265.200 10.458,265.200 10.025 C 265.200 9.851,264.795 9.714,264.300 9.719 C 263.438 9.727,262.921 9.583,260.881 8.767 C 260.376 8.565,259.521 8.400,258.981 8.400 C 258.442 8.400,258.000 8.220,258.000 8.000 C 258.000 7.780,257.471 7.600,256.824 7.600 C 256.177 7.600,255.536 7.420,255.400 7.200 C 255.264 6.980,254.533 6.800,253.776 6.800 C 253.019 6.800,252.400 6.620,252.400 6.400 C 252.400 6.180,251.871 6.000,251.224 6.000 C 250.577 6.000,249.936 5.820,249.800 5.600 C 249.664 5.380,248.843 5.200,247.976 5.200 C 247.109 5.200,246.400 5.020,246.400 4.800 C 246.400 4.580,245.691 4.400,244.824 4.400 C 243.957 4.400,243.136 4.220,243.000 4.000 C 242.864 3.780,241.964 3.600,241.000 3.600 C 240.036 3.600,239.136 3.420,239.000 3.200 C 238.864 2.980,237.989 2.800,237.056 2.800 C 236.123 2.800,235.189 2.637,234.980 2.437 C 234.607 2.080,232.987 1.850,227.400 1.358 C 225.860 1.222,224.357 0.914,224.061 0.674 C 223.525 0.239,187.860 -0.083,179.803 0.275 M111.297 163.300 L 111.400 190.600 127.900 190.607 L 144.400 190.613 128.000 190.502 L 111.600 190.391 111.600 163.333 L 111.600 136.275 130.700 136.459 C 141.205 136.560,148.180 136.518,146.200 136.364 C 144.220 136.210,135.534 136.066,126.897 136.042 L 111.194 136.000 111.297 163.300 M152.800 137.217 C 154.010 137.384,155.720 137.516,156.600 137.510 L 158.200 137.500 156.400 137.180 C 155.410 137.003,153.700 136.871,152.600 136.886 L 150.600 136.913 152.800 137.217 M159.600 138.000 C 159.930 138.213,160.470 138.388,160.800 138.388 C 161.333 138.388,161.333 138.345,160.800 138.000 C 160.470 137.787,159.930 137.612,159.600 137.612 C 159.067 137.612,159.067 137.655,159.600 138.000 M166.800 140.800 C 167.350 141.230,167.980 141.582,168.200 141.582 C 168.420 141.582,168.150 141.230,167.600 140.800 C 167.050 140.370,166.420 140.018,166.200 140.018 C 165.980 140.018,166.250 140.370,166.800 140.800 M170.000 142.452 C 170.000 142.764,174.497 147.236,174.653 147.080 C 174.722 147.011,173.704 145.890,172.390 144.590 C 171.075 143.289,170.000 142.327,170.000 142.452 M218.880 146.400 C 218.880 146.950,219.024 147.850,219.200 148.400 L 219.520 149.400 219.520 148.400 C 219.520 147.850,219.376 146.950,219.200 146.400 L 218.880 145.400 218.880 146.400 M175.516 148.662 C 176.002 149.356,176.400 150.121,176.400 150.362 C 176.400 150.603,176.590 150.800,176.823 150.800 C 177.310 150.800,176.086 148.568,175.216 147.869 C 174.894 147.611,175.029 147.968,175.516 148.662 M219.873 153.400 C 219.996 155.380,220.165 157.075,220.248 157.167 C 220.536 157.483,220.305 152.197,219.978 151.000 C 219.781 150.279,219.739 151.238,219.873 153.400 M178.834 156.600 C 178.822 157.040,178.987 157.670,179.200 158.000 C 179.714 158.795,179.714 157.796,179.200 156.600 L 178.856 155.800 178.834 156.600 M220.550 163.400 C 220.551 165.820,220.616 166.758,220.696 165.485 C 220.776 164.212,220.775 162.232,220.694 161.085 C 220.614 159.938,220.549 160.980,220.550 163.400 M179.724 163.400 C 179.726 164.720,179.801 165.212,179.890 164.493 C 179.979 163.774,179.977 162.694,179.886 162.093 C 179.795 161.492,179.722 162.080,179.724 163.400 M325.646 167.067 C 325.621 167.324,325.484 167.864,325.341 168.267 C 325.140 168.836,325.194 168.897,325.579 168.542 C 325.852 168.291,325.989 167.751,325.884 167.342 C 325.779 166.934,325.672 166.810,325.646 167.067 M179.049 168.615 C 178.912 168.973,178.816 169.656,178.836 170.133 C 178.862 170.747,178.985 170.608,179.259 169.656 C 179.657 168.272,179.494 167.458,179.049 168.615 M219.840 172.342 C 219.681 173.740,219.637 174.970,219.742 175.076 C 220.008 175.341,220.527 170.979,220.307 170.328 C 220.210 170.038,219.999 170.944,219.840 172.342 M273.669 172.439 C 272.910 173.654,273.366 173.816,274.155 172.612 C 274.520 172.056,274.678 171.600,274.505 171.600 C 274.333 171.600,273.957 171.978,273.669 172.439 M219.000 177.600 C 218.846 178.510,218.811 179.344,218.921 179.454 C 219.031 179.564,219.246 178.910,219.400 178.000 C 219.554 177.090,219.589 176.256,219.479 176.146 C 219.369 176.036,219.154 176.690,219.000 177.600 M174.777 178.700 C 172.982 181.176,172.773 181.718,174.280 179.984 C 175.405 178.689,176.599 176.800,176.291 176.800 C 176.216 176.800,175.534 177.655,174.777 178.700 M218.192 181.453 C 218.056 182.084,217.777 183.013,217.572 183.519 C 217.368 184.024,217.200 184.694,217.200 185.007 C 217.200 185.320,216.750 186.561,216.199 187.765 C 214.699 191.044,214.338 192.085,214.801 191.799 C 215.021 191.664,215.200 191.389,215.200 191.188 C 215.200 190.988,215.678 189.783,216.261 188.512 C 216.845 187.240,217.465 185.660,217.639 185.000 C 218.524 181.640,218.742 180.609,218.597 180.464 C 218.510 180.377,218.328 180.822,218.192 181.453 M320.600 181.200 C 320.450 181.673,320.417 182.150,320.527 182.260 C 320.637 182.370,320.850 182.073,321.000 181.600 C 321.150 181.127,321.183 180.650,321.073 180.540 C 320.963 180.430,320.750 180.727,320.600 181.200 M170.203 183.466 C 169.324 184.229,167.164 185.569,165.403 186.445 C 163.641 187.321,162.650 187.916,163.200 187.767 C 165.627 187.112,172.520 182.772,171.971 182.244 C 171.877 182.154,171.081 182.704,170.203 183.466 M319.040 185.643 C 316.903 192.316,316.703 192.659,315.302 192.054 L 314.200 191.578 315.193 192.361 C 315.877 192.900,316.335 193.020,316.664 192.747 C 317.237 192.271,319.712 185.578,319.422 185.288 C 319.310 185.177,319.139 185.336,319.040 185.643 M294.718 187.128 C 294.343 187.278,296.308 187.405,299.085 187.410 C 301.861 187.416,303.698 187.299,303.167 187.150 C 301.899 186.796,295.593 186.779,294.718 187.128 M305.200 188.000 C 305.530 188.213,306.070 188.388,306.400 188.388 C 306.933 188.388,306.933 188.345,306.400 188.000 C 306.070 187.787,305.530 187.612,305.200 187.612 C 304.667 187.612,304.667 187.655,305.200 188.000 M159.790 188.416 C 159.621 188.689,159.923 188.738,160.666 188.560 C 162.199 188.192,162.344 188.000,161.090 188.000 C 160.517 188.000,159.932 188.187,159.790 188.416 M288.726 189.214 C 287.915 189.642,287.146 190.164,287.016 190.373 C 286.831 190.674,290.076 189.081,290.767 188.532 C 291.296 188.112,289.981 188.551,288.726 189.214 M155.400 189.214 C 154.878 189.448,155.363 189.488,156.800 189.332 C 158.010 189.200,159.075 189.026,159.167 188.946 C 159.521 188.636,156.157 188.875,155.400 189.214 M147.000 190.000 C 145.325 190.426,148.012 190.436,151.400 190.015 L 153.800 189.718 151.000 189.706 C 149.460 189.700,147.660 189.832,147.000 190.000 M284.047 193.024 C 281.673 195.622,277.221 204.376,278.757 203.426 C 279.001 203.276,279.200 202.898,279.200 202.586 C 279.200 200.810,282.361 195.287,284.973 192.500 C 285.850 191.565,286.457 190.800,286.323 190.800 C 286.190 190.800,285.165 191.801,284.047 193.024 M213.647 193.273 C 213.360 193.733,212.778 194.726,212.355 195.480 C 211.931 196.234,211.297 197.335,210.945 197.926 L 210.305 199.000 211.135 198.000 C 211.591 197.450,212.191 196.550,212.468 196.000 C 212.745 195.450,213.312 194.495,213.729 193.877 C 214.146 193.259,214.416 192.682,214.328 192.595 C 214.241 192.508,213.935 192.813,213.647 193.273 M207.606 202.300 C 207.138 202.905,205.370 204.834,203.677 206.587 C 200.206 210.182,200.914 209.886,204.603 206.201 C 206.876 203.929,209.089 201.200,208.656 201.200 C 208.547 201.200,208.075 201.695,207.606 202.300 M278.046 204.267 C 278.021 204.524,277.884 205.064,277.741 205.467 C 277.540 206.036,277.594 206.097,277.979 205.742 C 278.252 205.491,278.389 204.951,278.284 204.542 C 278.179 204.134,278.072 204.010,278.046 204.267 M277.259 207.200 C 277.220 207.750,277.089 208.650,276.967 209.200 C 276.776 210.062,276.808 210.102,277.197 209.491 C 277.446 209.102,277.577 208.202,277.489 207.491 C 277.364 206.487,277.313 206.422,277.259 207.200 M199.605 210.194 C 198.707 211.276,193.580 214.495,189.226 216.710 C 186.902 217.893,185.450 218.738,186.000 218.587 C 189.132 217.730,200.988 210.455,200.328 209.794 C 200.210 209.677,199.885 209.857,199.605 210.194 M276.253 212.541 C 276.086 213.388,276.041 214.175,276.155 214.288 C 276.458 214.591,276.897 212.585,276.714 211.732 C 276.620 211.290,276.437 211.611,276.253 212.541 M275.676 217.844 C 275.634 218.528,275.505 219.968,275.390 221.044 C 275.215 222.666,275.252 222.832,275.607 222.018 C 275.843 221.478,275.971 220.038,275.893 218.818 C 275.815 217.598,275.717 217.160,275.676 217.844 M181.200 220.000 C 180.667 220.345,180.667 220.388,181.200 220.388 C 181.530 220.388,182.070 220.213,182.400 220.000 C 182.933 219.655,182.933 219.612,182.400 219.612 C 182.070 219.612,181.530 219.787,181.200 220.000 M178.200 220.800 L 177.400 221.144 178.200 221.144 C 178.640 221.144,179.360 220.989,179.800 220.800 L 180.600 220.456 179.800 220.456 C 179.360 220.456,178.640 220.611,178.200 220.800 M174.000 221.600 C 173.025 221.912,173.030 221.921,174.200 221.932 C 174.860 221.938,175.760 221.789,176.200 221.600 C 177.294 221.130,175.467 221.130,174.000 221.600 M168.400 222.400 L 167.000 222.695 168.600 222.719 C 169.480 222.733,170.560 222.589,171.000 222.400 C 172.042 221.952,170.526 221.952,168.400 222.400 M159.000 223.200 L 156.200 223.459 159.200 223.489 C 160.850 223.506,162.650 223.376,163.200 223.200 C 164.456 222.798,163.355 222.798,159.000 223.200 M274.611 234.478 C 274.458 238.945,274.393 243.770,274.467 245.200 C 274.540 246.630,274.753 243.063,274.940 237.273 C 275.126 231.483,275.191 226.658,275.084 226.551 C 274.977 226.444,274.764 230.011,274.611 234.478 M380.000 287.567 C 380.000 287.988,379.793 288.402,379.540 288.487 C 379.287 288.571,379.168 288.901,379.276 289.220 C 379.408 289.614,379.684 289.389,380.136 288.520 C 380.908 287.031,380.944 286.800,380.400 286.800 C 380.180 286.800,380.000 287.145,380.000 287.567 M371.493 303.203 C 370.471 304.764,370.387 305.314,371.329 304.285 C 372.022 303.526,372.880 301.946,372.697 301.764 C 372.610 301.677,372.068 302.324,371.493 303.203 M361.302 318.330 C 360.812 318.919,360.408 319.559,360.405 319.753 C 360.402 319.947,360.011 320.443,359.536 320.856 C 359.061 321.268,358.789 321.723,358.933 321.867 C 359.236 322.169,360.472 320.825,361.664 318.897 C 362.695 317.228,362.490 316.906,361.302 318.330 M348.500 334.223 C 347.911 334.863,347.862 335.200,348.357 335.200 C 348.698 335.200,349.337 333.996,349.109 333.783 C 349.049 333.727,348.775 333.925,348.500 334.223 M339.724 342.973 C 339.079 343.708,339.553 344.104,340.248 343.410 C 340.551 343.106,340.800 342.754,340.800 342.629 C 340.800 342.226,340.215 342.413,339.724 342.973 M337.289 345.427 C 336.567 346.182,336.143 346.800,336.346 346.800 C 336.761 346.800,339.200 344.611,339.200 344.240 C 339.200 343.710,338.534 344.124,337.289 345.427 M324.787 356.412 C 324.074 357.078,323.577 357.710,323.682 357.815 C 323.875 358.009,326.400 355.762,326.400 355.397 C 326.400 355.008,326.064 355.219,324.787 356.412 M312.800 365.572 C 312.800 365.777,312.395 366.002,311.900 366.073 C 311.338 366.153,311.172 366.313,311.458 366.498 C 311.710 366.662,312.340 366.443,312.858 366.011 C 313.376 365.580,313.575 365.221,313.300 365.213 C 313.025 365.206,312.800 365.367,312.800 365.572 M296.000 375.600 C 296.000 375.820,296.270 376.000,296.600 376.000 C 296.930 376.000,297.200 375.820,297.200 375.600 C 297.200 375.380,296.930 375.200,296.600 375.200 C 296.270 375.200,296.000 375.380,296.000 375.600 M175.600 398.953 C 175.600 399.308,177.218 399.494,177.423 399.162 C 177.546 398.963,177.187 398.800,176.624 398.800 C 176.061 398.800,175.600 398.869,175.600 398.953 " stroke="none" fill="#3b2b63" fill-rule="evenodd"></path><path id="path2" d="M132.856 10.459 C 132.117 10.672,131.587 10.920,131.679 11.012 C 131.881 11.214,134.800 10.437,134.800 10.181 C 134.800 9.946,134.482 9.991,132.856 10.459 M265.600 10.341 C 265.930 10.534,266.740 10.809,267.400 10.952 C 268.168 11.118,268.384 11.084,268.000 10.859 C 267.670 10.666,266.860 10.391,266.200 10.248 C 265.432 10.082,265.216 10.116,265.600 10.341 M97.200 27.102 C 97.200 27.269,96.705 27.630,96.100 27.906 C 95.495 28.182,94.550 28.777,94.000 29.228 L 93.000 30.048 94.350 29.324 C 97.289 27.748,97.600 27.543,97.600 27.178 C 97.600 26.970,97.510 26.800,97.400 26.800 C 97.290 26.800,97.200 26.936,97.200 27.102 M303.233 27.744 C 305.198 29.439,308.000 31.001,308.000 30.400 C 308.000 30.180,307.807 30.000,307.572 30.000 C 307.337 30.000,306.359 29.460,305.400 28.800 C 304.007 27.841,302.490 27.102,303.233 27.744 M78.900 39.398 C 78.157 40.242,78.294 40.473,79.200 39.907 C 79.640 39.632,80.000 39.271,80.000 39.104 C 80.000 38.627,79.449 38.775,78.900 39.398 M320.602 39.602 C 321.002 40.044,321.411 40.322,321.512 40.221 C 321.728 40.005,320.588 38.800,320.167 38.800 C 320.007 38.800,320.203 39.161,320.602 39.602 M72.614 44.480 C 71.616 45.059,69.859 46.802,70.282 46.794 C 70.626 46.788,73.931 44.032,73.600 44.027 C 73.490 44.026,73.046 44.230,72.614 44.480 M327.800 45.332 C 328.680 46.121,329.543 46.774,329.718 46.783 C 330.223 46.810,328.239 44.954,327.169 44.400 C 326.565 44.087,326.803 44.438,327.800 45.332 M66.629 49.409 C 66.205 49.729,65.968 50.102,66.103 50.236 C 66.237 50.370,66.753 50.102,67.249 49.640 C 68.269 48.690,67.807 48.518,66.629 49.409 M332.400 49.025 C 332.400 49.325,333.473 50.400,333.771 50.400 C 334.280 50.400,333.951 49.762,333.200 49.293 C 332.760 49.018,332.400 48.898,332.400 49.025 M349.251 65.898 C 350.213 67.122,350.833 67.700,351.003 67.530 C 351.217 67.317,349.401 65.200,349.004 65.200 C 348.838 65.200,348.949 65.514,349.251 65.898 M49.296 66.795 C 48.544 67.998,48.702 68.256,49.600 67.292 C 50.447 66.383,50.594 66.000,50.096 66.000 C 49.929 66.000,49.569 66.358,49.296 66.795 M45.747 70.991 C 44.870 71.901,43.831 73.600,44.152 73.600 C 44.432 73.600,46.916 70.380,46.748 70.235 C 46.667 70.165,46.216 70.505,45.747 70.991 M354.014 71.071 C 354.022 71.252,354.488 71.940,355.050 72.600 C 355.931 73.636,356.003 73.664,355.572 72.808 C 355.017 71.704,353.992 70.561,354.014 71.071 M357.200 74.983 C 357.200 75.143,357.560 75.731,358.000 76.291 C 358.440 76.850,358.800 77.177,358.800 77.017 C 358.800 76.857,358.440 76.269,358.000 75.709 C 357.560 75.150,357.200 74.823,357.200 74.983 M39.300 78.998 C 38.731 79.645,38.661 80.000,39.104 80.000 C 39.271 80.000,39.632 79.640,39.907 79.200 C 40.478 78.287,40.051 78.145,39.300 78.998 M360.093 79.200 C 360.562 79.951,361.200 80.280,361.200 79.771 C 361.200 79.473,360.125 78.400,359.825 78.400 C 359.698 78.400,359.818 78.760,360.093 79.200 M28.653 94.791 C 28.074 95.667,27.600 96.552,27.600 96.758 C 27.600 96.964,27.375 97.224,27.100 97.335 C 26.736 97.482,26.730 97.545,27.078 97.568 C 27.341 97.586,27.791 97.173,28.078 96.650 C 28.365 96.128,28.920 95.138,29.310 94.450 C 30.313 92.686,29.907 92.896,28.653 94.791 M370.563 94.329 C 370.884 94.950,371.460 95.715,371.842 96.029 C 372.234 96.352,372.049 95.861,371.415 94.900 C 370.132 92.955,369.704 92.668,370.563 94.329 M373.600 99.284 C 373.600 99.624,373.899 100.149,374.265 100.451 C 374.874 100.953,374.887 100.915,374.411 100.000 C 373.714 98.659,373.600 98.558,373.600 99.284 M211.200 127.120 C 211.200 127.296,211.363 127.611,211.562 127.820 C 212.849 129.170,216.145 136.012,217.525 140.200 C 219.831 147.198,220.485 152.102,220.508 162.600 C 220.532 172.869,220.278 174.844,217.635 185.000 C 216.721 188.510,210.902 199.420,209.207 200.800 C 209.072 200.910,208.524 201.630,207.990 202.400 C 204.954 206.774,198.021 212.434,191.200 216.106 C 179.365 222.478,169.645 223.789,130.902 224.241 L 111.604 224.466 111.502 260.733 L 111.400 297.000 92.100 297.104 C 81.485 297.161,72.800 297.273,72.800 297.353 C 72.800 297.433,95.390 320.089,123.000 347.699 C 150.610 375.309,173.200 398.102,173.200 398.350 C 173.200 398.597,173.560 398.800,174.000 398.800 C 174.440 398.800,174.800 398.980,174.800 399.200 C 174.800 399.420,175.295 399.587,175.900 399.572 C 176.875 399.547,176.909 399.505,176.200 399.200 C 175.496 398.898,175.535 398.853,176.524 398.828 C 177.142 398.813,177.545 398.965,177.420 399.167 C 177.047 399.771,181.927 399.896,203.967 399.847 C 220.351 399.810,224.970 399.691,225.100 399.300 C 225.206 398.982,226.056 398.800,227.433 398.800 C 228.625 398.800,229.600 398.620,229.600 398.400 C 229.600 398.180,229.915 398.003,230.300 398.006 C 230.898 398.011,230.913 398.069,230.400 398.400 C 230.039 398.633,229.990 398.790,230.276 398.794 C 230.538 398.797,230.864 398.620,231.000 398.400 C 231.136 398.180,232.227 398.000,233.424 398.000 C 234.621 398.000,235.600 397.820,235.600 397.600 C 235.600 397.380,236.590 397.200,237.800 397.200 C 239.010 397.200,240.000 397.020,240.000 396.800 C 240.000 396.580,240.720 396.400,241.600 396.400 C 242.480 396.400,243.200 396.220,243.200 396.000 C 243.200 395.780,244.100 395.600,245.200 395.600 C 246.300 395.600,247.200 395.420,247.200 395.200 C 247.200 394.980,247.920 394.800,248.800 394.800 C 249.680 394.800,250.400 394.620,250.400 394.400 C 250.400 394.180,251.019 394.000,251.776 394.000 C 252.533 394.000,253.264 393.820,253.400 393.600 C 253.536 393.380,254.177 393.200,254.824 393.200 C 255.471 393.200,256.000 393.020,256.000 392.800 C 256.000 392.580,256.630 392.400,257.400 392.400 C 258.170 392.400,258.800 392.241,258.800 392.046 C 258.800 391.851,259.787 391.569,260.994 391.418 C 262.200 391.267,263.291 390.977,263.417 390.772 C 263.544 390.567,264.076 390.400,264.600 390.400 C 265.124 390.400,265.664 390.220,265.800 390.000 C 265.936 389.780,266.399 389.600,266.829 389.600 C 267.259 389.600,267.968 389.420,268.405 389.200 C 268.842 388.980,269.558 388.620,269.995 388.400 C 270.432 388.180,271.152 388.000,271.595 388.000 C 272.038 388.000,272.400 387.820,272.400 387.600 C 272.400 387.380,272.850 387.200,273.400 387.200 C 273.950 387.200,274.400 387.020,274.400 386.800 C 274.400 386.580,274.760 386.400,275.200 386.400 C 275.640 386.400,276.000 386.220,276.000 386.000 C 276.000 385.780,276.540 385.600,277.200 385.600 C 277.860 385.600,278.400 385.420,278.400 385.200 C 278.400 384.980,278.760 384.800,279.200 384.800 C 279.640 384.800,280.000 384.620,280.000 384.400 C 280.000 384.180,280.360 384.000,280.800 384.000 C 281.240 384.000,281.600 383.820,281.600 383.600 C 281.600 383.380,281.960 383.200,282.400 383.200 C 282.840 383.200,283.200 383.020,283.200 382.800 C 283.200 382.580,283.639 382.400,284.176 382.400 C 284.713 382.400,285.264 382.220,285.400 382.000 C 285.536 381.780,285.997 381.600,286.424 381.600 C 286.851 381.600,287.200 381.420,287.200 381.200 C 287.200 380.980,287.560 380.800,288.000 380.800 C 288.440 380.800,288.800 380.620,288.800 380.400 C 288.800 380.180,289.076 380.000,289.413 380.000 C 289.750 380.000,290.189 379.595,290.388 379.100 C 290.587 378.605,290.761 378.425,290.775 378.700 C 290.817 379.540,291.600 379.255,291.600 378.400 C 291.600 377.960,291.791 377.600,292.024 377.600 C 292.257 377.600,292.336 377.780,292.200 378.000 C 292.064 378.220,292.233 378.400,292.576 378.400 C 292.933 378.400,293.200 378.058,293.200 377.600 C 293.200 377.160,293.380 376.800,293.600 376.800 C 293.820 376.800,294.000 376.980,294.000 377.200 C 294.000 377.420,294.188 377.600,294.418 377.600 C 294.647 377.600,294.782 377.304,294.718 376.941 C 294.653 376.579,294.825 376.204,295.100 376.108 C 295.375 376.012,295.600 376.139,295.600 376.390 C 295.600 376.642,295.772 376.741,295.983 376.611 C 296.193 376.481,296.264 376.110,296.140 375.787 C 295.978 375.367,296.201 375.200,296.924 375.200 C 297.479 375.200,298.024 374.975,298.135 374.700 C 298.288 374.321,298.344 374.318,298.368 374.687 C 298.386 374.956,298.669 375.072,298.998 374.946 C 299.326 374.819,299.497 374.557,299.377 374.363 C 299.257 374.168,299.415 374.107,299.728 374.228 C 300.041 374.348,300.577 374.166,300.920 373.823 C 301.263 373.480,301.826 373.200,302.171 373.200 C 302.517 373.200,302.800 373.020,302.800 372.800 C 302.800 372.580,303.078 372.400,303.417 372.400 C 303.756 372.400,304.389 372.069,304.823 371.664 C 305.258 371.259,306.105 370.674,306.707 370.364 C 308.340 369.522,308.910 368.912,308.296 368.664 C 308.023 368.553,308.385 368.449,309.100 368.432 C 310.123 368.407,310.400 368.229,310.400 367.600 C 310.400 367.142,310.667 366.800,311.024 366.800 C 311.367 366.800,311.536 366.620,311.400 366.400 C 311.264 366.180,311.523 366.000,311.976 366.000 C 312.429 366.000,312.800 365.820,312.800 365.600 C 312.800 365.380,313.263 365.200,313.829 365.200 C 315.032 365.200,316.297 364.187,315.496 363.864 C 315.223 363.753,315.468 363.649,316.041 363.632 C 316.619 363.614,317.640 363.066,318.337 362.400 C 319.028 361.740,319.787 361.200,320.025 361.200 C 320.755 361.200,321.691 360.013,321.451 359.390 C 321.327 359.065,321.384 358.800,321.579 358.800 C 321.774 358.800,322.024 359.025,322.135 359.300 C 322.296 359.700,322.343 359.700,322.368 359.300 C 322.386 359.025,322.597 358.800,322.837 358.800 C 323.077 358.800,323.731 358.440,324.291 358.000 C 324.850 357.560,325.104 357.200,324.854 357.200 C 324.604 357.200,324.400 357.008,324.400 356.773 C 324.400 356.531,324.789 356.443,325.300 356.569 C 325.795 356.692,325.975 356.689,325.700 356.563 C 325.016 356.249,325.072 355.735,325.821 355.447 C 326.177 355.311,326.337 355.378,326.197 355.605 C 325.594 356.580,327.712 355.525,329.058 354.178 C 329.683 353.554,329.821 353.196,329.489 353.061 C 329.220 352.952,329.405 352.849,329.900 352.832 C 330.395 352.814,330.800 352.650,330.800 352.468 C 330.800 352.285,331.295 351.880,331.900 351.568 C 333.462 350.762,334.799 349.359,334.806 348.518 C 334.811 347.908,334.871 347.890,335.200 348.400 C 335.509 348.878,335.595 348.797,335.625 348.000 C 335.646 347.450,335.753 347.223,335.864 347.496 C 336.018 347.877,336.196 347.861,336.632 347.425 C 337.399 346.658,337.347 346.369,336.500 346.690 C 335.862 346.932,335.865 346.889,336.536 346.213 C 337.155 345.589,337.335 345.560,337.663 346.035 C 337.946 346.446,337.984 346.355,337.799 345.700 C 337.535 344.760,338.164 344.431,338.563 345.300 C 338.689 345.575,338.692 345.395,338.569 344.900 C 338.335 343.954,338.963 343.641,339.371 344.500 C 339.502 344.775,339.534 344.595,339.442 344.100 C 339.264 343.144,339.777 342.860,340.163 343.700 C 340.289 343.975,340.292 343.795,340.169 343.300 C 339.935 342.354,340.563 342.041,340.971 342.900 C 341.102 343.175,341.134 342.995,341.042 342.500 C 340.950 342.005,340.993 341.586,341.137 341.569 C 342.375 341.425,343.065 340.950,345.348 338.667 C 346.882 337.132,347.763 335.973,347.481 335.858 C 347.216 335.751,347.450 335.646,348.000 335.625 C 348.749 335.597,348.858 335.498,348.435 335.230 C 347.963 334.931,347.992 334.752,348.613 334.136 C 349.289 333.465,349.332 333.462,349.090 334.100 C 348.944 334.485,348.934 334.800,349.066 334.800 C 349.442 334.800,351.199 332.649,351.200 332.188 C 351.200 331.962,351.556 331.520,351.991 331.206 C 352.573 330.787,352.652 330.554,352.291 330.324 C 351.955 330.110,352.035 330.010,352.546 330.006 C 353.270 330.000,356.000 327.389,356.000 326.704 C 356.000 326.517,356.453 325.910,357.008 325.356 C 357.562 324.802,357.894 324.152,357.746 323.912 C 357.584 323.651,357.662 323.591,357.941 323.764 C 358.210 323.930,358.518 323.745,358.674 323.325 C 358.821 322.926,359.135 322.468,359.371 322.306 C 359.659 322.109,359.636 322.010,359.300 322.006 C 359.025 322.003,358.800 321.808,358.800 321.573 C 358.800 321.331,359.189 321.243,359.700 321.369 C 360.195 321.492,360.375 321.489,360.100 321.363 C 359.277 320.985,359.536 320.326,360.400 320.600 C 360.877 320.751,361.200 320.672,361.200 320.403 C 361.200 320.156,361.020 320.064,360.800 320.200 C 359.990 320.700,360.433 319.364,361.462 318.200 C 362.046 317.540,362.411 317.315,362.274 317.700 C 362.137 318.085,362.199 318.400,362.413 318.400 C 362.626 318.400,362.800 318.130,362.800 317.800 C 362.800 317.470,362.980 317.200,363.200 317.200 C 363.420 317.200,363.600 316.750,363.600 316.200 C 363.600 315.467,363.813 315.200,364.400 315.200 C 364.900 315.200,365.200 314.933,365.200 314.488 C 365.200 314.097,365.560 313.517,366.000 313.200 C 366.440 312.883,366.800 312.303,366.800 311.912 C 366.800 311.520,366.980 311.200,367.200 311.200 C 367.420 311.200,367.603 310.795,367.606 310.300 C 367.611 309.572,367.686 309.515,368.000 310.000 C 368.293 310.453,368.397 310.258,368.425 309.200 C 368.446 308.430,368.553 308.023,368.664 308.296 C 368.864 308.791,370.000 308.029,370.000 307.401 C 370.000 307.260,370.540 306.359,371.200 305.400 C 371.860 304.441,372.400 303.463,372.400 303.228 C 372.400 302.993,372.580 302.800,372.800 302.800 C 373.020 302.800,373.200 302.440,373.200 302.000 C 373.200 301.560,373.347 301.200,373.526 301.200 C 373.874 301.200,375.200 298.642,375.200 297.970 C 375.200 297.748,375.568 297.172,376.017 296.689 C 376.467 296.206,376.647 295.749,376.417 295.672 C 375.690 295.430,375.967 294.800,376.800 294.800 C 377.240 294.800,377.600 294.620,377.600 294.400 C 377.600 294.180,377.420 294.000,377.200 294.000 C 376.980 294.000,376.800 293.820,376.800 293.600 C 376.800 293.380,377.160 293.200,377.600 293.200 C 378.040 293.200,378.400 293.020,378.400 292.800 C 378.400 292.580,378.220 292.400,378.000 292.400 C 377.780 292.400,377.600 292.220,377.600 292.000 C 377.600 291.780,377.960 291.600,378.400 291.600 C 378.840 291.600,379.200 291.420,379.200 291.200 C 379.200 290.980,379.020 290.800,378.800 290.800 C 378.580 290.800,378.400 290.620,378.400 290.400 C 378.400 290.180,378.760 290.000,379.200 290.000 C 379.640 290.000,380.000 289.809,380.000 289.576 C 380.000 289.343,379.820 289.264,379.600 289.400 C 379.380 289.536,379.200 289.359,379.200 289.006 C 379.200 288.630,379.472 288.414,379.859 288.482 C 380.221 288.547,380.594 288.330,380.689 288.000 C 380.842 287.467,380.814 287.467,380.437 288.000 C 380.086 288.495,380.011 288.440,380.006 287.682 C 380.002 287.029,380.201 286.799,380.700 286.882 C 381.167 286.961,381.442 286.701,381.528 286.100 C 381.598 285.605,381.823 285.200,382.028 285.200 C 382.233 285.200,382.400 284.750,382.400 284.200 C 382.400 283.650,382.580 283.200,382.800 283.200 C 383.020 283.200,383.200 282.840,383.200 282.400 C 383.200 281.960,383.380 281.600,383.600 281.600 C 383.820 281.600,384.000 281.240,384.000 280.800 C 384.000 280.360,384.180 280.000,384.400 280.000 C 384.620 280.000,384.800 279.651,384.800 279.224 C 384.800 278.797,384.980 278.336,385.200 278.200 C 385.420 278.064,385.600 277.513,385.600 276.976 C 385.600 276.439,385.780 276.000,386.000 276.000 C 386.220 276.000,386.400 275.640,386.400 275.200 C 386.400 274.760,386.580 274.400,386.800 274.400 C 387.020 274.400,387.200 273.950,387.200 273.400 C 387.200 272.850,387.380 272.400,387.600 272.400 C 387.820 272.400,388.000 272.038,388.000 271.595 C 388.000 271.152,388.180 270.432,388.400 269.995 C 388.620 269.558,388.980 268.842,389.200 268.405 C 389.420 267.968,389.600 267.259,389.600 266.829 C 389.600 266.399,389.780 265.936,390.000 265.800 C 390.220 265.664,390.400 265.124,390.400 264.600 C 390.400 264.076,390.567 263.544,390.772 263.417 C 390.977 263.291,391.267 262.200,391.418 260.994 C 391.569 259.787,391.851 258.800,392.046 258.800 C 392.241 258.800,392.400 258.170,392.400 257.400 C 392.400 256.630,392.580 256.000,392.800 256.000 C 393.020 256.000,393.200 255.471,393.200 254.824 C 393.200 254.177,393.380 253.536,393.600 253.400 C 393.820 253.264,394.000 252.533,394.000 251.776 C 394.000 251.019,394.180 250.400,394.400 250.400 C 394.620 250.400,394.800 249.680,394.800 248.800 C 394.800 247.920,394.980 247.200,395.200 247.200 C 395.423 247.200,395.603 246.096,395.606 244.700 C 395.610 242.938,395.727 242.377,396.000 242.800 C 396.289 243.247,396.389 243.024,396.394 241.924 C 396.397 241.112,396.580 240.336,396.800 240.200 C 397.020 240.064,397.200 238.973,397.200 237.776 C 397.200 236.579,397.380 235.600,397.600 235.600 C 397.820 235.600,398.000 234.621,398.000 233.424 C 398.000 232.227,398.180 231.136,398.400 231.000 C 398.620 230.864,398.800 230.573,398.800 230.353 C 398.800 230.133,398.610 230.070,398.377 230.214 C 398.144 230.358,382.374 214.876,363.214 195.695 C 328.937 161.378,328.467 160.928,327.990 161.957 C 327.724 162.531,327.348 163.313,327.153 163.695 C 326.959 164.077,326.800 164.741,326.800 165.171 C 326.800 165.601,326.620 166.064,326.400 166.200 C 326.180 166.336,326.000 166.799,326.000 167.229 C 326.000 167.659,325.820 168.368,325.600 168.805 C 325.380 169.242,325.020 169.958,324.800 170.395 C 324.580 170.832,324.400 171.464,324.400 171.800 C 324.400 172.136,324.220 172.768,324.000 173.205 C 323.780 173.642,323.420 174.358,323.200 174.795 C 322.980 175.232,322.800 175.916,322.800 176.315 C 322.800 176.714,322.657 177.211,322.482 177.420 C 322.307 177.629,321.959 178.430,321.709 179.200 C 317.571 191.953,316.805 193.535,315.282 192.477 C 314.687 192.064,313.615 191.473,312.900 191.165 C 312.185 190.857,311.600 190.469,311.600 190.302 C 311.600 190.136,311.328 190.000,310.996 190.000 C 310.663 190.000,309.628 189.664,308.696 189.252 C 299.052 185.000,287.881 187.534,282.749 195.137 C 281.357 197.201,279.200 201.727,279.200 202.586 C 279.200 202.898,279.020 203.264,278.800 203.400 C 278.580 203.536,278.400 204.051,278.400 204.544 C 278.400 205.037,278.238 205.611,278.041 205.820 C 277.844 206.029,277.581 206.920,277.457 207.800 C 277.333 208.680,277.032 210.480,276.788 211.800 C 275.398 219.323,274.894 231.935,274.571 267.300 L 274.298 297.200 255.592 297.200 C 238.903 297.200,236.859 297.132,236.643 296.567 C 236.120 295.204,236.373 157.388,236.900 156.697 C 237.177 156.334,238.106 155.987,238.981 155.920 L 240.563 155.800 226.049 141.300 C 211.727 126.991,211.200 126.488,211.200 127.120 M10.440 133.040 C 10.210 133.873,10.094 134.627,10.182 134.715 C 10.270 134.803,10.530 134.193,10.760 133.360 C 10.990 132.527,11.106 131.773,11.018 131.685 C 10.930 131.597,10.670 132.207,10.440 133.040 M389.848 135.100 C 389.992 135.705,390.367 136.650,390.681 137.200 C 391.034 137.819,391.149 137.896,390.982 137.400 C 390.834 136.960,390.544 136.015,390.338 135.300 C 389.882 133.722,389.479 133.558,389.848 135.100 M111.600 163.358 L 111.600 190.438 129.500 190.244 C 139.345 190.137,149.110 189.872,151.200 189.655 C 157.983 188.952,159.611 188.706,159.831 188.350 C 159.950 188.157,160.482 188.000,161.014 188.000 C 165.137 188.000,176.400 179.236,176.400 176.028 C 176.400 175.793,176.580 175.600,176.800 175.600 C 177.020 175.600,177.200 175.328,177.200 174.995 C 177.200 174.662,177.359 174.077,177.553 173.695 C 179.057 170.739,179.320 169.175,179.320 163.200 C 179.320 157.225,179.057 155.661,177.553 152.705 C 177.359 152.323,177.200 151.738,177.200 151.405 C 177.200 151.072,177.064 150.800,176.898 150.800 C 176.731 150.800,176.349 150.244,176.048 149.563 C 175.397 148.093,170.042 142.400,169.310 142.400 C 169.030 142.400,168.800 142.220,168.800 142.000 C 168.800 141.780,168.603 141.600,168.362 141.600 C 168.121 141.600,167.446 141.271,166.862 140.868 C 165.704 140.070,162.331 138.737,159.800 138.076 C 156.378 137.183,147.872 136.734,130.100 136.511 L 111.600 136.277 111.600 163.358 M272.000 166.229 C 272.000 175.227,272.084 175.575,273.568 172.700 C 273.880 172.095,274.285 171.600,274.468 171.600 C 274.650 171.600,274.800 171.422,274.800 171.205 C 274.800 170.987,275.060 170.492,275.378 170.105 C 277.045 168.072,279.200 164.970,279.200 164.602 C 279.200 164.135,272.752 157.600,272.292 157.600 C 272.131 157.600,272.000 161.483,272.000 166.229 M10.248 266.200 C 10.391 266.860,10.666 267.670,10.859 268.000 C 11.084 268.384,11.118 268.168,10.952 267.400 C 10.809 266.740,10.534 265.930,10.341 265.600 C 10.116 265.216,10.082 265.432,10.248 266.200 M372.328 302.846 C 371.725 303.900,370.953 304.800,370.652 304.800 C 370.539 304.800,370.918 304.081,371.493 303.203 C 372.589 301.529,373.239 301.251,372.328 302.846 M27.600 303.361 C 27.600 303.523,28.140 304.441,28.800 305.400 C 29.460 306.359,30.000 307.337,30.000 307.572 C 30.000 307.807,30.180 308.000,30.400 308.000 C 31.015 308.000,30.910 307.750,29.344 305.496 C 27.606 302.995,27.600 302.987,27.600 303.361 M38.800 320.167 C 38.800 320.588,40.005 321.728,40.221 321.512 C 40.322 321.411,40.044 321.002,39.602 320.602 C 39.161 320.203,38.800 320.007,38.800 320.167 M44.400 327.169 C 44.954 328.239,46.810 330.223,46.783 329.718 C 46.774 329.543,46.121 328.680,45.332 327.800 C 44.438 326.803,44.087 326.565,44.400 327.169 M49.293 333.200 C 49.762 333.951,50.400 334.280,50.400 333.771 C 50.400 333.473,49.325 332.400,49.025 332.400 C 48.898 332.400,49.018 332.760,49.293 333.200 M65.200 349.004 C 65.200 349.401,67.317 351.217,67.530 351.003 C 67.700 350.833,67.122 350.213,65.898 349.251 C 65.514 348.949,65.200 348.838,65.200 349.004 M71.280 354.537 C 71.575 354.832,72.263 355.298,72.808 355.572 C 73.664 356.003,73.636 355.931,72.600 355.050 C 71.354 353.990,70.338 353.595,71.280 354.537 M75.709 358.000 C 76.269 358.440,76.857 358.800,77.017 358.800 C 77.177 358.800,76.850 358.440,76.291 358.000 C 75.731 357.560,75.143 357.200,74.983 357.200 C 74.823 357.200,75.150 357.560,75.709 358.000 M78.400 359.825 C 78.400 360.125,79.473 361.200,79.771 361.200 C 80.280 361.200,79.951 360.562,79.200 360.093 C 78.760 359.818,78.400 359.698,78.400 359.825 M93.200 370.137 C 93.200 370.223,93.965 370.798,94.900 371.415 C 95.861 372.049,96.352 372.234,96.029 371.842 C 95.487 371.182,93.200 369.804,93.200 370.137 M98.833 373.746 C 99.640 374.451,100.952 374.873,100.451 374.265 C 100.149 373.899,99.624 373.600,99.284 373.600 C 98.945 373.600,98.742 373.666,98.833 373.746 M134.000 389.774 C 134.000 389.877,134.585 390.131,135.300 390.338 C 136.015 390.544,136.960 390.834,137.400 390.982 C 137.896 391.149,137.819 391.034,137.200 390.681 C 136.122 390.066,134.000 389.465,134.000 389.774 " stroke="none" fill="#241c3c" fill-rule="evenodd"></path><path id="path3" d="M72.000 200.000 C 72.000 291.936,72.035 296.798,72.700 296.768 C 73.118 296.750,73.199 296.656,72.900 296.535 C 72.502 296.374,72.400 276.680,72.400 199.937 L 72.400 103.540 115.300 103.670 C 138.895 103.741,156.580 103.684,154.600 103.542 C 152.620 103.401,133.225 103.266,111.500 103.242 L 72.000 103.200 72.000 200.000 M166.000 104.379 C 166.979 104.713,171.096 104.947,170.767 104.649 C 170.675 104.566,169.340 104.395,167.800 104.268 C 166.032 104.122,165.369 104.163,166.000 104.379 M174.400 105.200 C 174.730 105.413,175.450 105.573,176.000 105.554 L 177.000 105.520 176.000 105.200 C 174.458 104.706,173.636 104.706,174.400 105.200 M178.800 106.000 C 179.130 106.213,179.850 106.373,180.400 106.354 L 181.400 106.320 180.400 106.000 C 178.858 105.506,178.036 105.506,178.800 106.000 M191.200 110.364 C 191.750 110.814,192.380 111.183,192.600 111.185 C 193.028 111.188,192.305 110.634,191.000 109.960 C 190.469 109.685,190.536 109.821,191.200 110.364 M196.918 113.800 C 199.303 115.620,199.846 115.624,197.556 113.804 C 196.590 113.036,195.639 112.406,195.442 112.404 C 195.246 112.402,195.910 113.030,196.918 113.800 M201.301 117.203 C 202.347 118.129,204.282 120.137,205.601 121.666 C 206.921 123.195,208.000 124.321,208.000 124.168 C 208.000 123.635,202.746 118.025,201.080 116.778 C 199.505 115.600,199.519 115.626,201.301 117.203 M120.528 135.900 C 125.768 135.963,134.228 135.963,139.328 135.900 C 144.427 135.836,140.140 135.785,129.800 135.785 C 119.460 135.785,115.287 135.837,120.528 135.900 M153.100 136.689 C 153.815 136.778,154.985 136.778,155.700 136.689 C 156.415 136.601,155.830 136.528,154.400 136.528 C 152.970 136.528,152.385 136.601,153.100 136.689 M159.233 137.344 C 159.325 137.423,159.940 137.608,160.600 137.756 C 161.476 137.952,161.638 137.915,161.200 137.618 C 160.660 137.253,158.832 136.998,159.233 137.344 M172.000 143.725 C 172.000 143.794,172.585 144.379,173.300 145.025 L 174.600 146.200 173.425 144.900 C 172.330 143.688,172.000 143.416,172.000 143.725 M218.258 146.400 C 218.575 148.125,218.802 148.451,218.794 147.167 C 218.791 146.635,218.611 145.930,218.394 145.600 C 218.118 145.178,218.077 145.415,218.258 146.400 M219.328 153.200 C 219.328 154.630,219.401 155.215,219.489 154.500 C 219.578 153.785,219.578 152.615,219.489 151.900 C 219.401 151.185,219.328 151.770,219.328 153.200 M301.500 153.895 C 302.655 153.976,304.545 153.976,305.700 153.895 C 306.855 153.814,305.910 153.748,303.600 153.748 C 301.290 153.748,300.345 153.814,301.500 153.895 M295.800 154.400 L 295.000 154.744 295.800 154.766 C 296.240 154.778,296.870 154.613,297.200 154.400 C 297.995 153.886,296.996 153.886,295.800 154.400 M311.200 154.382 C 311.530 154.605,312.145 154.791,312.567 154.794 C 313.590 154.802,313.271 154.573,311.800 154.244 C 310.924 154.048,310.762 154.085,311.200 154.382 M179.444 156.600 C 179.773 158.071,180.002 158.390,179.994 157.367 C 179.991 156.945,179.805 156.330,179.582 156.000 C 179.285 155.562,179.248 155.724,179.444 156.600 M219.709 158.000 C 219.709 158.990,219.787 159.395,219.882 158.900 C 219.978 158.405,219.978 157.595,219.882 157.100 C 219.787 156.605,219.709 157.010,219.709 158.000 M239.400 156.800 C 238.300 156.951,245.005 157.103,254.300 157.137 L 271.200 157.200 271.200 166.800 C 271.200 172.080,271.335 176.397,271.500 176.394 C 272.239 176.379,273.018 175.612,272.300 175.606 C 271.654 175.600,271.600 174.897,271.600 166.480 C 271.600 159.920,271.465 157.225,271.120 156.880 C 270.592 156.352,243.171 156.283,239.400 156.800 M289.100 157.029 C 287.605 157.840,287.696 158.178,289.200 157.400 C 289.860 157.059,290.400 156.694,290.400 156.590 C 290.400 156.332,290.357 156.347,289.100 157.029 M237.396 226.800 C 237.396 264.970,237.443 280.585,237.500 261.500 C 237.557 242.415,237.557 211.185,237.500 192.100 C 237.443 173.015,237.396 188.630,237.396 226.800 M180.149 163.400 C 180.150 166.440,180.200 166.719,180.469 165.189 C 180.645 164.193,180.645 162.573,180.469 161.589 C 180.200 160.087,180.149 160.377,180.149 163.400 M220.114 163.000 C 220.117 164.100,220.195 164.503,220.287 163.895 C 220.379 163.286,220.377 162.386,220.282 161.895 C 220.187 161.403,220.111 161.900,220.114 163.000 M219.714 169.000 C 219.717 170.100,219.795 170.503,219.887 169.895 C 219.979 169.286,219.977 168.386,219.882 167.895 C 219.787 167.403,219.711 167.900,219.714 169.000 M179.646 168.867 C 179.621 169.234,179.496 169.864,179.370 170.267 C 179.152 170.962,179.163 170.963,179.597 170.287 C 179.848 169.896,179.973 169.266,179.873 168.887 C 179.711 168.268,179.688 168.266,179.646 168.867 M219.301 173.000 C 219.305 173.880,219.387 174.193,219.483 173.695 C 219.579 173.198,219.575 172.478,219.475 172.095 C 219.375 171.713,219.296 172.120,219.301 173.000 M218.460 178.067 C 218.427 178.654,218.296 179.464,218.170 179.867 C 217.952 180.560,217.965 180.561,218.395 179.890 C 218.646 179.499,218.777 178.689,218.686 178.090 L 218.520 177.000 218.460 178.067 M172.000 182.516 C 170.790 183.670,169.350 184.934,168.800 185.325 C 167.838 186.008,167.850 186.008,169.097 185.333 C 170.229 184.720,174.883 180.387,174.386 180.408 C 174.284 180.412,173.210 181.361,172.000 182.516 M217.646 181.267 C 217.621 181.634,217.496 182.264,217.370 182.667 C 217.152 183.362,217.163 183.363,217.597 182.687 C 217.848 182.296,217.973 181.666,217.873 181.287 C 217.711 180.668,217.688 180.666,217.646 181.267 M216.846 184.067 C 216.821 184.434,216.696 185.064,216.570 185.467 C 216.352 186.162,216.363 186.163,216.797 185.487 C 217.048 185.096,217.173 184.466,217.073 184.087 C 216.911 183.468,216.888 183.466,216.846 184.067 M318.091 186.900 C 317.410 188.784,317.504 189.294,318.226 187.630 C 318.553 186.877,318.766 186.099,318.701 185.902 C 318.635 185.705,318.360 186.154,318.091 186.900 M294.083 186.740 C 293.794 186.924,294.589 186.996,295.883 186.904 C 299.042 186.679,299.458 186.468,296.800 186.438 C 295.590 186.424,294.367 186.560,294.083 186.740 M299.400 186.601 C 300.316 186.917,304.395 187.043,303.917 186.740 C 303.633 186.560,302.410 186.424,301.200 186.438 C 299.990 186.452,299.180 186.525,299.400 186.601 M150.400 190.400 L 148.600 190.680 150.200 190.712 C 151.080 190.729,152.160 190.589,152.600 190.400 C 153.527 190.002,152.961 190.002,150.400 190.400 M111.149 190.935 C 111.754 191.668,126.756 191.830,137.800 191.223 C 140.660 191.065,136.156 191.024,127.792 191.132 C 115.656 191.287,112.384 191.220,111.592 190.798 C 110.684 190.314,110.646 190.325,111.149 190.935 M284.378 191.900 L 283.000 193.400 284.500 192.022 C 285.896 190.738,286.184 190.400,285.878 190.400 C 285.812 190.400,285.137 191.075,284.378 191.900 M202.778 207.100 L 201.400 208.600 202.900 207.222 C 204.296 205.938,204.584 205.600,204.278 205.600 C 204.212 205.600,203.537 206.275,202.778 207.100 M276.667 207.467 C 276.520 207.613,276.411 208.108,276.425 208.567 C 276.449 209.333,276.482 209.323,276.834 208.442 C 277.226 207.463,277.144 206.989,276.667 207.467 M275.849 211.815 C 275.712 212.173,275.615 212.766,275.634 213.133 C 275.653 213.500,275.827 213.269,276.021 212.620 C 276.398 211.358,276.265 210.733,275.849 211.815 M275.053 218.036 C 274.914 218.731,274.822 219.863,274.849 220.550 C 274.878 221.294,275.038 220.840,275.243 219.428 C 275.611 216.904,275.476 215.918,275.053 218.036 M173.000 221.203 C 172.485 221.426,172.913 221.467,174.200 221.318 C 175.300 221.191,176.275 221.023,176.367 220.944 C 176.714 220.645,173.764 220.872,173.000 221.203 M169.105 221.883 C 169.602 221.979,170.322 221.975,170.705 221.875 C 171.087 221.775,170.680 221.696,169.800 221.701 C 168.920 221.705,168.607 221.787,169.105 221.883 M160.707 222.690 C 161.426 222.779,162.506 222.777,163.107 222.686 C 163.708 222.595,163.120 222.522,161.800 222.524 C 160.480 222.526,159.988 222.601,160.707 222.690 M156.300 223.082 C 156.795 223.178,157.605 223.178,158.100 223.082 C 158.595 222.987,158.190 222.909,157.200 222.909 C 156.210 222.909,155.805 222.987,156.300 223.082 M111.067 223.467 C 110.920 223.613,110.803 223.928,110.806 224.167 C 110.810 224.427,110.938 224.402,111.127 224.104 C 111.369 223.723,115.852 223.583,130.421 223.500 L 149.400 223.392 130.367 223.296 C 119.898 223.243,111.213 223.320,111.067 223.467 M274.258 229.250 C 274.116 230.607,274.028 233.716,274.061 236.159 C 274.118 240.271,274.146 240.097,274.431 233.802 C 274.753 226.682,274.693 225.092,274.258 229.250 " stroke="none" fill="#6c4584" fill-rule="evenodd"></path><path id="path4" d="M71.785 103.300 C 71.680 103.575,71.641 147.270,71.698 200.400 L 71.802 297.000 71.901 200.102 L 72.000 103.204 111.700 103.100 L 151.400 102.996 111.687 102.898 C 80.213 102.820,71.935 102.904,71.785 103.300 M155.400 103.602 C 159.201 103.933,167.050 104.104,166.767 103.851 C 166.675 103.768,163.270 103.609,159.200 103.495 C 154.230 103.357,152.982 103.392,155.400 103.602 M168.305 104.283 C 168.802 104.379,169.522 104.375,169.905 104.275 C 170.287 104.175,169.880 104.096,169.000 104.101 C 168.120 104.105,167.807 104.187,168.305 104.283 M173.200 104.821 C 174.630 104.990,176.869 105.320,178.175 105.555 C 179.482 105.790,180.625 105.908,180.716 105.817 C 180.807 105.726,180.188 105.541,179.341 105.405 C 178.493 105.269,177.045 104.987,176.123 104.779 C 175.200 104.571,173.580 104.426,172.523 104.457 C 170.682 104.511,170.711 104.527,173.200 104.821 M184.200 107.200 C 185.301 107.673,185.692 107.673,185.400 107.200 C 185.264 106.980,184.758 106.813,184.276 106.828 C 183.431 106.855,183.429 106.869,184.200 107.200 M188.433 108.549 C 188.525 108.631,189.230 109.002,190.000 109.373 L 191.400 110.048 190.400 109.233 C 189.614 108.592,187.762 107.948,188.433 108.549 M196.200 112.657 C 198.237 114.464,198.987 114.991,198.202 114.063 C 197.766 113.548,197.047 112.941,196.604 112.714 C 196.162 112.487,195.980 112.462,196.200 112.657 M199.200 115.163 C 199.200 115.403,199.405 115.600,199.655 115.600 C 199.906 115.600,201.931 117.439,204.155 119.687 C 207.963 123.535,208.191 123.525,204.609 119.667 C 202.417 117.306,199.200 114.627,199.200 115.163 M110.893 163.076 C 110.842 178.078,110.935 190.436,111.100 190.538 C 111.372 190.707,111.369 171.051,111.092 145.600 C 111.033 140.210,110.944 148.074,110.893 163.076 M144.900 136.291 C 145.725 136.378,147.075 136.378,147.900 136.291 C 148.725 136.205,148.050 136.134,146.400 136.134 C 144.750 136.134,144.075 136.205,144.900 136.291 M150.100 136.676 C 150.485 136.776,151.115 136.776,151.500 136.676 C 151.885 136.575,151.570 136.493,150.800 136.493 C 150.030 136.493,149.715 136.575,150.100 136.676 M155.700 137.076 C 156.085 137.176,156.715 137.176,157.100 137.076 C 157.485 136.975,157.170 136.893,156.400 136.893 C 155.630 136.893,155.315 136.975,155.700 137.076 M172.800 145.000 C 173.546 145.770,174.247 146.400,174.357 146.400 C 174.467 146.400,173.946 145.770,173.200 145.000 C 172.454 144.230,171.753 143.600,171.643 143.600 C 171.533 143.600,172.054 144.230,172.800 145.000 M219.709 154.800 C 219.709 155.790,219.787 156.195,219.882 155.700 C 219.978 155.205,219.978 154.395,219.882 153.900 C 219.787 153.405,219.709 153.810,219.709 154.800 M298.200 153.557 C 297.320 153.691,299.930 153.800,304.000 153.800 C 308.276 153.800,310.471 153.690,309.200 153.540 C 306.492 153.219,300.359 153.229,298.200 153.557 M293.386 154.754 C 291.140 155.563,289.600 156.326,289.600 156.628 C 289.600 156.738,290.005 156.610,290.500 156.343 C 290.995 156.076,292.570 155.450,294.000 154.952 C 295.430 154.454,296.330 154.043,296.000 154.038 C 295.670 154.033,294.494 154.355,293.386 154.754 M314.800 154.954 C 315.790 155.229,317.050 155.597,317.600 155.772 C 318.231 155.972,318.452 155.951,318.200 155.712 C 317.700 155.240,314.762 154.391,313.754 154.427 C 313.339 154.442,313.810 154.679,314.800 154.954 M255.965 156.300 C 265.895 156.375,270.700 156.551,271.065 156.854 C 271.402 157.134,271.600 157.148,271.600 156.892 C 271.600 156.078,270.083 156.002,255.867 156.095 L 241.400 156.190 255.965 156.300 M320.800 156.952 C 322.010 157.456,323.585 158.173,324.300 158.545 C 325.015 158.917,325.600 159.114,325.600 158.984 C 325.600 158.662,319.783 155.996,319.126 156.017 C 318.837 156.026,319.590 156.447,320.800 156.952 M237.467 156.667 C 237.320 156.813,237.203 157.128,237.206 157.367 C 237.210 157.644,237.320 157.630,237.513 157.328 C 237.678 157.068,238.620 156.784,239.607 156.697 L 241.400 156.540 239.567 156.470 C 238.558 156.431,237.613 156.520,237.467 156.667 M286.400 158.448 C 283.655 160.499,281.385 162.638,280.296 164.200 C 279.836 164.860,280.706 164.128,282.230 162.573 C 283.753 161.019,285.988 159.084,287.195 158.273 C 288.402 157.463,289.212 156.801,288.995 156.802 C 288.778 156.803,287.610 157.543,286.400 158.448 M220.120 159.200 C 220.120 160.410,220.195 160.905,220.287 160.300 C 220.378 159.695,220.378 158.705,220.287 158.100 C 220.195 157.495,220.120 157.990,220.120 159.200 M179.709 159.600 C 179.709 160.590,179.787 160.995,179.882 160.500 C 179.978 160.005,179.978 159.195,179.882 158.700 C 179.787 158.205,179.709 158.610,179.709 159.600 M220.131 167.400 C 220.133 168.940,220.205 169.521,220.292 168.691 C 220.379 167.861,220.377 166.601,220.289 165.891 C 220.200 165.181,220.129 165.860,220.131 167.400 M179.701 167.000 C 179.705 167.880,179.787 168.193,179.883 167.695 C 179.979 167.198,179.975 166.478,179.875 166.095 C 179.775 165.713,179.696 166.120,179.701 167.000 M275.600 170.400 C 275.130 171.060,274.836 171.600,274.946 171.600 C 275.056 171.600,275.530 171.060,276.000 170.400 C 276.470 169.740,276.764 169.200,276.654 169.200 C 276.544 169.200,276.070 169.740,275.600 170.400 M154.100 189.876 C 154.485 189.976,155.115 189.976,155.500 189.876 C 155.885 189.775,155.570 189.693,154.800 189.693 C 154.030 189.693,153.715 189.775,154.100 189.876 M285.083 191.700 L 282.928 193.800 284.964 192.034 C 286.084 191.062,287.171 190.117,287.380 189.934 C 287.589 189.750,287.642 189.600,287.499 189.600 C 287.355 189.600,286.268 190.545,285.083 191.700 M150.100 190.276 C 150.485 190.376,151.115 190.376,151.500 190.276 C 151.885 190.175,151.570 190.093,150.800 190.093 C 150.030 190.093,149.715 190.175,150.100 190.276 M145.507 190.690 C 146.226 190.779,147.306 190.777,147.907 190.686 C 148.508 190.595,147.920 190.522,146.600 190.524 C 145.280 190.526,144.788 190.601,145.507 190.690 M117.100 191.099 C 120.015 191.167,124.785 191.167,127.700 191.099 C 130.615 191.031,128.230 190.975,122.400 190.975 C 116.570 190.975,114.185 191.031,117.100 191.099 M209.599 199.300 C 209.010 200.104,208.913 200.384,209.345 200.033 C 210.001 199.500,210.993 198.000,210.689 198.000 C 210.613 198.000,210.122 198.585,209.599 199.300 M205.578 204.300 L 204.200 205.800 205.700 204.422 C 207.096 203.138,207.384 202.800,207.078 202.800 C 207.012 202.800,206.337 203.475,205.578 204.300 M275.709 215.200 C 275.709 216.190,275.787 216.595,275.882 216.100 C 275.978 215.605,275.978 214.795,275.882 214.300 C 275.787 213.805,275.709 214.210,275.709 215.200 M274.928 224.000 C 274.928 225.430,275.001 226.015,275.089 225.300 C 275.178 224.585,275.178 223.415,275.089 222.700 C 275.001 221.985,274.928 222.570,274.928 224.000 M164.700 222.682 C 165.195 222.778,166.005 222.778,166.500 222.682 C 166.995 222.587,166.590 222.509,165.600 222.509 C 164.610 222.509,164.205 222.587,164.700 222.682 M159.505 223.083 C 160.002 223.179,160.722 223.175,161.105 223.075 C 161.487 222.975,161.080 222.896,160.200 222.901 C 159.320 222.905,159.007 222.987,159.505 223.083 M150.900 223.494 C 151.945 223.576,153.655 223.576,154.700 223.494 C 155.745 223.412,154.890 223.344,152.800 223.344 C 150.710 223.344,149.855 223.412,150.900 223.494 M117.874 223.899 C 121.655 223.965,127.955 223.965,131.874 223.899 C 135.793 223.834,132.700 223.780,125.000 223.780 C 117.300 223.780,114.093 223.834,117.874 223.899 M110.992 260.600 C 110.992 280.620,111.040 288.751,111.100 278.670 C 111.159 268.588,111.159 252.208,111.100 242.270 C 111.040 232.331,110.992 240.580,110.992 260.600 M274.520 232.400 C 274.520 233.610,274.595 234.105,274.687 233.500 C 274.778 232.895,274.778 231.905,274.687 231.300 C 274.595 230.695,274.520 231.190,274.520 232.400 M274.190 268.600 C 274.189 284.220,274.239 290.668,274.300 282.929 C 274.361 275.191,274.361 262.411,274.300 254.529 C 274.239 246.648,274.190 252.980,274.190 268.600 " stroke="none" fill="#62427c" fill-rule="evenodd"></path></g></svg>