<svg id="svg" version="1.1" xmlns="http://www.w3.org/2000/svg" xmlns:xlink="http://www.w3.org/1999/xlink" width="400" height="400" viewBox="0, 0, 400,400"><g id="svgg"><path id="path0" d="M161.200 0.287 C 160.210 0.377,159.229 0.619,159.020 0.825 C 158.811 1.031,158.046 1.200,157.320 1.200 C 156.594 1.200,156.000 1.380,156.000 1.600 C 156.000 1.820,155.471 2.000,154.824 2.000 C 154.177 2.000,153.536 2.180,153.400 2.400 C 153.264 2.620,152.713 2.800,152.176 2.800 C 151.639 2.800,151.200 2.980,151.200 3.200 C 151.200 3.420,150.675 3.600,150.033 3.600 C 149.392 3.600,148.807 3.735,148.733 3.900 C 148.541 4.332,145.228 6.000,144.562 6.000 C 144.253 6.000,144.000 6.180,144.000 6.400 C 144.000 6.620,143.730 6.800,143.400 6.800 C 143.070 6.800,142.800 6.980,142.800 7.200 C 142.800 7.420,142.530 7.600,142.200 7.600 C 141.870 7.600,141.600 7.760,141.600 7.957 C 141.600 8.153,141.183 8.418,140.674 8.546 C 140.164 8.674,139.309 9.140,138.774 9.582 C 138.238 10.024,137.609 10.544,137.375 10.738 C 137.141 10.933,136.524 11.319,136.005 11.598 C 134.594 12.353,126.082 21.080,125.336 22.537 C 124.980 23.231,124.578 23.890,124.444 24.000 C 123.913 24.435,122.400 26.792,122.400 27.184 C 122.400 27.413,122.248 27.600,122.063 27.600 C 121.877 27.600,121.292 28.455,120.763 29.500 C 120.233 30.545,119.665 31.460,119.500 31.533 C 119.335 31.607,119.200 32.012,119.200 32.433 C 119.200 32.855,119.020 33.200,118.800 33.200 C 118.580 33.200,118.400 33.560,118.400 34.000 C 118.400 34.440,118.220 34.800,118.000 34.800 C 117.780 34.800,117.600 35.340,117.600 36.000 C 117.600 36.660,117.420 37.200,117.200 37.200 C 116.980 37.200,116.800 37.639,116.800 38.176 C 116.800 38.713,116.620 39.264,116.400 39.400 C 116.180 39.536,116.000 40.177,116.000 40.824 C 116.000 41.471,115.820 42.000,115.600 42.000 C 115.380 42.000,115.200 42.630,115.200 43.400 C 115.200 44.170,115.020 44.800,114.800 44.800 C 114.580 44.800,114.400 45.689,114.400 46.776 C 114.400 47.863,114.220 48.864,114.000 49.000 C 113.742 49.160,113.600 56.664,113.600 70.204 L 113.600 91.161 150.667 91.281 C 179.879 91.375,187.769 91.506,187.900 91.900 C 187.992 92.175,188.412 92.400,188.833 92.400 C 189.255 92.400,189.600 92.580,189.600 92.800 C 189.600 93.020,189.845 93.200,190.145 93.200 C 192.918 93.200,196.956 105.081,194.465 105.912 C 194.207 105.998,194.088 106.218,194.201 106.402 C 194.315 106.585,194.091 107.052,193.704 107.439 C 193.317 107.826,193.090 108.195,193.200 108.259 C 194.334 108.916,188.293 112.737,185.900 112.876 C 185.075 112.924,184.400 113.107,184.400 113.282 C 184.400 113.457,153.991 113.600,116.824 113.600 C 72.204 113.600,49.163 113.736,49.000 114.000 C 48.864 114.220,47.863 114.400,46.776 114.400 C 45.689 114.400,44.800 114.580,44.800 114.800 C 44.800 115.020,44.170 115.200,43.400 115.200 C 42.630 115.200,42.000 115.380,42.000 115.600 C 42.000 115.820,41.471 116.000,40.824 116.000 C 40.177 116.000,39.536 116.180,39.400 116.400 C 39.264 116.620,38.713 116.800,38.176 116.800 C 37.639 116.800,37.200 116.980,37.200 117.200 C 37.200 117.420,36.660 117.600,36.000 117.600 C 35.340 117.600,34.799 117.735,34.797 117.900 C 34.793 118.259,32.856 119.200,32.120 119.200 C 31.834 119.200,31.600 119.380,31.600 119.600 C 31.600 119.820,31.330 120.000,31.000 120.000 C 30.670 120.000,30.400 120.180,30.400 120.400 C 30.400 120.620,30.113 120.800,29.762 120.800 C 29.108 120.800,26.706 122.320,26.467 122.886 C 26.393 123.058,26.061 123.200,25.727 123.200 C 25.394 123.200,24.608 123.749,23.982 124.420 C 23.355 125.091,22.743 125.631,22.621 125.620 C 22.499 125.609,22.234 125.600,22.032 125.600 C 21.542 125.600,11.600 135.477,11.600 135.963 C 11.600 136.172,11.375 136.581,11.100 136.871 C 10.078 137.952,8.400 140.663,8.400 141.233 C 8.400 141.558,8.040 142.083,7.600 142.400 C 7.160 142.717,6.800 143.207,6.800 143.488 C 6.800 143.770,6.620 144.000,6.400 144.000 C 6.180 144.000,6.000 144.253,6.000 144.562 C 6.000 145.228,4.332 148.541,3.900 148.733 C 3.735 148.807,3.600 149.392,3.600 150.033 C 3.600 150.675,3.420 151.200,3.200 151.200 C 2.980 151.200,2.800 151.639,2.800 152.176 C 2.800 152.713,2.620 153.264,2.400 153.400 C 2.180 153.536,2.000 154.177,2.000 154.824 C 2.000 155.471,1.820 156.000,1.600 156.000 C 1.380 156.000,1.200 156.594,1.200 157.320 C 1.200 158.046,0.975 158.865,0.700 159.140 C -0.032 159.872,-0.032 240.128,0.700 240.860 C 0.975 241.135,1.200 241.954,1.200 242.680 C 1.200 243.406,1.380 244.000,1.600 244.000 C 1.820 244.000,2.000 244.540,2.000 245.200 C 2.000 245.860,2.180 246.400,2.400 246.400 C 2.620 246.400,2.800 246.940,2.800 247.600 C 2.800 248.260,2.980 248.800,3.200 248.800 C 3.420 248.800,3.600 249.351,3.600 250.024 C 3.600 250.737,3.767 251.144,4.000 251.000 C 4.227 250.860,4.400 251.196,4.400 251.776 C 4.400 252.339,4.580 252.800,4.800 252.800 C 5.020 252.800,5.200 253.160,5.200 253.600 C 5.200 254.040,5.346 254.400,5.525 254.400 C 5.704 254.400,6.098 255.030,6.400 255.800 C 6.702 256.570,7.096 257.200,7.275 257.200 C 7.454 257.200,7.600 257.470,7.600 257.800 C 7.600 258.130,7.780 258.400,8.000 258.400 C 8.220 258.400,8.400 258.615,8.400 258.878 C 8.400 259.360,10.169 262.144,11.100 263.129 C 11.375 263.419,11.600 263.822,11.600 264.024 C 11.600 264.728,21.152 273.918,22.800 274.800 C 23.322 275.080,24.079 275.615,24.482 275.990 C 24.884 276.365,25.705 276.926,26.307 277.236 C 26.908 277.546,27.749 278.115,28.175 278.500 C 28.602 278.885,29.288 279.200,29.699 279.200 C 30.111 279.200,30.336 279.380,30.200 279.600 C 30.064 279.820,30.323 280.000,30.776 280.000 C 31.229 280.000,31.600 280.180,31.600 280.400 C 31.600 280.620,31.960 280.800,32.400 280.800 C 32.840 280.800,33.200 280.980,33.200 281.200 C 33.200 281.420,33.560 281.600,34.000 281.600 C 34.440 281.600,34.800 281.780,34.800 282.000 C 34.800 282.220,35.340 282.400,36.000 282.400 C 36.660 282.400,37.200 282.580,37.200 282.800 C 37.200 283.020,37.740 283.200,38.400 283.200 C 39.060 283.200,39.600 283.380,39.600 283.600 C 39.600 283.820,40.140 284.000,40.800 284.000 C 41.460 284.000,42.000 284.180,42.000 284.400 C 42.000 284.620,42.630 284.800,43.400 284.800 C 44.170 284.800,44.800 284.980,44.800 285.200 C 44.800 285.420,45.700 285.600,46.800 285.600 C 47.900 285.600,48.800 285.781,48.800 286.002 C 48.800 286.270,59.706 286.370,81.300 286.302 L 113.800 286.200 114.027 256.000 C 114.260 224.974,114.283 224.568,115.984 220.200 C 119.324 211.625,127.140 204.058,135.237 201.560 C 140.317 199.992,138.784 200.029,199.754 200.014 C 240.469 200.004,259.013 199.867,260.154 199.568 C 261.059 199.331,262.520 198.950,263.400 198.723 C 274.366 195.886,283.433 185.675,285.533 173.800 C 286.161 170.244,286.667 49.012,286.055 48.634 C 285.805 48.479,285.600 47.654,285.600 46.800 C 285.600 45.946,285.420 45.136,285.200 45.000 C 284.980 44.864,284.800 44.133,284.800 43.376 C 284.800 42.619,284.620 42.000,284.400 42.000 C 284.180 42.000,284.000 41.637,284.000 41.194 C 284.000 40.067,283.069 37.200,282.703 37.200 C 282.536 37.200,282.400 36.660,282.400 36.000 C 282.400 35.340,282.220 34.800,282.000 34.800 C 281.780 34.800,281.600 34.440,281.600 34.000 C 281.600 33.560,281.420 33.200,281.200 33.200 C 280.980 33.200,280.800 32.840,280.800 32.400 C 280.800 31.960,280.620 31.600,280.400 31.600 C 280.180 31.600,280.000 31.240,280.000 30.800 C 280.000 30.360,279.820 30.000,279.600 30.000 C 279.380 30.000,279.200 29.680,279.200 29.288 C 279.200 28.897,278.840 28.317,278.400 28.000 C 277.960 27.683,277.600 27.103,277.600 26.712 C 277.600 26.320,277.420 26.000,277.200 26.000 C 276.980 26.000,276.800 25.796,276.800 25.547 C 276.800 25.298,276.467 24.803,276.059 24.447 C 275.652 24.091,275.018 23.216,274.651 22.503 C 273.861 20.970,264.202 11.200,263.477 11.200 C 263.202 11.200,262.728 10.855,262.424 10.434 C 262.121 10.013,261.091 9.346,260.136 8.952 C 259.181 8.558,258.400 8.093,258.400 7.918 C 258.400 7.743,258.130 7.600,257.800 7.600 C 257.470 7.600,257.200 7.454,257.200 7.275 C 257.200 7.096,256.570 6.702,255.800 6.400 C 255.030 6.098,254.400 5.704,254.400 5.525 C 254.400 5.346,254.040 5.200,253.600 5.200 C 253.160 5.200,252.800 5.020,252.800 4.800 C 252.800 4.580,252.440 4.400,252.000 4.400 C 251.560 4.400,251.200 4.220,251.200 4.000 C 251.200 3.780,250.660 3.600,250.000 3.600 C 249.340 3.600,248.800 3.420,248.800 3.200 C 248.800 2.980,248.260 2.800,247.600 2.800 C 246.940 2.800,246.400 2.620,246.400 2.400 C 246.400 2.180,245.860 2.000,245.200 2.000 C 244.540 2.000,244.000 1.820,244.000 1.600 C 244.000 1.380,243.406 1.200,242.680 1.200 C 241.954 1.200,241.135 0.975,240.860 0.700 C 240.379 0.219,166.180 -0.166,161.200 0.287 M176.661 36.857 C 188.693 41.359,185.494 59.200,172.656 59.200 C 160.825 59.200,156.630 42.096,167.324 37.462 C 168.026 37.158,169.050 36.716,169.600 36.481 C 171.234 35.783,174.215 35.942,176.661 36.857 " stroke="none" fill="#66dbe6" fill-rule="evenodd"></path><path id="path1" d="M169.600 36.481 C 169.050 36.716,168.026 37.158,167.324 37.462 C 160.235 40.534,159.066 51.257,165.244 56.545 C 174.112 64.136,187.634 54.673,183.543 43.739 C 181.489 38.249,174.264 34.489,169.600 36.481 M222.567 341.754 C 218.587 343.608,215.600 348.031,215.600 352.072 C 215.600 365.295,233.754 368.466,238.423 356.059 C 241.893 346.841,231.595 337.551,222.567 341.754 " stroke="none" fill="#515164" fill-rule="evenodd"></path><path id="path2" d="M286.243 114.233 C 286.109 114.581,286.000 128.223,286.000 144.549 C 286.000 169.735,285.908 174.583,285.396 176.552 C 282.253 188.617,272.040 198.037,260.000 199.975 C 258.365 200.239,246.745 200.395,228.700 200.397 L 200.000 200.400 200.000 300.232 L 200.000 400.064 220.467 399.932 C 236.390 399.829,240.971 399.689,241.100 399.300 C 241.192 399.025,241.882 398.800,242.633 398.800 C 243.385 398.800,244.000 398.620,244.000 398.400 C 244.000 398.180,244.540 398.000,245.200 398.000 C 245.860 398.000,246.400 397.820,246.400 397.600 C 246.400 397.380,246.940 397.200,247.600 397.200 C 248.260 397.200,248.800 397.020,248.800 396.800 C 248.800 396.580,249.340 396.400,250.000 396.400 C 250.660 396.400,251.200 396.220,251.200 396.000 C 251.200 395.780,251.560 395.600,252.000 395.600 C 252.440 395.600,252.800 395.420,252.800 395.200 C 252.800 394.980,253.160 394.800,253.600 394.800 C 254.040 394.800,254.400 394.620,254.400 394.400 C 254.400 394.180,254.760 394.000,255.200 394.000 C 255.640 394.000,256.000 393.820,256.000 393.600 C 256.000 393.380,256.158 393.200,256.352 393.200 C 256.890 393.200,261.287 390.549,262.286 389.622 C 262.773 389.170,263.349 388.800,263.566 388.800 C 264.245 388.800,273.863 379.025,274.609 377.577 C 274.999 376.820,275.652 375.909,276.059 375.553 C 276.467 375.197,276.800 374.702,276.800 374.453 C 276.800 374.204,276.980 374.000,277.200 374.000 C 277.420 374.000,277.600 373.764,277.600 373.475 C 277.600 373.187,277.960 372.564,278.400 372.092 C 278.840 371.620,279.200 370.956,279.200 370.617 C 279.200 370.278,279.380 370.000,279.600 370.000 C 279.820 370.000,280.000 369.640,280.000 369.200 C 280.000 368.760,280.180 368.400,280.400 368.400 C 280.620 368.400,280.800 368.040,280.800 367.600 C 280.800 367.160,280.980 366.800,281.200 366.800 C 281.420 366.800,281.600 366.440,281.600 366.000 C 281.600 365.560,281.780 365.200,282.000 365.200 C 282.220 365.200,282.400 364.660,282.400 364.000 C 282.400 363.340,282.541 362.800,282.713 362.800 C 282.885 362.800,283.257 361.945,283.539 360.900 C 283.822 359.855,284.221 358.687,284.427 358.305 C 284.632 357.923,284.800 357.068,284.800 356.405 C 284.800 355.742,284.980 355.200,285.200 355.200 C 285.420 355.200,285.600 354.300,285.600 353.200 C 285.600 352.100,285.780 351.200,286.000 351.200 C 286.262 351.200,286.400 343.874,286.400 330.021 L 286.400 308.842 249.333 308.721 C 220.122 308.626,212.231 308.494,212.100 308.100 C 212.008 307.825,211.628 307.600,211.255 307.600 C 210.882 307.600,210.317 307.240,210.000 306.800 C 209.683 306.360,209.259 306.000,209.059 306.000 C 208.566 306.000,207.280 304.483,206.985 303.552 C 206.854 303.139,206.578 302.800,206.373 302.800 C 206.168 302.800,206.000 302.440,206.000 302.000 C 206.000 301.560,205.820 301.200,205.600 301.200 C 205.363 301.200,205.200 299.733,205.200 297.600 C 205.200 295.467,205.363 294.000,205.600 294.000 C 205.820 294.000,206.000 293.717,206.000 293.371 C 206.000 293.026,206.225 292.496,206.500 292.195 C 206.775 291.894,207.450 291.012,208.000 290.235 C 208.550 289.458,209.315 288.817,209.700 288.811 C 210.085 288.805,210.400 288.620,210.400 288.400 C 210.400 288.180,210.760 288.000,211.200 288.000 C 211.640 288.000,212.000 287.820,212.000 287.600 C 212.000 287.380,212.799 287.200,213.776 287.200 C 214.753 287.200,215.664 287.020,215.800 286.800 C 215.963 286.536,239.004 286.400,283.624 286.400 C 328.408 286.400,351.200 286.265,351.200 286.000 C 351.200 285.780,352.100 285.600,353.200 285.600 C 354.300 285.600,355.200 285.420,355.200 285.200 C 355.200 284.980,355.819 284.800,356.576 284.800 C 357.333 284.800,358.064 284.620,358.200 284.400 C 358.336 284.180,358.887 284.000,359.424 284.000 C 359.961 284.000,360.400 283.820,360.400 283.600 C 360.400 283.380,360.940 283.200,361.600 283.200 C 362.260 283.200,362.800 283.020,362.800 282.800 C 362.800 282.580,363.340 282.400,364.000 282.400 C 364.660 282.400,365.200 282.220,365.200 282.000 C 365.200 281.780,365.560 281.600,366.000 281.600 C 366.440 281.600,366.800 281.420,366.800 281.200 C 366.800 280.980,367.160 280.800,367.600 280.800 C 368.040 280.800,368.400 280.620,368.400 280.400 C 368.400 280.180,368.745 280.000,369.167 280.000 C 369.588 280.000,369.993 279.865,370.067 279.700 C 370.234 279.324,372.364 278.025,373.300 277.729 C 373.685 277.607,374.000 277.348,374.000 277.153 C 374.000 276.959,374.204 276.800,374.453 276.800 C 374.702 276.800,375.197 276.467,375.553 276.059 C 375.909 275.652,376.820 274.999,377.577 274.609 C 379.025 273.863,388.800 264.245,388.800 263.566 C 388.800 263.349,389.170 262.773,389.622 262.286 C 390.549 261.287,393.200 256.890,393.200 256.352 C 393.200 256.158,393.380 256.000,393.600 256.000 C 393.820 256.000,394.000 255.640,394.000 255.200 C 394.000 254.760,394.180 254.400,394.400 254.400 C 394.620 254.400,394.800 254.040,394.800 253.600 C 394.800 253.160,394.980 252.800,395.200 252.800 C 395.420 252.800,395.600 252.440,395.600 252.000 C 395.600 251.560,395.780 251.200,396.000 251.200 C 396.220 251.200,396.400 250.660,396.400 250.000 C 396.400 249.340,396.580 248.800,396.800 248.800 C 397.020 248.800,397.200 248.451,397.200 248.024 C 397.200 247.597,397.380 247.136,397.600 247.000 C 397.820 246.864,398.000 246.133,398.000 245.376 C 398.000 244.619,398.180 244.000,398.400 244.000 C 398.620 244.000,398.800 243.385,398.800 242.633 C 398.800 241.882,399.025 241.192,399.300 241.100 C 399.696 240.968,399.800 232.408,399.800 200.087 C 399.800 167.943,399.693 159.134,399.300 158.740 C 399.025 158.465,398.800 157.736,398.800 157.120 C 398.800 156.504,398.620 156.000,398.400 156.000 C 398.180 156.000,398.000 155.381,398.000 154.624 C 398.000 153.867,397.820 153.136,397.600 153.000 C 397.380 152.864,397.200 152.403,397.200 151.976 C 397.200 151.549,397.020 151.200,396.800 151.200 C 396.580 151.200,396.400 150.660,396.400 150.000 C 396.400 149.340,396.220 148.800,396.000 148.800 C 395.780 148.800,395.600 148.440,395.600 148.000 C 395.600 147.560,395.420 147.200,395.200 147.200 C 394.980 147.200,394.800 146.840,394.800 146.400 C 394.800 145.960,394.620 145.600,394.400 145.600 C 394.180 145.600,394.000 145.240,394.000 144.800 C 394.000 144.360,393.820 144.000,393.600 144.000 C 393.380 144.000,393.200 143.842,393.200 143.648 C 393.200 143.110,390.549 138.713,389.622 137.714 C 389.170 137.227,388.800 136.653,388.800 136.438 C 388.800 135.857,379.740 126.794,379.449 127.084 C 379.312 127.221,379.200 127.055,379.200 126.715 C 379.200 126.375,378.637 125.864,377.948 125.579 C 377.260 125.293,376.278 124.642,375.766 124.130 C 375.255 123.619,374.648 123.200,374.418 123.200 C 374.188 123.200,374.000 123.041,374.000 122.847 C 374.000 122.652,373.685 122.393,373.300 122.271 C 372.364 121.975,370.234 120.676,370.067 120.300 C 369.993 120.135,369.588 120.000,369.167 120.000 C 368.745 120.000,368.400 119.820,368.400 119.600 C 368.400 119.380,368.040 119.200,367.600 119.200 C 367.160 119.200,366.800 119.020,366.800 118.800 C 366.800 118.580,366.440 118.400,366.000 118.400 C 365.560 118.400,365.200 118.220,365.200 118.000 C 365.200 117.780,364.660 117.600,364.000 117.600 C 363.340 117.600,362.800 117.459,362.800 117.287 C 362.800 117.115,361.945 116.743,360.900 116.461 C 359.855 116.178,358.687 115.779,358.305 115.573 C 357.923 115.368,357.169 115.200,356.629 115.200 C 356.089 115.200,355.536 115.020,355.400 114.800 C 355.264 114.580,354.364 114.400,353.400 114.400 C 352.436 114.400,351.536 114.220,351.400 114.000 C 350.931 113.242,286.535 113.472,286.243 114.233 M232.135 341.787 C 237.707 344.422,240.455 350.661,238.423 356.059 C 233.754 368.466,215.600 365.295,215.600 352.072 C 215.600 349.537,217.010 346.330,219.047 344.233 C 222.399 340.781,227.855 339.762,232.135 341.787 " stroke="none" fill="#fbdc04" fill-rule="evenodd"></path><path id="path3" d="M214.929 200.300 C 223.031 200.360,236.171 200.360,244.129 200.300 C 252.088 200.239,245.460 200.190,229.400 200.190 C 213.340 200.190,206.828 200.239,214.929 200.300 M140.600 201.028 C 135.837 201.924,135.500 202.031,131.800 203.818 C 125.420 206.900,120.277 212.108,117.599 218.200 C 114.448 225.371,114.400 225.965,114.400 258.066 C 114.400 276.370,114.261 285.979,113.993 286.247 C 113.021 287.219,113.844 353.524,114.841 354.580 C 115.038 354.789,115.200 355.644,115.200 356.480 C 115.200 357.316,115.380 358.000,115.600 358.000 C 115.820 358.000,116.000 358.540,116.000 359.200 C 116.000 359.860,116.180 360.400,116.400 360.400 C 116.620 360.400,116.800 360.762,116.800 361.205 C 116.800 361.648,116.980 362.368,117.200 362.805 C 117.420 363.242,117.780 363.958,118.000 364.395 C 118.220 364.832,118.400 365.462,118.400 365.795 C 118.400 366.128,118.580 366.400,118.800 366.400 C 119.020 366.400,119.204 366.715,119.209 367.100 C 119.214 367.485,119.570 368.250,120.000 368.800 C 120.430 369.350,120.786 370.025,120.791 370.300 C 120.796 370.575,120.946 370.800,121.125 370.800 C 121.304 370.800,121.698 371.430,122.000 372.200 C 122.302 372.970,122.696 373.600,122.875 373.600 C 123.054 373.600,123.200 373.870,123.200 374.200 C 123.200 374.530,123.380 374.800,123.600 374.800 C 123.820 374.800,124.000 374.982,124.000 375.204 C 124.000 375.426,124.540 376.172,125.200 376.863 C 125.860 377.554,126.402 378.317,126.405 378.559 C 126.412 379.146,132.925 385.839,135.200 387.597 C 136.190 388.362,137.238 389.216,137.529 389.494 C 137.819 389.772,138.197 390.000,138.367 390.000 C 138.538 390.000,139.093 390.360,139.600 390.800 C 140.107 391.240,140.815 391.600,141.173 391.600 C 141.531 391.600,142.083 391.960,142.400 392.400 C 142.717 392.840,143.297 393.200,143.688 393.200 C 144.080 393.200,144.400 393.380,144.400 393.600 C 144.400 393.820,144.760 394.000,145.200 394.000 C 145.640 394.000,146.000 394.180,146.000 394.400 C 146.000 394.620,146.360 394.800,146.800 394.800 C 147.240 394.800,147.600 394.980,147.600 395.200 C 147.600 395.420,147.949 395.600,148.376 395.600 C 148.803 395.600,149.264 395.780,149.400 396.000 C 149.536 396.220,149.997 396.400,150.424 396.400 C 150.851 396.400,151.200 396.580,151.200 396.800 C 151.200 397.020,151.740 397.200,152.400 397.200 C 153.060 397.200,153.600 397.380,153.600 397.600 C 153.600 397.820,154.140 398.000,154.800 398.000 C 155.460 398.000,156.000 398.180,156.000 398.400 C 156.000 398.620,156.705 398.800,157.567 398.800 C 158.465 398.800,159.204 399.013,159.300 399.300 C 159.429 399.689,163.968 399.829,179.733 399.929 L 200.000 400.059 200.000 300.229 L 200.000 200.400 171.700 200.450 C 150.145 200.489,142.733 200.626,140.600 201.028 " stroke="none" fill="#fcec54" fill-rule="evenodd"></path><path id="path4" d="M285.454 173.954 C 285.300 174.918,285.258 175.791,285.361 175.894 C 285.630 176.163,286.115 173.345,285.907 172.722 C 285.812 172.436,285.608 172.990,285.454 173.954 M284.600 177.600 C 284.450 178.073,284.417 178.550,284.527 178.660 C 284.637 178.770,284.850 178.473,285.000 178.000 C 285.150 177.527,285.183 177.050,285.073 176.940 C 284.963 176.830,284.750 177.127,284.600 177.600 M280.814 185.778 C 279.890 187.196,278.871 188.575,278.549 188.843 C 278.226 189.110,277.587 189.885,277.127 190.564 C 276.546 191.425,276.809 191.253,277.993 190.000 C 279.683 188.213,281.447 185.827,282.355 184.100 C 283.267 182.365,282.478 183.224,280.814 185.778 M275.169 192.238 C 274.085 193.543,268.385 197.078,266.243 197.773 C 265.826 197.908,265.596 198.130,265.732 198.265 C 266.067 198.600,271.423 195.802,273.400 194.260 C 275.535 192.594,276.133 192.000,275.905 191.771 C 275.800 191.666,275.469 191.876,275.169 192.238 M263.200 198.800 C 262.405 199.314,263.404 199.314,264.600 198.800 L 265.400 198.456 264.600 198.434 C 264.160 198.422,263.530 198.587,263.200 198.800 M259.800 199.600 L 259.000 199.944 259.800 199.932 C 260.240 199.926,261.050 199.776,261.600 199.600 L 262.600 199.280 261.600 199.268 C 261.050 199.262,260.240 199.411,259.800 199.600 M139.200 200.440 C 135.607 201.384,134.381 201.831,131.392 203.289 C 123.165 207.303,117.147 214.832,114.678 224.200 C 114.188 226.059,113.625 286.432,114.100 286.138 C 114.265 286.036,114.400 273.429,114.400 258.123 C 114.400 225.959,114.447 225.372,117.599 218.200 C 120.819 210.875,129.540 203.356,136.600 201.818 C 137.260 201.675,138.610 201.359,139.600 201.118 C 140.773 200.831,151.704 200.592,171.000 200.429 L 200.600 200.180 170.600 200.126 C 153.440 200.095,140.001 200.230,139.200 200.440 " stroke="none" fill="#e0ec74" fill-rule="evenodd"></path></g></svg>