<svg xmlns="http://www.w3.org/2000/svg" viewBox="0 0 254 254"><defs><style>.cls-1{fill:#20232a;}.cls-2{fill:#61dafb;}</style></defs><g id="Layer_2" data-name="Layer 2"><g id="Layer_1-2" data-name="Layer 1"><circle class="cls-1" cx="127" cy="127" r="127"/><path class="cls-2" d="M234.6,127.2c0-14.24-17.83-27.74-45.17-36.11,6.31-27.86,3.5-50-8.85-57.13a19.18,19.18,0,0,0-9.82-2.46v9.77a10.21,10.21,0,0,1,5,1.14c6,3.42,8.54,16.44,6.52,33.17C181.8,79.7,181,84,180.05,88.47a211.06,211.06,0,0,0-27.83-4.78A213.57,213.57,0,0,0,134,61.78c14.28-13.28,27.69-20.55,36.8-20.55V31.46C158.75,31.46,143,40.05,127,55c-16-14.82-31.72-23.32-43.77-23.32v9.78c9.07,0,22.52,7.23,36.8,20.41A207.12,207.12,0,0,0,102,83.69,203.8,203.8,0,0,0,74.1,88.51c-1-4.38-1.75-8.63-2.28-12.71-2.06-16.74.48-29.75,6.4-33.21a9.72,9.72,0,0,1,5-1.14V31.68a19.64,19.64,0,0,0-9.91,2.45c-12.31,7.1-15.07,29.23-8.72,57-27.25,8.41-45,21.87-45,36.06s17.84,27.74,45.18,36.11c-6.31,27.87-3.5,50,8.85,57.14a19.32,19.32,0,0,0,9.86,2.45c12,0,27.83-8.59,43.77-23.49,16,14.82,31.73,23.32,43.78,23.32a19.48,19.48,0,0,0,9.9-2.46c12.31-7.1,15.08-29.23,8.72-57,27.17-8.37,44.92-21.86,44.92-36.06ZM177.55,98c-1.62,5.66-3.63,11.48-5.91,17.31-1.8-3.5-3.68-7-5.74-10.51s-4.17-6.93-6.31-10.26c6.22.92,12.22,2.06,18,3.46Zm-20.07,46.67c-3.41,5.92-6.92,11.52-10.56,16.74-6.53.57-13.14.88-19.8.88s-13.24-.31-19.72-.84c-3.64-5.21-7.19-10.78-10.61-16.65s-6.35-11.57-9.11-17.44c2.72-5.87,5.78-11.74,9.07-17.48,3.42-5.92,6.92-11.53,10.56-16.74,6.53-.57,13.15-.88,19.81-.88s13.23.31,19.72.84c3.63,5.21,7.18,10.78,10.6,16.65s6.35,11.57,9.11,17.44c-2.76,5.87-5.78,11.74-9.07,17.48Zm14.16-5.7c2.36,5.88,4.38,11.75,6,17.44-5.74,1.41-11.78,2.59-18.05,3.51,2.15-3.37,4.29-6.84,6.31-10.39s3.9-7.05,5.7-10.56ZM127.21,185.7a183.4,183.4,0,0,1-12.19-14c4,.17,8,.3,12.06.3s8.19-.08,12.18-.3A174.24,174.24,0,0,1,127.21,185.7Zm-32.6-25.81c-6.23-.92-12.23-2.06-18-3.46,1.62-5.66,3.64-11.48,5.92-17.31,1.79,3.5,3.68,7,5.74,10.52s4.16,6.92,6.31,10.25ZM127,68.7a183.35,183.35,0,0,1,12.18,14c-3.94-.17-8-.3-12-.3s-8.2.08-12.18.3A172.25,172.25,0,0,1,127,68.7ZM94.56,94.51c-2.15,3.37-4.29,6.84-6.31,10.38s-3.9,7-5.69,10.52c-2.37-5.87-4.39-11.74-6-17.44C82.25,96.61,88.3,95.43,94.56,94.51ZM54.9,149.37c-15.51-6.62-25.54-15.29-25.54-22.17s10-15.6,25.54-22.17c3.77-1.62,7.89-3.07,12.14-4.43a211.69,211.69,0,0,0,9.86,26.69,208.62,208.62,0,0,0-9.73,26.55c-4.33-1.36-8.45-2.85-12.27-4.47ZM78.48,212c-6-3.42-8.55-16.44-6.53-33.17.48-4.12,1.27-8.46,2.23-12.89A211.06,211.06,0,0,0,102,170.71a212.33,212.33,0,0,0,18.23,21.91C106,205.9,92.54,213.17,83.43,213.17a10.46,10.46,0,0,1-5-1.18ZM182.42,178.6c2.06,16.74-.48,29.75-6.4,33.21a9.72,9.72,0,0,1-5,1.14c-9.07,0-22.52-7.23-36.81-20.42a207,207,0,0,0,18.1-21.86,207.18,207.18,0,0,0,27.87-4.82,121.09,121.09,0,0,1,2.28,12.75Zm16.87-29.23c-3.77,1.62-7.89,3.07-12.14,4.43a210.15,210.15,0,0,0-9.86-26.69A207.1,207.1,0,0,0,187,100.56c4.34,1.35,8.46,2.84,12.31,4.47,15.51,6.61,25.55,15.29,25.55,22.17s-10.08,15.6-25.59,22.17Z"/><path class="cls-2" d="M127.07,147.23a20,20,0,1,0-20-20A20,20,0,0,0,127.07,147.23Z"/></g></g></svg>