<svg width="301" height="268" viewBox="0 0 301 268" fill="none" xmlns="http://www.w3.org/2000/svg">
<path d="M158.123 26.3622C184.057 3.79386 209.736 -5.64697 225.437 3.40809C241.812 12.8495 246.608 41.5304 239.273 77.1327C238.815 79.3444 238.316 81.5479 237.776 83.7411C241.031 84.6772 244.262 85.6949 247.466 86.7938C279.972 97.9841 300.979 115.514 300.979 133.639C300.978 152.541 278.53 171.023 244.025 182.454C242.202 183.059 240.333 183.64 238.428 184.202C239.107 186.935 239.713 189.619 240.232 192.247C247.044 226.654 241.799 254.935 225.655 264.28C210.024 273.329 184.761 264.44 159.181 242.429C156.4 240.03 153.687 237.554 151.045 235.005C148.947 237.033 146.851 238.969 144.764 240.794C118.355 263.878 91.2359 273.455 75.0771 264.138C59.4326 255.113 54.5155 228.789 60.8105 195.635C61.4984 192.032 62.2867 188.448 63.1748 184.889C60.4413 184.108 57.7273 183.26 55.0361 182.345C21.8453 171.001 0.000303035 152.292 0 133.639C0 115.579 20.3505 98.1666 52.2148 87.0575C55.7765 85.8161 59.4998 84.6494 63.3545 83.5546C62.5287 80.251 61.7878 76.9261 61.1309 73.5848C54.5282 39.845 59.1737 12.8811 74.8594 3.80066C91.2179 -5.66866 118.462 4.50019 145.642 28.6337C147.332 30.1381 148.995 31.6741 150.629 33.2401C153.069 30.885 155.568 28.5911 158.123 26.3622ZM225.991 187.464C213.525 190.345 199.778 192.456 185.227 193.747C176.955 205.722 168.479 216.506 159.998 225.782C162.532 228.22 165.059 230.524 167.567 232.682C189.442 251.506 209.727 258.643 219.212 253.152C223.669 250.572 227.273 244.131 229.066 234.469C231.062 223.715 230.632 209.959 227.62 194.745C227.15 192.37 226.604 189.941 225.991 187.464ZM75.6416 188.039C74.8167 191.349 74.0834 194.681 73.4434 198.032C68.0607 226.384 72.0064 247.523 81.501 252.998C85.9619 255.57 93.3426 255.477 102.609 252.204H102.611C112.924 248.561 124.625 241.32 136.303 231.111C138.257 229.398 140.169 227.638 142.037 225.831C133.249 216.399 124.528 205.629 116.201 193.911C101.616 192.728 87.9693 190.766 75.6416 188.039ZM168.658 194.845C162.689 195.111 156.625 195.248 150.489 195.248C144.518 195.248 138.642 195.134 132.88 194.907C138.817 202.73 144.894 210.003 150.988 216.579C156.878 210.093 162.797 202.81 168.658 194.845ZM150.49 85.4218C141.213 85.4218 132.035 85.7763 123.084 86.453C117.927 94.0097 113.059 101.759 108.49 109.685V109.683C103.92 117.608 99.65 125.702 95.6885 133.947C99.6602 142.19 103.944 150.28 108.529 158.198C113.136 166.158 118.043 173.942 123.238 181.531C132.012 182.1 141.124 182.391 150.489 182.391C159.893 182.391 169.122 182.063 178.052 181.425C183.116 173.818 187.931 166.048 192.49 158.128C197.089 150.163 201.405 142.036 205.425 133.765C201.363 125.576 197.035 117.522 192.449 109.615C187.889 101.729 183.052 94.006 177.947 86.4608C168.999 85.7788 159.809 85.4218 150.49 85.4218ZM88.8682 149.065C85.0439 158.136 81.7697 167.056 79.1123 175.637C87.6971 177.505 96.9937 178.996 106.851 180.097C103.578 175.02 100.428 169.866 97.4014 164.64C94.4354 159.516 91.59 154.323 88.8682 149.065ZM212.357 148.603C209.567 153.983 206.656 159.3 203.629 164.551C200.651 169.717 197.57 174.823 194.389 179.866C204.316 178.675 213.737 177.071 222.465 175.08C219.771 166.644 216.38 157.773 212.357 148.603ZM66.8076 95.9393C63.3235 96.9245 59.8687 98.0118 56.4482 99.1991C29.1966 108.7 12.8564 122.68 12.8564 133.639C12.8566 138.789 16.6264 145.137 24.0908 151.53C32.3986 158.643 44.5191 165.162 59.1953 170.179C61.6524 171.015 64.1298 171.79 66.625 172.504C70.4266 160.109 75.4382 147.097 81.4775 133.951C75.5154 120.998 70.5746 108.19 66.8076 95.9393ZM234.333 96.1288C230.63 108.11 225.688 120.768 219.685 133.702C225.974 146.949 231.116 159.772 234.926 171.831C236.647 171.321 238.336 170.795 239.981 170.25C269.772 160.378 288.122 145.274 288.122 133.639C288.122 122.716 271.133 108.539 243.28 98.952C240.401 97.9597 237.411 97.0212 234.333 96.1288ZM194.425 88.122C197.583 93.0728 200.635 98.0914 203.577 103.174C206.567 108.336 209.454 113.558 212.235 118.836C216.042 109.925 219.275 101.231 221.868 92.9179C213.229 90.9452 204.029 89.3341 194.425 88.122ZM106.576 88.0975C97.035 89.2897 87.8775 90.86 79.29 92.7821C81.9061 101.214 85.1092 109.946 88.8535 118.826C91.5639 113.572 94.3971 108.383 97.3496 103.262C100.306 98.1355 103.382 93.0792 106.576 88.0975ZM219.015 14.5458C209.552 9.08895 188.785 16.7245 166.564 36.0624C164.205 38.1209 161.897 40.2379 159.643 42.411C168.245 51.6791 176.814 62.3868 185.084 74.163C199.281 75.495 212.841 77.6402 225.327 80.5214C225.814 78.5353 226.266 76.5403 226.681 74.538C233.013 43.7989 229.093 20.3587 219.015 14.5458ZM137.104 38.2479C113.636 17.4114 91.3719 9.09998 81.3018 14.9286C71.8484 20.4005 68.0919 42.2072 73.749 71.1161C74.3605 74.2239 75.0501 77.3145 75.8174 80.3876C88.2744 77.565 101.825 75.4584 115.98 74.1464C124.235 62.4965 132.876 51.8063 141.619 42.4169C140.11 40.9744 138.603 39.5799 137.104 38.2479ZM150.633 51.6054C144.609 58.1043 138.619 65.2683 132.771 72.9794C144.623 72.4247 156.494 72.4272 168.345 72.9872C162.503 65.2042 156.563 58.0297 150.633 51.6054Z" fill="#C7522A"/>
<path d="M149.876 107C164.72 107 176.752 119.033 176.752 133.876C176.752 148.72 164.72 160.754 149.876 160.754C135.033 160.754 123 148.72 123 133.876C123 119.033 135.033 107 149.876 107Z" fill="#C7522A"/>
</svg>
