<?xml version="1.0" encoding="UTF-8"?>
<svg viewBox="0 0 646 646" xmlns="http://www.w3.org/2000/svg">
<circle cx="323" cy="323" r="323" fill="#20232A"/>
<path d="m596.67 323.51c0-36.22-45.358-70.544-114.9-91.83 16.048-70.879 8.915-127.27-22.512-145.32-7.244-4.2349-15.714-6.2409-24.964-6.2409v24.853c5.127 0 9.25 1.003 12.705 2.897 15.157 8.693 21.732 41.792 16.605 84.363-1.225 10.476-3.232 21.509-5.683 32.765-21.843-5.349-45.692-9.473-70.767-12.147-15.045-20.618-30.648-39.34-46.361-55.723 36.331-33.767 70.433-52.267 93.613-52.267v-24.852c-30.647 0-70.767 21.843-111.33 59.734-40.566-37.668-80.686-59.288-111.33-59.288v24.852c23.069 0 57.283 18.388 93.614 51.933-15.603 16.382-31.205 34.993-46.027 55.611-25.186 2.674-49.035 6.798-70.879 12.258-2.563-11.144-4.457-21.954-5.795-32.318-5.238-42.572 1.226-75.671 16.271-84.475 3.344-2.006 7.69-2.898 12.816-2.898v-24.852c-9.361 0-17.831 2.006-25.186 6.2409-31.316 18.054-38.337 74.333-22.177 144.99-69.319 21.397-114.45 55.611-114.45 91.719 0 36.219 45.358 70.544 114.9 91.83-16.048 70.878-8.915 127.27 22.512 145.32 7.244 4.235 15.714 6.241 25.075 6.241 30.647 0 70.767-21.843 111.33-59.734 40.566 37.668 80.685 59.288 111.33 59.288 9.361 0 17.831-2.006 25.186-6.241 31.316-18.054 38.337-74.333 22.177-144.99 69.096-21.286 114.23-55.61 114.23-91.718zm-145.1-74.334c-4.123 14.377-9.25 29.199-15.045 44.021-4.569-8.916-9.361-17.831-14.599-26.747-5.126-8.915-10.587-17.608-16.048-26.078 15.825 2.341 31.093 5.238 45.692 8.804zm-51.041 118.69c-8.693 15.045-17.608 29.309-26.858 42.571-16.605 1.449-33.433 2.229-50.373 2.229-16.828 0-33.656-0.78-50.15-2.117-9.25-13.262-18.277-27.416-26.969-42.349-8.47-14.599-16.16-29.421-23.181-44.355 6.91-14.933 14.711-29.867 23.069-44.466 8.693-15.045 17.608-29.31 26.858-42.572 16.605-1.449 33.434-2.229 50.373-2.229 16.828 0 33.656 0.78 50.15 2.118 9.25 13.262 18.277 27.415 26.969 42.348 8.47 14.6 16.16 29.422 23.181 44.355-7.021 14.934-14.711 29.867-23.069 44.467zm35.996-14.488c6.018 14.933 11.145 29.867 15.38 44.355-14.599 3.566-29.979 6.575-45.915 8.915 5.46-8.581 10.921-17.385 16.048-26.412 5.126-8.916 9.918-17.943 14.487-26.858zm-113 118.91c-10.364-10.699-20.729-22.623-30.982-35.662 10.03 0.445 20.283 0.78 30.648 0.78 10.475 0 20.84-0.223 30.981-0.78-10.03 13.039-20.394 24.963-30.647 35.662zm-82.915-65.641c-15.825-2.34-31.093-5.238-45.692-8.804 4.124-14.376 9.25-29.198 15.045-44.02 4.569 8.915 9.362 17.831 14.599 26.746 5.238 8.916 10.588 17.608 16.048 26.078zm82.358-231.92c10.364 10.698 20.728 22.623 30.981 35.662-10.03-0.446-20.283-0.78-30.647-0.78-10.476 0-20.84 0.223-30.981 0.78 10.03-13.039 20.394-24.964 30.647-35.662zm-82.469 65.64c-5.461 8.582-10.922 17.386-16.048 26.413-5.126 8.915-9.919 17.831-14.488 26.746-6.018-14.933-11.144-29.867-15.379-44.355 14.599-3.454 29.978-6.463 45.915-8.804zm-100.86 139.53c-39.451-16.829-64.972-38.895-64.972-56.391 0-17.497 25.521-39.674 64.972-56.391 9.584-4.124 20.06-7.801 30.87-11.256 6.352 21.843 14.711 44.578 25.075 67.87-10.253 23.18-18.5 45.803-24.741 67.535-11.033-3.455-21.508-7.244-31.204-11.367zm59.957 159.25c-15.157-8.692-21.732-41.791-16.605-84.363 1.226-10.476 3.232-21.509 5.683-32.765 21.843 5.35 45.693 9.473 70.767 12.148 15.045 20.617 30.648 39.34 46.361 55.722-36.331 33.768-70.432 52.267-93.613 52.267-5.015-0.111-9.25-1.114-12.593-3.009zm264.35-84.92c5.238 42.572-1.226 75.671-16.271 84.475-3.344 2.006-7.69 2.897-12.816 2.897-23.069 0-57.283-18.388-93.613-51.933 15.602-16.382 31.204-34.993 46.026-55.611 25.186-2.674 49.036-6.798 70.879-12.258 2.563 11.255 4.569 22.066 5.795 32.43zm42.906-74.333c-9.584 4.123-20.06 7.801-30.87 11.255-6.353-21.843-14.711-44.577-25.075-67.869 10.253-23.181 18.499-45.804 24.74-67.535 11.033 3.454 21.509 7.243 31.316 11.367 39.451 16.828 64.972 38.894 64.972 56.391-0.111 17.496-25.632 39.674-65.083 56.391z" fill="#61DAFB"/>
<path d="m323.19 374.44c28.128 0 50.93-22.802 50.93-50.93s-22.802-50.93-50.93-50.93-50.93 22.802-50.93 50.93 22.802 50.93 50.93 50.93z" fill="#61DAFB"/>
</svg>
