<svg xmlns="http://www.w3.org/2000/svg" viewBox="0 0 256 196.68"><defs><style>.cls-1{fill:#4d6960;}</style></defs><g id="Layer_2" data-name="Layer 2"><g id="Layer_1-2" data-name="Layer 1"><path class="cls-1" d="M45.17,119.1c0,3.13.24-7.74.56-7.19,2.46,4.19,13.49,10.21,29.07-6.84C94.49,83.53,122.3,62.58,142,54.46c13.06-5.39,15.88-7.62,6-4.72S115.34,64.62,102.05,74c-6,4.26-19.8,16.68-30.57,27.59s-20.27,19.84-21.11,19.84-1.53-1.45-1.53-3.21c0-6.19,34.76-35.53,63-53.2,6.27-3.92,21.55-12.2,34-18.4s22.26-11.6,21.87-12c-1.4-1.4-19.29,5.45-34.87,13.35a315.48,315.48,0,0,0-76.07,54.29C45.82,112.8,45.19,113.72,45.16,119.1Z"/><path class="cls-1" d="M117.2,85.36c-13.92,6.53-17.75,9-16.72,10.63,1.21,2,1.51,1.85,18.74-6.57,16.72-8.17,25.55-11.52,35.61-13.5l5.93-1.16-6.06-.15c-8.13-.2-23.61,4.24-37.5,10.75Z"/><path class="cls-1" d="M98.74,90.09c-1.43-.89-7,2.76-7,4.58,0,.7.82,1.27,1.81,1.27,2.39,0,6.74-4.9,5.2-5.85Z"/><path class="cls-1" d="M76.87,74.53c-1.45.78-2.33,1.91-2,2.52,1,1.58,9.13-.32,9.79-2.29S80.49,72.59,76.87,74.53Z"/><path class="cls-1" d="M158.63,61.54c-5.11,1-16.38,6.6-21.14,10.47-1.94,1.58-2.63,2.57-1.52,2.2l18.09-6.16c8.85-3,17.78-5.85,19.86-6.3,2.63-.56,3.64-1.5,3.34-3.1-.62-3.24-22.53-4.26-22.53-1,0,1.54,1,1.84,4,1.23,2.32-.47,4-.24,4,.54s-1.86,1.71-4.14,2.17Z"/><path class="cls-1" d="M63.6,66.43A16.32,16.32,0,0,0,67.92,71c3.33,2.34,4.59,2.57,5.55,1s-.67-3.63-4.14-5.46c-4.68-2.47-2.26-5.27,7-8.14a115.69,115.69,0,0,0,15.05-6L98,49.15l-3.1,6.12c-2.92,5.78-3.08,8.46-.51,8.46.63,0,3.34-4,6-8.91,7.19-13.1,4.73-16.09-6.82-8.29C86.94,51,72,57,67.51,57c-3.39,0-5.82,5.84-3.91,9.41Z"/><path class="cls-1" d="M179.35,44.34c-4.62,3.3-8.77,6.6-9.22,7.33-1.53,2.48.83,1.32,17.47-8.58a306.33,306.33,0,0,1,30.23-15.64C228.41,23,232,20.78,234,17.55c2.67-4.37,3.49-10.93,1.2-9.52a4.3,4.3,0,0,0-1.34,3.32c0,3.22-6.84,8.93-15.37,12.84C192.59,36,186.83,39,179.35,44.34Z"/><path class="cls-1" d="M118.32,40.86c-2.29,3.68-3.78,7.57-3.34,8.72,1.32,3.43,2.63,2.4,8.59-6.67,3.13-4.78,7.8-10,10.37-11.72,8.54-5.53,5.19-8.8-5.1-5-6.44,2.41-21.8,13-20.59,14.22.35.36,3.69-.9,7.42-2.79l6.77-3.44Z"/><path class="cls-1" d="M162.21,23c-8,6-10.25,9.37-7.94,11.69.48.48,2.14-.39,3.68-1.93a133.13,133.13,0,0,1,12.53-9.47c9.25-6.34,11.92-10.33,8.4-12.51-4-2.45-31.32,6.72-34.26,11.5-.68,1.09-.14,1.08,1.94,0,3.35-1.8,23.13-7,23.85-6.3.27.27-3.42,3.45-8.2,7Z"/><path class="cls-1" d="M202.45,18.47c-.87-.88-27.62,9.39-27.62,10.6a1.07,1.07,0,0,0,1,1.11C177.65,30.18,203,19,202.45,18.47Z"/><path class="cls-1" d="M184.55,2.37c-2.39,1.31-4.35,3-4.35,3.7s2.86.94,7.7.3a204.61,204.61,0,0,1,20.92-1H222l-5.84-2.57c-8-3.52-25.53-3.74-31.64-.41Z"/><path class="cls-1" d="M106.64,193.38c-5.18-3.44-6.57-3.74-14.11-3.14-16.45,1.32-31.65-6.71-33.74-17.84-2.73-14.58,17.14-35.5,33.71-35.5,7,0,9.68,2.64,7.52,7.39-1.37,3-.88,3.87,6,10.36,4.11,3.9,8,8.56,8.74,10.38,1.81,4.77,0,13-3.82,17.54l-3.34,4,3,4.78c1.62,2.62,2.7,5,2.4,5.32s-3.14-1.17-6.3-3.26ZM93.77,178.84c-2-5.12-2.33-11.11-.68-13.1s2-1.83,4.17.17a14.2,14.2,0,0,1,3.32,6.8c.88,4.71,2.68,5.23,5,1.47,1.56-2.47-1.64-11-6.77-18.06-1.71-2.35-3.1-5.24-3.1-6.42,0-3.4-3.64-3.91-10.12-1.44S68,160.94,66.86,165.58c-2.13,8.5,7.19,15.53,20.66,15.58C93.83,181.19,94.59,180.9,93.77,178.84Zm30.71,11.33-3.93-3.39.11-19.91c0-10.94.51-21.55,1-23.57,1.73-6.9,12.61-6.46,12,.49-.16,1.75-1.15,10.12-2.2,18.61s-1.61,15.95-1.23,16.57,3.17.74,6.22.26c14.26-2.24,22-2.28,26.17-.13,4.62,2.4,4.71,2.58,2.86,6.05s-4.43,4.24-16.12,5.52c-5.53.61-12.51,1.51-15.51,2-4.63.75-6,.38-9.38-2.5Zm109,1.24c-6.24-2.3-14.4-8.41-14.4-10.79a5.2,5.2,0,0,1,1.84-3.32c1-.84,2.12-4.79,2.45-8.76s1.62-8.8,2.87-10.71c1.92-2.94,3.27-3.48,8.65-3.48,3.51,0,9.25,2,9.25,2,7.85,5.5,3.46,22.92-6.7,26.56-3.58,1.29.88,2.71,9.06,2.9,10,.23,11.57,1.06,7.21,3.87C249,192.73,239.3,193.55,233.47,191.41Zm3.58-19c1.68-2.57,1.86-4,.77-6-.78-1.47-2-2.68-2.67-2.68-1.84,0-4,4.69-4,8.64C231.13,176.82,234.17,176.85,237.05,172.45ZM11.87,188.72c-5.19-2.42-7.51-4.51-9.74-8.8-3.55-6.81-2.49-9.54,1.87-4.83,2.91,3.14,4.08,3.42,14.39,3.42,11.4,0,22.24-2.6,25.07-6,4.84-5.85-6-15.26-23.29-20.15-11.65-3.3-12.69-6.26-3.91-11.11,7.17-4,21.91-4.84,25.26-1.5,2,2,1.51,2.24-6.07,3.1a65,65,0,0,0-11.16,2.06c-2.61,1-2.13,1.49,4.45,4.43,4.05,1.81,9.48,4,12.06,4.83,10.33,3.39,15.25,11,13.73,21.38-.87,6-5.32,10.19-14.21,13.52-10.19,3.81-19.79,3.7-28.45-.34Zm192.69.48c-4.69-2.87-8.72-10.32-10.35-19.14-.89-4.87-1-5-3.43-2.84-5.45,4.94-9.19-4.87-3.88-10.19,1.47-1.47,3.53-2.68,4.58-2.68,1.94,0,2.67-2.39,4.24-13.79.58-4.28,1.71-6.86,3.4-7.77,3.38-1.81,8.26.75,7.34,3.86-.37,1.25-1.06,4.08-1.53,6.29s-1.13,5-1.46,6.26c-.63,2.36.77,2.83,13.28,4.48,7.45,1,7.32,2.64-.32,3.86-8.75,1.4-14.79,4.88-14.79,8.51,0,5.69,3.51,11.71,9.85,16.91,3.43,2.82,6.23,6,6.23,7,0,2.89-7.9,2.41-13.16-.8ZM172.82,185c-3.06-7.49-4.32-24.46-2-27.23,4.49-5.42,9.52,1.35,10.4,14C182.37,188.4,177.42,196.2,172.82,185Zm-4.17-39.23c-1.33-3.48.54-6.36,3.83-5.89,2.22.31,3,1.32,3,3.78s-.8,3.47-3,3.79C170.67,147.66,169.14,147,168.65,145.72Z"/></g></g></svg>