<?xml version="1.0" encoding="UTF-8"?>
<svg viewBox="0 0 922 709" xmlns="http://www.w3.org/2000/svg">
<path d="m162.66 428.9c-0.046 11.267 0.872-27.884 2.04-25.89 8.833 15.082 48.549 36.767 104.66-24.615 70.907-77.573 171.08-153.03 242.01-182.29 47.023-19.399 57.179-27.409 21.517-16.971-36.045 10.55-117.52 53.587-165.37 87.349-21.763 15.357-71.306 60.074-110.1 99.371-38.789 39.296-72.999 71.448-76.022 71.448s-5.496-5.211-5.496-11.58c0-22.268 125.16-127.95 226.86-191.57 22.565-14.113 77.606-43.937 122.31-66.274 44.707-22.337 80.142-41.759 78.744-43.159-5.04-5.047-69.479 19.614-125.57 48.056-99.265 50.334-192.3 116.73-273.94 195.51-39.3 37.924-41.581 41.242-41.659 60.607z" fill="#4D6960"/>
<path d="m422.07 307.41c-50.136 23.503-63.919 32.268-60.204 38.286 4.333 7.02 5.435 6.633 67.459-23.679 60.222-29.432 92.036-41.488 128.26-48.603l21.358-4.196-21.818-0.529c-29.285-0.711-85.031 15.272-135.05 38.721z" fill="#4D6960"/>
<path d="m355.59 324.42c-5.159-3.193-25.235 9.94-25.235 16.507 0 2.508 2.921 4.559 6.492 4.559 8.618 0 24.301-17.627 18.743-21.066z" fill="#4D6960"/>
<path d="m276.81 268.4c-5.21 2.791-8.362 6.874-7.005 9.072 3.522 5.705 32.896-1.153 35.253-8.231 2.433-7.307-15.201-7.832-28.248-0.841z" fill="#4D6960"/>
<path d="m571.26 221.61c-18.397 3.684-58.991 23.795-76.113 37.706-7.008 5.694-9.484 9.264-5.502 7.934 3.982-1.331 33.305-11.317 65.162-22.191s64.039-21.077 71.516-22.672c9.462-2.02 13.114-5.42 12.013-11.187-2.226-11.669-81.116-15.334-81.116-3.768 0 5.56 3.487 6.626 14.481 4.424 8.366-1.675 14.48-0.859 14.48 1.933 0 2.658-6.715 6.178-14.921 7.821z" fill="#4D6960"/>
<path d="m229.03 239.23c2.676 5.006 9.675 12.475 15.555 16.599 12.018 8.428 16.543 9.252 20.006 3.641 3.36-5.443-2.433-13.085-14.904-19.659-16.855-8.884-8.141-18.996 25.28-29.331 16.769-5.186 41.15-14.838 54.179-21.449l23.689-12.019-11.14 22.032c-10.531 20.827-11.114 30.452-1.844 30.452 2.255 0 12.021-14.429 21.703-32.065 25.9-47.179 17.041-57.959-24.54-29.862-23.931 16.171-77.609 37.763-93.879 37.763-12.22 0-20.976 21.043-14.105 33.898z" fill="#4D6960"/>
<path d="m645.89 159.68c-16.65 11.896-31.596 23.772-33.212 26.39-5.509 8.925 2.976 4.758 62.9-30.891 32.959-19.609 81.953-44.958 108.88-56.332 38.095-16.095 50.967-23.996 58.054-35.632 9.592-15.75 12.568-39.39 4.316-34.283-2.655 1.6427-4.827 7.0146-4.827 11.938 0 11.593-24.615 32.157-55.339 46.23-93.11 42.652-113.83 53.334-140.77 72.581z" fill="#4D6960"/>
<path d="m426.08 147.16c-8.225 13.248-13.583 27.258-12.001 31.384 4.732 12.348 9.473 8.665 30.916-24.017 11.284-17.199 28.091-36.183 37.348-42.187 30.76-19.95 18.693-31.697-18.353-17.867-23.216 8.6661-78.502 46.847-74.148 51.207 1.266 1.268 13.281-3.265 26.699-10.073l24.397-12.378-14.858 23.931z" fill="#4D6960"/>
<path d="m584.14 82.652c-28.683 21.629-36.911 33.741-28.585 42.078 1.739 1.742 7.713-1.374 13.274-6.924s25.858-20.896 45.105-34.104c33.299-22.849 42.938-37.2 30.258-45.046-14.301-8.8497-112.78 24.186-123.4 41.397-2.421 3.9225-0.487 3.8907 6.988-0.1149 12.082-6.4743 83.306-25.266 85.904-22.665 0.972 0.9741-12.32 12.394-29.539 25.379z" fill="#4D6960"/>
<path d="m729.08 66.498c-3.155-3.1588-99.461 33.821-99.461 38.192 0 2.192 1.629 3.99 3.62 3.994 6.52 0.015 97.842-40.182 95.841-42.186z" fill="#4D6960"/>
<path d="m664.61 8.5384c-8.627 4.7096-15.687 10.701-15.687 13.314 0 2.987 10.305 3.3895 27.755 1.0841 15.264-2.0168 49.16-3.6668 75.323-3.6668h47.569l-21.022-9.2546c-28.783-12.671-91.93-13.49-113.94-1.4765z" fill="#4D6960"/>
<path d="m384.05 696.4c-18.659-12.368-23.664-13.481-50.818-11.298-59.263 4.763-113.99-24.173-121.5-64.24-9.837-52.501 61.699-127.84 121.39-127.84 25.187 0 34.844 9.494 27.059 26.601-4.931 10.838-3.145 13.927 21.575 37.311 14.823 14.022 28.985 30.834 31.472 37.36 6.545 17.182 0.128 46.674-13.749 63.187l-12.023 14.306 10.613 17.194c5.837 9.456 9.727 18.08 8.644 19.164-1.083 1.085-11.283-4.202-22.667-11.748zm-46.348-52.35c-7.29-18.457-8.41-40.013-2.452-47.2 5.503-6.639 7.068-6.574 15.011 0.622 4.877 4.419 10.255 15.442 11.951 24.496 3.179 16.963 9.656 18.848 18.194 5.295 5.61-8.904-5.924-39.68-24.378-65.048-6.156-8.461-11.192-18.859-11.192-23.107 0-12.239-13.084-14.1-36.412-5.18-23.803 9.102-63.447 45.659-67.636 62.369-7.671 30.602 25.882 55.905 74.397 56.105 22.702 0.093 25.45-0.926 22.517-8.352zm110.58 40.781l-14.146-12.21 0.374-71.675c0.205-39.421 1.867-77.622 3.693-84.891 6.238-24.834 45.421-23.248 43.166 1.747-0.569 6.308-4.136 36.479-7.925 67.047-3.79 30.567-5.785 57.412-4.434 59.655s11.434 2.666 22.406 0.941c51.344-8.076 79.268-8.21 94.251-0.452 16.647 8.619 16.966 9.292 10.301 21.762-6.415 12.001-15.942 15.267-58.056 19.901-19.911 2.19-45.04 5.423-55.843 7.184-16.692 2.72-21.766 1.368-33.787-9.009zm392.5 4.466c-22.488-8.271-51.878-30.285-51.878-38.86 0-3.526 2.993-8.898 6.651-11.938s7.621-17.242 8.807-31.56 5.845-31.67 10.354-38.56c6.92-10.574 11.777-12.527 31.147-12.527 12.622 0 33.294 7.255 33.294 7.255 28.275 19.829 12.457 82.548-24.127 95.666-12.902 4.627 3.164 9.774 32.628 10.454 36.139 0.833 41.683 3.809 25.955 13.931-16.953 10.91-51.857 13.852-72.831 6.139zm12.872-68.252c6.064-9.265 6.725-14.403 2.799-21.747-2.827-5.289-7.159-9.617-9.627-9.617-6.617 0-14.481 16.888-14.481 31.096 0 15.974 10.941 16.112 21.309 0.268zm-810.9 58.587c-18.702-8.719-27.054-16.262-35.083-31.684-12.771-24.532-8.9626-34.386 6.7352-17.427 10.473 11.315 14.702 12.321 51.803 12.321 41.084 0 80.112-9.352 90.294-21.638 17.446-21.046-21.726-54.933-83.857-72.543-41.965-11.895-45.724-22.561-14.105-40.025 25.829-14.265 78.935-17.419 90.982-5.403 7.188 7.171 5.448 8.059-21.847 11.151-16.311 1.848-34.397 5.2-40.19 7.449-9.4006 3.65-7.6794 5.364 16.015 15.95 14.601 6.523 34.149 14.35 43.441 17.392 37.204 12.183 54.906 39.743 49.446 76.985-3.143 21.446-19.167 36.682-51.196 48.681-36.672 13.738-71.254 13.33-102.44-1.209zm693.93 1.725c-16.919-10.328-31.435-37.174-37.277-68.944-3.224-17.53-3.774-17.985-12.358-10.207-19.633 17.789-33.109-17.548-13.992-36.689 5.309-5.316 12.739-9.665 16.51-9.665 6.98 0 9.621-8.603 15.25-49.671 2.112-15.411 6.186-24.709 12.25-27.959 12.185-6.529 29.752 2.698 26.44 13.889-1.329 4.49-3.807 14.688-5.508 22.662-1.7 7.974-4.061 18.113-5.246 22.53-2.278 8.488 2.765 10.19 47.794 16.132 26.852 3.543 26.368 9.508-1.127 13.91-31.501 5.044-53.268 17.563-53.268 30.636 0 20.485 12.628 42.177 35.457 60.907 12.355 10.137 22.464 21.547 22.464 25.356 0 10.391-28.481 8.656-47.389-2.887zm-114.33-15.324c-11.019-26.948-15.545-88.059-7.263-98.05 16.168-19.505 34.284 4.869 37.46 50.402 4.19 60.071-13.624 88.181-30.197 47.648zm-15-141.26c-4.806-12.54 1.93-22.904 13.79-21.218 7.977 1.134 10.881 4.772 10.881 13.629 0 8.858-2.904 12.495-10.881 13.63-6.528 0.927-12.046-1.49-13.79-6.041z" fill="#4D6960"/>
</svg>