<svg width="81" height="124" viewBox="0 0 81 124" fill="none" xmlns="http://www.w3.org/2000/svg">
<path d="M40.3 62C40.3 50.5831 49.3255 41.3363 60.45 41.3363C71.5835 41.3363 80.6 50.5743 80.6 62C80.6 73.4168 71.5835 82.6637 60.45 82.6637C49.3343 82.6637 40.3 73.4257 40.3 62Z" fill="#5CD0FF"/>
<path d="M0 103.336C0 91.9194 9.02543 82.6637 20.15 82.6637H40.3V103.336C40.3 114.744 31.2746 124 20.15 124C9.02543 124 0 114.744 0 103.336Z" fill="#53E0AA"/>
<path d="M40.3 0V41.3363H60.45C71.5835 41.3363 80.6 32.0806 80.6 20.6637C80.6 9.25571 71.5835 0 60.45 0H40.3Z" fill="#E98461"/>
<path d="M0 20.6637C0 32.0806 9.02543 41.3363 20.15 41.3363H40.3V0H20.15C9.02543 0 0 9.25571 0 20.6637Z" fill="#C7522A"/>
<path d="M0 62C0 73.4168 9.02543 82.6637 20.15 82.6637H40.3V41.3363H20.15C9.02543 41.3363 0 50.5743 0 62Z" fill="#9B51FA"/>
</svg>
