<svg width="125" height="107" viewBox="0 0 125 107" fill="none" xmlns="http://www.w3.org/2000/svg">
<path d="M65.6699 10.4831C76.4408 1.50875 87.1063 -2.24556 93.627 1.35522C100.428 5.10967 102.419 16.5154 99.373 30.6726C99.1827 31.5521 98.9751 32.4284 98.751 33.3005C100.103 33.6728 101.445 34.0774 102.775 34.5144C116.276 38.9643 125 45.9349 125 53.1423C125 60.6589 115.677 68.0078 101.347 72.5535C100.589 72.7939 99.8126 73.0252 99.0215 73.2488C99.3036 74.3356 99.5557 75.403 99.7715 76.448C102.601 90.13 100.422 101.376 93.7178 105.093C87.2259 108.691 76.7331 105.156 66.1094 96.4031C64.9546 95.4493 63.8279 94.4648 62.7305 93.4509C61.8592 94.2576 60.9889 95.027 60.1221 95.7527C49.1545 104.932 37.8916 108.741 31.1807 105.036C24.6833 101.447 22.6414 90.9784 25.2559 77.7947C25.5415 76.3621 25.8685 74.9373 26.2373 73.5222C25.1021 73.2119 23.9751 72.8745 22.8574 72.5105C9.07282 67.9998 0.000195933 60.5599 0 53.1423C0 45.9609 8.45179 39.0364 21.6855 34.6189C23.1648 34.1252 24.7115 33.6617 26.3125 33.2263C25.9695 31.9126 25.6615 30.5901 25.3887 29.2615C22.6465 15.8448 24.5754 5.12229 31.0898 1.51147C37.8837 -2.25404 49.1992 1.78969 60.4873 11.3865C61.1894 11.9846 61.8792 12.5959 62.5576 13.2185C63.5708 12.282 64.6086 11.3695 65.6699 10.4831ZM93.8564 74.5456C88.6791 75.6913 82.9699 76.5314 76.9268 77.0447C73.4915 81.8063 69.9714 86.0943 66.4492 89.783C67.5014 90.7523 68.5511 91.669 69.5928 92.5271C78.677 100.012 87.1014 102.85 91.041 100.668C92.892 99.6417 94.3892 97.0794 95.1338 93.2371C95.9624 88.961 95.784 83.4911 94.5332 77.4412C94.3379 76.4968 94.1109 75.5308 93.8564 74.5456ZM31.415 74.7751C31.0725 76.0913 30.7678 77.4165 30.502 78.7488C28.2665 90.0229 29.9054 98.4292 33.8486 100.606C35.5855 101.565 38.388 101.592 41.9023 100.519L42.6152 100.29C46.8981 98.8411 51.7585 95.9625 56.6084 91.9031C57.4201 91.222 58.2145 90.521 58.9902 89.8025C55.3403 86.0519 51.7178 81.7696 48.2598 77.1101C42.2023 76.6397 36.5348 75.8594 31.415 74.7751ZM70.0459 77.4812C67.567 77.5871 65.0481 77.6413 62.5 77.6413C60.02 77.6413 57.5797 77.5957 55.1865 77.5056C57.6521 80.6164 60.1762 83.5088 62.707 86.1238C65.1533 83.5448 67.6118 80.6487 70.0459 77.4812ZM62.501 33.9685C58.6479 33.9685 54.8357 34.1096 51.1182 34.3787C48.9765 37.3835 46.9549 40.4652 45.0576 43.6169V43.616C43.1596 46.7672 41.3855 49.9865 39.7402 53.2654C41.3896 56.5431 43.1689 59.7595 45.0732 62.908C46.9867 66.0734 49.0248 69.1693 51.1826 72.1872C54.8265 72.4134 58.6105 72.529 62.5 72.529C66.4056 72.529 70.2386 72.398 73.9473 72.1443C76.0504 69.1195 78.05 66.0299 79.9434 62.8806C81.8533 59.7134 83.6458 56.4815 85.3154 53.1921C83.6285 49.9362 81.8312 46.7337 79.9268 43.5896C78.0329 40.4536 76.0234 37.3819 73.9033 34.3816C70.1872 34.1104 66.3709 33.9685 62.501 33.9685ZM36.9082 59.2771C35.32 62.884 33.96 66.4305 32.8564 69.8425C36.4217 70.5856 40.2824 71.1784 44.376 71.616C43.0171 69.5974 41.709 67.5477 40.4521 65.4695C39.2204 63.4322 38.0385 61.3676 36.9082 59.2771ZM88.1943 59.0935C87.0353 61.2326 85.8266 63.3467 84.5693 65.4343C83.3325 67.4886 82.0537 69.5196 80.7324 71.5251C84.8553 71.0516 88.7681 70.4137 92.3926 69.6218C91.274 66.2674 89.865 62.7397 88.1943 59.0935ZM27.7461 38.1511C26.2991 38.5429 24.8639 38.9749 23.4434 39.447C12.1255 43.2252 5.33984 48.7847 5.33984 53.1423C5.33998 55.1905 6.90507 57.7143 10.0049 60.2566C13.4552 63.085 18.4889 65.6778 24.584 67.6726C25.6044 68.005 26.6336 68.3134 27.6699 68.5974C29.2488 63.6687 31.3306 58.4938 33.8389 53.2663C31.3627 48.1158 29.3106 43.0226 27.7461 38.1511ZM97.3213 38.2263C95.7834 42.9908 93.7316 48.0246 91.2383 53.1677C93.8504 58.4353 95.9853 63.5347 97.5674 68.3298C98.2821 68.127 98.9838 67.9176 99.667 67.7009C112.039 63.7755 119.66 57.7691 119.66 53.1423C119.66 48.7989 112.605 43.1615 101.037 39.3494C99.8411 38.9548 98.5997 38.5812 97.3213 38.2263ZM80.7471 35.0427C82.0587 37.0114 83.3259 39.0072 84.5479 41.0281C85.7896 43.0808 86.9884 45.157 88.1436 47.2556C89.7246 43.7121 91.0675 40.2556 92.1445 36.9499C88.5565 36.1655 84.7356 35.5247 80.7471 35.0427ZM44.2627 35.033C40.3001 35.507 36.4962 36.1309 32.9297 36.8953C34.0162 40.2481 35.3473 43.7204 36.9023 47.2517C38.028 45.1627 39.2045 43.0987 40.4307 41.0622C41.6585 39.024 42.9363 37.0138 44.2627 35.033ZM90.96 5.7849C87.03 3.6148 78.4043 6.65065 69.1758 14.3406C68.196 15.1591 67.2378 16.0009 66.3018 16.865C69.8744 20.5505 73.4333 24.809 76.8682 29.4919C82.764 30.0216 88.3955 30.8746 93.5811 32.0203C93.7833 31.2304 93.9712 30.4367 94.1436 29.6404C96.7733 17.4174 95.1452 8.09673 90.96 5.7849ZM56.9404 15.2097C47.1942 6.92411 37.9478 3.61939 33.7656 5.93725C29.8396 8.11321 28.2795 16.7844 30.6289 28.28C30.8828 29.5158 31.1696 30.7446 31.4883 31.9665C36.6617 30.8442 42.2893 30.0068 48.168 29.4851C51.5962 24.8525 55.1852 20.6016 58.8164 16.8679C58.1896 16.2943 57.5633 15.7394 56.9404 15.2097ZM62.5596 20.5212C60.058 23.1056 57.5702 25.9549 55.1416 29.0212C60.0636 28.8007 64.9942 28.8015 69.916 29.0242C67.4897 25.9292 65.0224 23.0759 62.5596 20.5212Z" fill="#C7522A"/>
<path d="M62.2454 42.5493C68.4103 42.5493 73.4074 47.3344 73.4074 53.2367C73.4074 59.1395 68.4103 63.9246 62.2454 63.9246C56.081 63.9246 51.0834 59.1395 51.0834 53.2367C51.0834 47.3344 56.081 42.5493 62.2454 42.5493Z" fill="#C7522A"/>
</svg>
