<svg width="102" height="102" viewBox="0 0 102 102" fill="none" xmlns="http://www.w3.org/2000/svg">
<rect width="102" height="102" rx="11" fill="#C7522A"/>
<path d="M54.5157 43.6093H59.3126V51.8906H46.3438V88.7343L46 88.8281C45.5313 88.9531 39.3594 88.9531 38.0313 88.8125L36.9688 88.7187V51.8906H24V43.6093L28.1094 43.5625C30.3594 43.5312 36.1406 43.5312 40.9532 43.5625C45.7657 43.5937 51.8594 43.6093 54.5157 43.6093ZM91.1251 84.8281C89.2189 86.8437 87.172 87.9687 83.7657 88.8906C82.2813 89.2968 82.0313 89.3125 78.6876 89.2968C75.3438 89.2812 75.0782 89.2812 73.4532 88.8593C69.2501 87.7812 65.8594 85.6718 63.5469 82.6875C62.8907 81.8437 61.8126 80.0937 61.8126 79.875C61.8126 79.8125 61.9688 79.6718 62.1719 79.5781C62.3751 79.4843 62.7969 79.2187 63.1407 79.0156C63.4844 78.8125 64.1094 78.4375 64.5313 78.2187C64.9532 78 66.1719 77.2812 67.2345 76.6406C68.297 76 69.2657 75.4843 69.3751 75.4843C69.4845 75.4843 69.6876 75.7031 69.8438 75.9687C70.7813 77.5468 72.9688 79.5625 74.5157 80.25C75.4688 80.6562 77.5782 81.1093 78.5938 81.1093C79.5313 81.1093 81.2501 80.7031 82.172 80.2812C83.1563 79.8281 83.6564 79.375 84.2501 78.4687C84.6564 77.8281 84.7032 77.6562 84.6876 76.4375C84.6876 75.3125 84.6251 75 84.3126 74.4843C83.4376 73.0468 82.2501 72.2968 77.4376 70.1718C72.4688 67.9687 70.2345 66.6562 68.4219 64.8906C67.0782 63.5781 66.8126 63.2187 65.9688 61.5781C64.8751 59.4687 64.7344 58.7812 64.7188 55.6406C64.7032 53.4375 64.7501 52.7187 64.9844 51.9687C65.3126 50.8437 66.3751 48.6718 66.8594 48.125C67.8594 46.9531 68.2188 46.5937 68.922 46.0156C71.047 44.2656 74.3595 43.1093 77.5313 43C77.8907 43 79.0782 43.0625 80.1876 43.1406C83.3751 43.4062 85.547 44.1875 87.6407 45.8593C89.2189 47.1093 91.6095 50.0468 91.3751 50.4375C91.2189 50.6718 84.9845 54.8281 84.5782 54.9531C84.3282 55.0312 84.1564 54.9375 83.8126 54.5312C81.6876 51.9843 80.8282 51.4375 78.7657 51.3125C77.297 51.2187 76.5157 51.3906 75.5313 52.0468C74.5001 52.7343 74.0001 53.7812 74.0001 55.2343C74.0157 57.3593 74.8282 58.3593 77.8282 59.8437C79.7657 60.7968 81.422 61.5781 81.547 61.5781C81.7345 61.5781 85.7501 63.5781 86.797 64.2031C91.672 67.0625 93.6564 70 94.172 75.0625C94.547 78.875 93.4689 82.3593 91.1251 84.8281Z" fill="white"/>
</svg>
